{
.appVersion = "3341";
.formatVersion = 3;
DisplayStrings = (
"ıı"
);
axes = (
{
name = Weight;
tag = wght;
}
);
classes = (
{
code = "zero one two three four five six seven eight nine zero.zero zero.tf one.tf two.tf three.tf four.tf five.tf six.tf seven.tf eight.tf nine.tf zero.tf.zero ";
name = numbers;
}
);
customParameters = (
{
name = vendorID;
value = BLOM;
},
{
name = "Use Typo Metrics";
value = 1;
},
{
name = "Axis Mappings";
value = {
wght = {
300 = 70;
400 = 90;
500 = 110;
600 = 125;
700 = 145;
};
};
},
{
name = "Family Alignment Zones";
value = (
{
pos = 760;
size = 15;
},
{
pos = 700;
size = 15;
},
{
pos = 559;
size = 15;
},
{
pos = 0;
size = -15;
},
{
pos = -215;
size = -15;
}
);
},
{
name = "Variable Font Origin";
value = "AC72BA4F-EBEC-4C28-9168-13A8176B9035";
},
{
name = fsType;
value = (
);
}
);
date = "2025-02-06 08:55:16 +0000";
familyName = "Vend Sans";
featurePrefixes = (
{
automatic = 1;
code = "languagesystem DFLT dflt;

languagesystem latn dflt;
languagesystem latn AZE;
languagesystem latn CRT;
languagesystem latn KAZ;
languagesystem latn TAT;
languagesystem latn TRK;
languagesystem latn ROM;
languagesystem latn MOL;
languagesystem latn MAH;
languagesystem latn CAT;
";
name = Languagesystems;
}
);
features = (
{
automatic = 1;
code = "feature locl;
feature subs;
feature sinf;
feature sups;
feature numr;
feature dnom;
feature frac;
feature ordn;
feature pnum;
feature tnum;
feature case;
feature zero;
feature ss01;
feature ss02;
";
tag = aalt;
},
{
automatic = 1;
code = "lookup ccmp_DFLT_1 {
	@CombiningTopAccents = [acutecomb brevecomb caroncomb circumflexcomb commaturnedabovecomb dieresiscomb dotaccentcomb gravecomb hungarumlautcomb macroncomb ringcomb tildecomb];
	lookupflag UseMarkFilteringSet @CombiningTopAccents;
	sub i' @CombiningTopAccents by idotless;
	sub j' @CombiningTopAccents by jdotless;
} ccmp_DFLT_1;

lookup ccmp_latn_1 {
	lookupflag 0;
	sub fi by f i;
	sub fl by f l;
	sub Ldot by L periodcentered.loclCAT.case;

glyphs = (
{
glyphname = A;
kernLeft = KO_A;
kernRight = KO_A;
layers = (
{
anchors = (
{
name = bottom;
pos = (313,0);
},
{
name = ogonek;
pos = (610,10);
},
{
name = top;
pos = (313,700);
}
);
layerId = "AC72BA4F-EBEC-4C28-9168-13A8176B9035";
shapes = (
{
closed = 1;
nodes = (
(95,0,l),
(317,616,l),
(313,616,l),
(530,0,l),
(605,0,l),
(349,700,l),
(282,700,l),
(20,0,l)
);
},
{
closed = 1;
nodes = (
(474,226,l),
(474,286,l),
(136,286,l),
(136,226,l)
);
}
);
userData = {
com.hugojourdan.ColorFlow = {
"0" = 0;
"1" = 0;
"10" = 0;
"11" = 0;
"2" = 0;
"3" = 0;
"4" = 0;
"5" = 0;
"6" = 0;
"7" = 0;
"8" = 0;
"9" = 0;
};
};
width = 625;
},
{
anchors = (
{
name = bottom;
pos = (328,0);
},
{
name = ogonek;
pos = (599,10);
},
{
name = top;
pos = (328,700);
}
);
layerId = "BC57D14F-D7AD-4877-A02E-2DA2D5328E1F";
shapes = (
{
closed = 1;
nodes = (
(162,0,l),
(337,613,l),
(324,613,l),
(494,0,l),
(641,0,l),
(429,700,l),
(232,700,l),
(14,0,l)
);
},
{
closed = 1;
nodes = (
(489,192,l),
(489,308,l),
(151,308,l),
(151,192,l)
);
}
);
userData = {
com.hugojourdan.ColorFlow = {
"0" = 0;
"1" = 0;
"10" = 0;
"11" = 0;
"2" = 0;
"3" = 0;
"4" = 0;
"5" = 0;
"6" = 0;
"7" = 0;
"8" = 0;
"9" = 0;
};
};
width = 655;
}
);
metricRight = "=|";
unicode = 65;
userData = {
KernOnName = A;
};
},
{
color = 0;
glyphname = AE;
kernRight = KO_E;
lastChange = "2025-02-06 07:51:02 +0000";
layers = (
{
anchors = (
{
name = bottom;
pos = (445,0);
},
{
name = top;
pos = (445,700);
}
);
layerId = "AC72BA4F-EBEC-4C28-9168-13A8176B9035";
shapes = (
{
closed = 1;
nodes = (
(97,0,l),
(342,651,l),
(292,640,l),
(464,640,l),
(464,700,l),
(294,700,l),
(22,0,l)
);
},
{
closed = 1;
nodes = (
(464,228,l),
(464,286,l),
(138,286,l),
(138,228,l)
);
},
{
alignment = -1;
pos = (345,0);
ref = E;
}
);
userData = {
com.hugojourdan.ColorFlow = {
"0" = 0;
"1" = 0;
"10" = 0;
"11" = 0;
"2" = 0;
"3" = 0;
"4" = 0;
"5" = 0;
"6" = 0;
"7" = 0;
"8" = 0;
"9" = 0;
};
};
width = 890;
},
{
anchors = (
{
name = bottom;
pos = (457,0);
},
{
name = top;
pos = (457,700);
}
);
layerId = "BC57D14F-D7AD-4877-A02E-2DA2D5328E1F";
shapes = (
{
closed = 1;
nodes = (
(170,0,l),
(377,670,l),
(307,581,l),
(505,581,l),
(505,700,l),
(254,700,l),
(22,0,l)
);
},
{
closed = 1;
nodes = (
(505,190,l),
(505,308,l),
(159,308,l),
(159,190,l)
);
},
{
alignment = -1;
pos = (368,0);
ref = E;
}
);
userData = {
com.hugojourdan.ColorFlow = {
"0" = 0;
"1" = 0;
"10" = 0;
"11" = 0;
"2" = 0;
"3" = 0;
"4" = 0;
"5" = 0;
"6" = 0;
"7" = 0;
"8" = 0;
"9" = 0;
};
};
width = 914;
}
);
metricRight = E;
unicode = 198;
},
{
glyphname = B;
kernLeft = KO_H;
kernRight = KO_B;
layers = (
{
anchors = (
{
name = bottom;
pos = (303,0);
},
{
name = center;
pos = (153,175);
},
{
name = top;
pos = (303,700);
}
);
layerId = "AC72BA4F-EBEC-4C28-9168-13A8176B9035";
shapes = (
{
closed = 1;
nodes = (
(347,0,ls),
(489,0,o),
(558,84,o),
(558,198,cs),
(558,324,o),
(491,394,o),
(340,394,cs),
(306,394,l),
(374,367,l),
(459,370,o),
(528,445,o),
(528,534,cs),
(528,638,o),
(464,700,o),
(336,700,cs),
(90,700,l),
(90,0,l)
);
},
{
closed = 1;
nodes = (
(160,347,l),
(331,347,ls),
(429,347,o),
(490,310,o),
(490,206,cs),
(490,105,o),
(429,60,o),
(331,60,cs),
(160,60,l)
);
},
{
closed = 1;
nodes = (
(160,640,l),
(327,640,ls),
(405,640,o),
(458,618,o),
(458,530,cs),
(458,440,o),
(405,407,o),
(327,407,cs),
(160,407,l)
);
}
);
userData = {
com.hugojourdan.ColorFlow = {
"0" = 0;
"1" = 0;
"10" = 0;
"11" = 0;
"2" = 0;
"3" = 0;
"4" = 0;
"5" = 0;
"6" = 0;
"7" = 0;
"8" = 0;
"9" = 0;
};
};
width = 603;
},
{
anchors = (
{
name = bottom;
pos = (300,0);
},
{
name = center;
pos = (153,175);
},
{
name = top;
pos = (300,700);
}
);
color = 4;
layerId = "BC57D14F-D7AD-4877-A02E-2DA2D5328E1F";
shapes = (
{
closed = 1;
nodes = (
(352,0,ls),
(488,0,o),
(579,80,o),
(579,211,cs),
(579,327,o),
(509,397,o),
(361,397,cs),
(327,397,l),
(399,364,l),
(491,369,o),
(553,435,o),
(553,533,cs),
(553,629,o),
(470,700,o),
(361,700,cs),
(64,700,l),
(64,0,l)
);
},
{
closed = 1;
nodes = (
(209,326,l),
(326,326,ls),
(393,326,o),
(434,297,o),
(434,219,cs),
(434,144,o),
(393,109,o),
(326,109,cs),
(209,109,l)
);
},
{
closed = 1;
nodes = (
(209,591,l),
(327,591,ls),
(369,591,o),
(409,574,o),
(409,512,cs),
(409,452,o),
(370,429,o),
(327,429,cs),
(209,429,l)
);
}
);
userData = {
com.hugojourdan.ColorFlow = {
"0" = 0;
"1" = 0;
"10" = 0;
"11" = 0;
"2" = 0;
"3" = 0;
"4" = 0;
"5" = 0;
"6" = 0;
"7" = 0;
"8" = 0;
"9" = 0;
};
};
width = 611;
}
);
metricLeft = H;
metricRight = "=H*.5";
unicode = 66;
},
{
glyphname = C;
kernLeft = KO_O;
kernRight = KO_C;
layers = (
{
anchors = (
{
name = bottom;
pos = (307,0);
},
{
name = top;
pos = (307,700);
}
);
layerId = "AC72BA4F-EBEC-4C28-9168-13A8176B9035";
shapes = (
{
closed = 1;
nodes = (
(443,-12,o),
(532,38,o),
(567,226,c),
(497,234,l),
(476,97,o),
(421,48,o),
(326,48,cs),
(196,48,o),
(134,157,o),
(134,351,cs),
(134,545,o),
(196,654,o),
(326,654,cs),
(425,654,o),
(479,590,o),
(497,468,c),
(567,478,l),
(535,661,o),
(445,714,o),
(325,714,cs),
(152,714,o),
(64,573,o),
(64,351,cs),
(64,129,o),
(152,-12,o),
(325,-12,cs)
);
}
);
userData = {
com.hugojourdan.ColorFlow = {
"0" = 0;
"1" = 0;
"10" = 0;
"11" = 0;
"2" = 0;
"3" = 0;
"4" = 0;
"5" = 0;
"6" = 0;
"7" = 0;
"8" = 0;
"9" = 0;
};
};
width = 612;
},
{
anchors = (
{
name = bottom;
pos = (310,0);
},
{
name = top;
pos = (310,700);
}
);
color = 4;
layerId = "BC57D14F-D7AD-4877-A02E-2DA2D5328E1F";
shapes = (
{
closed = 1;
nodes = (
(456,-12,o),
(569,33,o),
(602,239,c),
(459,264,l),
(446,144,o),
(400,104,o),
(327,104,cs),
(223,104,o),
(177,180,o),
(177,351,cs),
(177,521,o),
(222,599,o),
(327,599,cs),
(403,599,o),
(453,551,o),
(462,438,c),
(607,463,l),
(579,663,o),
(459,714,o),
(326,714,cs),
(137,714,o),
(32,561,o),
(32,351,cs),
(32,141,o),
(137,-12,o),
(326,-12,cs)
);
}
);
userData = {
com.hugojourdan.ColorFlow = {
"0" = 0;
"1" = 0;
"10" = 0;
"11" = 0;
"2" = 0;
"3" = 0;
"4" = 0;
"5" = 0;
"6" = 0;
"7" = 0;
"8" = 0;
"9" = 0;
};
};
width = 629;
}
);
metricLeft = O;
metricRight = "=O*.7";
unicode = 67;
},
{
glyphname = D;
kernLeft = KO_H;
kernRight = KO_D;
layers = (
{
anchors = (
{
name = bottom;
pos = (300,0);
},
{
name = center;
pos = (160,350);
},
{
name = top;
pos = (300,700);
}
);
layerId = "AC72BA4F-EBEC-4C28-9168-13A8176B9035";
shapes = (
{
closed = 1;
nodes = (
(275,0,ls),
(456,0,o),
(575,116,o),
(575,353,cs),
(575,590,o),
(456,700,o),
(275,700,cs),
(90,700,l),
(90,0,l)
);
},
{
closed = 1;
nodes = (
(160,640,l),
(277,640,ls),
(416,640,o),
(505,555,o),
(505,352,cs),
(505,149,o),
(416,60,o),
(277,60,cs),
(160,60,l)
);
}
);
userData = {
com.hugojourdan.ColorFlow = {
"0" = 0;
"1" = 0;
"10" = 0;
"11" = 0;
"2" = 0;
"3" = 0;
"4" = 0;
"5" = 0;
"6" = 0;
"7" = 0;
"8" = 0;
"9" = 0;
};
};
width = 639;
},
{
anchors = (
{
name = bottom;
pos = (305,0);
},
{
name = center;
pos = (161,350);
},
{
name = top;
pos = (305,700);
}
);
layerId = "BC57D14F-D7AD-4877-A02E-2DA2D5328E1F";
shapes = (
{
closed = 1;
nodes = (
(293,0,ls),
(482,0,o),
(609,122,o),
(609,353,cs),
(609,583,o),
(482,700,o),
(293,700,cs),
(64,700,l),
(64,0,l)
);
},
{
closed = 1;
nodes = (
(209,585,l),
(281,585,ls),
(395,585,o),
(464,516,o),
(464,352,cs),
(464,189,o),
(396,116,o),
(281,116,cs),
(209,116,l)
);
}
);
userData = {
com.hugojourdan.ColorFlow = {
"0" = 0;
"1" = 0;
"10" = 0;
"11" = 0;
"2" = 0;
"3" = 0;
"4" = 0;
"5" = 0;
"6" = 0;
"7" = 0;
"8" = 0;
"9" = 0;
};
};
width = 641;
}
);
metricLeft = H;
metricRight = O;
unicode = 68;
userData = {
KernOnName = D;
};
},
{
color = 0;
glyphname = Eth;
kernLeft = KO_Eth;
kernRight = KO_D;
lastChange = "2025-02-06 07:51:02 +0000";
layers = (
{
layerId = "AC72BA4F-EBEC-4C28-9168-13A8176B9035";
shapes = (
{
ref = D;
},
{
closed = 1;
nodes = (
(288,320,l),
(288,380,l),
(2,380,l),
(2,320,l)
);
}
);
userData = {
com.hugojourdan.ColorFlow = {
"0" = 0;
"1" = 0;
"10" = 0;
"11" = 0;
"2" = 0;
"3" = 0;
"4" = 0;
"5" = 0;
"6" = 0;
"7" = 0;
"8" = 0;
"9" = 0;
};
};
width = 639;
},
{
layerId = "BC57D14F-D7AD-4877-A02E-2DA2D5328E1F";
shapes = (
{
alignment = -1;
ref = D;
},
{
closed = 1;
nodes = (
(318,288,l),
(318,403,l),
(-11,403,l),
(-11,288,l)
);
}
);
userData = {
com.hugojourdan.ColorFlow = {
"0" = 0;
"1" = 0;
"10" = 0;
"11" = 0;
"2" = 0;
"3" = 0;
"4" = 0;
"5" = 0;
"6" = 0;
"7" = 0;
"8" = 0;
"9" = 0;
};
};
width = 641;
}
);
metricRight = D;
unicode = 208;
},
{
glyphname = E;
kernLeft = KO_H;
kernRight = KO_E;
layers = (
{
anchors = (
{
name = bottom;
pos = (273,0);
},
{
name = ogonek;
pos = (489,10);
},
{
name = top;
pos = (273,700);
},
{
name = topleft;
pos = (22,700);
}
);
layerId = "AC72BA4F-EBEC-4C28-9168-13A8176B9035";
shapes = (
{
closed = 1;
nodes = (
(504,0,l),
(504,60,l),
(160,60,l),
(160,640,l),
(476,640,l),
(476,700,l),
(90,700,l),
(90,0,l)
);
},
{
closed = 1;
nodes = (
(446,356,l),
(446,416,l),
(94,416,l),
(94,356,l)
);
}
);
userData = {
com.hugojourdan.ColorFlow = {
"0" = 0;
"1" = 0;
"10" = 0;
"11" = 0;
"2" = 0;
"3" = 0;
"4" = 0;
"5" = 0;
"6" = 0;
"7" = 0;
"8" = 0;
"9" = 0;
};
};
width = 545;
},
{
anchors = (
{
name = bottom;
pos = (267,0);
},
{
name = ogonek;
pos = (479,10);
},
{
name = top;
pos = (267,700);
},
{
name = topleft;
pos = (22,700);
}
);
layerId = "BC57D14F-D7AD-4877-A02E-2DA2D5328E1F";
shapes = (
{
closed = 1;
nodes = (
(518,0,l),
(518,116,l),
(209,116,l),
(209,585,l),
(490,585,l),
(490,700,l),
(64,700,l),
(64,0,l)
);
},
{
closed = 1;
nodes = (
(460,320,l),
(460,436,l),
(68,436,l),
(68,320,l)
);
}
);
userData = {
com.hugojourdan.ColorFlow = {
"0" = 0;
"1" = 0;
"10" = 0;
"11" = 0;
"2" = 0;
"3" = 0;
"4" = 0;
"5" = 0;
"6" = 0;
"7" = 0;
"8" = 0;
"9" = 0;
};
};
width = 546;
}
);
metricLeft = H;
unicode = 69;
},
{
glyphname = F;
kernLeft = KO_H;
kernRight = KO_F;
layers = (
{
anchors = (
{
name = bottom;
pos = (252,0);
},
{
name = top;
pos = (252,700);
}
);
layerId = "AC72BA4F-EBEC-4C28-9168-13A8176B9035";
shapes = (
{
closed = 1;
nodes = (
(160,0,l),
(160,640,l),
(474,640,l),
(474,700,l),
(90,700,l),
(90,0,l)
);
},
{
closed = 1;
nodes = (
(444,366,l),
(444,426,l),
(94,426,l),
(94,366,l)
);
}
);
userData = {
com.hugojourdan.ColorFlow = {
"0" = 0;
"1" = 0;
"10" = 0;
"11" = 0;
"2" = 0;
"3" = 0;
"4" = 0;
"5" = 0;
"6" = 0;
"7" = 0;
"8" = 0;
"9" = 0;
};
};
width = 504;
},
{
anchors = (
{
name = bottom;
pos = (239,0);
},
{
name = top;
pos = (239,700);
}
);
layerId = "BC57D14F-D7AD-4877-A02E-2DA2D5328E1F";
shapes = (
{
closed = 1;
nodes = (
(209,0,l),
(209,585,l),
(509,585,l),
(509,700,l),
(64,700,l),
(64,0,l)
);
},
{
closed = 1;
nodes = (
(479,309,l),
(479,425,l),
(68,425,l),
(68,309,l)
);
}
);
userData = {
com.hugojourdan.ColorFlow = {
"0" = 0;
"1" = 0;
"10" = 0;
"11" = 0;
"2" = 0;
"3" = 0;
"4" = 0;
"5" = 0;
"6" = 0;
"7" = 0;
"8" = 0;
"9" = 0;
};
};
width = 528;
}
);
metricLeft = H;
unicode = 70;
userData = {
KernOnName = F;
};
},
{
glyphname = G;
kernLeft = KO_O;
kernRight = KO_G;
lastChange = "2025-02-06 07:51:02 +0000";
layers = (
{
anchors = (
{
name = bottom;
pos = (319,0);
},
{
name = top;
pos = (319,700);
}
);
background = {
anchors = (
{
name = bottom;
pos = (305,0);
},
{
name = top;
pos = (305,700);
}
);
};
layerId = "AC72BA4F-EBEC-4C28-9168-13A8176B9035";
shapes = (
{
closed = 1;
nodes = (
(529,-12,o),
(573,138,o),
(573,334,cs),
(573,377,o),
(573,421,o),
(573,460,c),
(627,384,l),
(292,384,l),
(292,324,l),
(534,324,l),
(503,334,l),
(503,333,ls),
(503,163,o),
(465,48,o),
(326,48,cs),
(192,48,o),
(134,157,o),
(134,351,cs),
(134,545,o),
(192,654,o),
(326,654,cs),
(424,654,o),
(484,597,o),
(492,488,c),
(562,498,l),
(540,665,o),
(445,714,o),
(326,714,cs),
(149,714,o),
(64,573,o),
(64,351,cs),
(64,129,o),
(149,-12,o),
(326,-12,cs)
);
}
);
userData = {
com.hugojourdan.ColorFlow = {
"0" = 0;
"1" = 0;
"10" = 0;
"11" = 0;
"2" = 0;
"3" = 0;
"4" = 0;
"5" = 0;
"6" = 0;
"7" = 0;
"8" = 0;
"9" = 0;
};
};
width = 637;
},
{
anchors = (
{
name = bottom;
pos = (324,0);
},
{
name = top;
pos = (324,700);
}
);
color = 4;
layerId = "BC57D14F-D7AD-4877-A02E-2DA2D5328E1F";
shapes = (
{
closed = 1;
nodes = (
(548,-12,o),
(615,141,o),
(615,354,cs),
(615,387,o),
(615,422,o),
(615,456,c),
(675,419,l),
(297,419,l),
(297,303,l),
(561,303,l),
(468,354,l),
(468,306,ls),
(468,168,o),
(428,104,o),
(331,104,cs),
(221,104,o),
(177,181,o),
(177,351,cs),
(177,521,o),
(219,599,o),
(336,599,cs),
(394,599,o),
(445,567,o),
(463,489,c),
(599,522,l),
(565,653,o),
(447,714,o),
(336,714,cs),
(137,714,o),
(32,561,o),
(32,351,cs),
(32,142,o),
(123,-12,o),
(336,-12,cs)
);
}
);
userData = {
com.hugojourdan.ColorFlow = {
"0" = 0;
"1" = 0;
"10" = 0;
"11" = 0;
"2" = 0;
"3" = 0;
"4" = 0;
"5" = 0;
"6" = 0;
"7" = 0;
"8" = 0;
"9" = 0;
};
};
width = 647;
}
);
metricLeft = O;
metricRight = O;
unicode = 71;
},
{
glyphname = H;
kernLeft = KO_H;
kernRight = KO_H;
layers = (
{
anchors = (
{
name = bottom;
pos = (339,0);
},
{
name = center;
pos = (339,525);
},
{
name = top;
pos = (339,700);
},
{
name = topleft;
pos = (22,700);
}
);
layerId = "AC72BA4F-EBEC-4C28-9168-13A8176B9035";
shapes = (
{
closed = 1;
nodes = (
(588,0,l),
(588,700,l),
(518,700,l),
(518,0,l)
);
},
{
closed = 1;
nodes = (
(160,0,l),
(160,700,l),
(90,700,l),
(90,0,l)
);
},
{
closed = 1;
nodes = (
(565,338,l),
(565,398,l),
(111,398,l),
(111,338,l)
);
}
);
userData = {
com.hugojourdan.ColorFlow = {
"0" = 0;
"1" = 0;
"10" = 0;
"11" = 0;
"2" = 0;
"3" = 0;
"4" = 0;
"5" = 0;
"6" = 0;
"7" = 0;
"8" = 0;
"9" = 0;
};
};
width = 678;
},
{
anchors = (
{
name = bottom;
pos = (342,0);
},
{
name = center;
pos = (342,525);
},
{
name = top;
pos = (342,700);
},
{
name = topleft;
pos = (28,700);
}
);
layerId = "BC57D14F-D7AD-4877-A02E-2DA2D5328E1F";
shapes = (
{
closed = 1;
nodes = (
(610,0,l),
(610,700,l),
(465,700,l),
(465,0,l)
);
},
{
closed = 1;
nodes = (
(209,0,l),
(209,700,l),
(64,700,l),
(64,0,l)
);
},
{
closed = 1;
nodes = (
(587,312,l),
(587,428,l),
(85,428,l),
(85,312,l)
);
}
);
userData = {
com.hugojourdan.ColorFlow = {
"0" = 0;
"1" = 0;
"10" = 0;
"11" = 0;
"2" = 0;
"3" = 0;
"4" = 0;
"5" = 0;
"6" = 0;
"7" = 0;
"8" = 0;
"9" = 0;
};
};
width = 674;
}
);
metricRight = "=|";
unicode = 72;
userData = {
KernOnName = H;
};
},
{
color = 0;
glyphname = Hbar;
lastChange = "2025-02-06 07:51:02 +0000";
layers = (
{
layerId = "AC72BA4F-EBEC-4C28-9168-13A8176B9035";
shapes = (
{
ref = H;
},
{
closed = 1;
nodes = (
(2,585,l),
(2,525,l),
(676,525,l),
(676,585,l)
);
}
);
userData = {
com.hugojourdan.ColorFlow = {
"0" = 0;
"1" = 0;
"10" = 0;
"11" = 0;
"2" = 0;
"3" = 0;
"4" = 0;
"5" = 0;
"6" = 0;
"7" = 0;
"8" = 0;
"9" = 0;
};
};
width = 678;
},
{
layerId = "BC57D14F-D7AD-4877-A02E-2DA2D5328E1F";
shapes = (
{
alignment = -1;
ref = H;
},
{
closed = 1;
nodes = (
(2,615,l),
(2,507,l),
(671,507,l),
(671,615,l)
);
}
);
userData = {
com.hugojourdan.ColorFlow = {
"0" = 0;
"1" = 0;
"10" = 0;
"11" = 0;
"2" = 0;
"3" = 0;
"4" = 0;
"5" = 0;
"6" = 0;
"7" = 0;
"8" = 0;
"9" = 0;
};
};
width = 672;
}
);
unicode = 294;
},
{
glyphname = I;
kernLeft = KO_H;
kernRight = KO_H;
layers = (
{
anchors = (
{
name = bottom;
pos = (125,0);
},
{
name = ogonek;
pos = (173,0);
},
{
name = top;
pos = (125,700);
},
{
name = topleft;
pos = (22,700);
}
);
layerId = "AC72BA4F-EBEC-4C28-9168-13A8176B9035";
shapes = (
{
closed = 1;
nodes = (
(160,0,l),
(160,700,l),
(90,700,l),
(90,0,l)
);
}
);
userData = {
com.hugojourdan.ColorFlow = {
"0" = 0;
"1" = 0;
"10" = 0;
"11" = 0;
"2" = 0;
"3" = 0;
"4" = 0;
"5" = 0;
"6" = 0;
"7" = 0;
"8" = 0;
"9" = 0;
};
};
width = 250;
},
{
anchors = (
{
name = bottom;
pos = (138,0);
},
{
name = ogonek;
pos = (222,0);
},
{
name = top;
pos = (138,700);
},
{
name = topleft;
pos = (18,700);
}
);
layerId = "BC57D14F-D7AD-4877-A02E-2DA2D5328E1F";
shapes = (
{
closed = 1;
nodes = (
(209,0,l),
(209,700,l),
(64,700,l),
(64,0,l)
);
}
);
userData = {
com.hugojourdan.ColorFlow = {
"0" = 0;
"1" = 0;
"10" = 0;
"11" = 0;
"2" = 0;
"3" = 0;
"4" = 0;
"5" = 0;
"6" = 0;
"7" = 0;
"8" = 0;
"9" = 0;
};
};
width = 273;
}
);
metricLeft = H;
metricRight = "=|";
unicode = 73;
userData = {
KernOnName = I;
};
},
{
glyphname = J;
kernLeft = KO_J;
kernRight = KO_J;
layers = (
{
anchors = (
{
name = bottom;
pos = (201,0);
},
{
name = top;
pos = (201,700);
}
);
layerId = "AC72BA4F-EBEC-4C28-9168-13A8176B9035";
shapes = (
{
closed = 1;
nodes = (
(140,0,ls),
(253,0,o),
(310,58,o),
(310,161,cs),
(310,700,l),
(240,700,l),
(240,164,ls),
(240,98,o),
(203,60,o),
(139,60,cs),
(31,60,l),
(31,0,l)
);
}
);
userData = {
com.hugojourdan.ColorFlow = {
"0" = 0;
"1" = 0;
"10" = 0;
"11" = 0;
"2" = 0;
"3" = 0;
"4" = 0;
"5" = 0;
"6" = 0;
"7" = 0;
"8" = 0;
"9" = 0;
};
};
width = 400;
},
{
anchors = (
{
name = bottom;
pos = (196,0);
},
{
name = top;
pos = (196,700);
}
);
layerId = "BC57D14F-D7AD-4877-A02E-2DA2D5328E1F";
shapes = (
{
closed = 1;
nodes = (
(144,0,ls),
(273,0,o),
(337,66,o),
(337,183,cs),
(337,700,l),
(192,700,l),
(192,188,ls),
(192,143,o),
(164,116,o),
(114,116,cs),
(15,116,l),
(15,0,l)
);
}
);
userData = {
com.hugojourdan.ColorFlow = {
"0" = 0;
"1" = 0;
"10" = 0;
"11" = 0;
"2" = 0;
"3" = 0;
"4" = 0;
"5" = 0;
"6" = 0;
"7" = 0;
"8" = 0;
"9" = 0;
};
};
width = 401;
}
);
metricRight = H;
unicode = 74;
userData = {
KernOnName = J;
};
},
{
glyphname = K;
kernLeft = KO_H;
kernRight = KO_K;
layers = (
{
anchors = (
{
name = bottom;
pos = (279,0);
},
{
name = top;
pos = (279,700);
}
);
layerId = "AC72BA4F-EBEC-4C28-9168-13A8176B9035";
shapes = (
{
closed = 1;
nodes = (
(553,0,l),
(218,390,l),
(218,361,l),
(547,700,l),
(455,700,l),
(139,375,l),
(459,0,l)
);
},
{
closed = 1;
nodes = (
(160,0,l),
(160,700,l),
(90,700,l),
(90,0,l)
);
}
);
userData = {
com.hugojourdan.ColorFlow = {
"0" = 0;
"1" = 0;
"10" = 0;
"11" = 0;
"2" = 0;
"3" = 0;
"4" = 0;
"5" = 0;
"6" = 0;
"7" = 0;
"8" = 0;
"9" = 0;
};
};
width = 558;
},
{
anchors = (
{
name = bottom;
pos = (305,0);
},
{
name = top;
pos = (305,700);
}
);
layerId = "BC57D14F-D7AD-4877-A02E-2DA2D5328E1F";
shapes = (
{
closed = 1;
nodes = (
(607,0,l),
(317,419,l),
(317,345,l),
(602,700,l),
(424,700,l),
(179,376,l),
(428,0,l)
);
},
{
closed = 1;
nodes = (
(209,0,l),
(209,700,l),
(64,700,l),
(64,0,l)
);
}
);
userData = {
com.hugojourdan.ColorFlow = {
"0" = 0;
"1" = 0;
"10" = 0;
"11" = 0;
"2" = 0;
"3" = 0;
"4" = 0;
"5" = 0;
"6" = 0;
"7" = 0;
"8" = 0;
"9" = 0;
};
};
width = 610;
}
);
metricLeft = H;
unicode = 75;
userData = {
KernOnName = K;
};
},
{
glyphname = L;
kernLeft = KO_H;
kernRight = KO_L;
layers = (
{
anchors = (
{
name = bottom;
pos = (246,0);
},
{
name = center;
pos = (246,350);
},
{
name = top;
pos = (125,700);
},
{
name = topright;
pos = (338,700);
}
);
layerId = "AC72BA4F-EBEC-4C28-9168-13A8176B9035";
shapes = (
{
closed = 1;
nodes = (
(473,0,l),
(473,60,l),
(160,60,l),
(160,700,l),
(90,700,l),
(90,0,l)
);
}
);
userData = {
com.hugojourdan.ColorFlow = {
"0" = 0;
"1" = 0;
"10" = 0;
"11" = 0;
"2" = 0;
"3" = 0;
"4" = 0;
"5" = 0;
"6" = 0;
"7" = 0;
"8" = 0;
"9" = 0;
};
};
width = 492;
},
{
anchors = (
{
name = bottom;
pos = (260,0);
},
{
name = center;
pos = (260,350);
},
{
name = top;
pos = (134,700);
},
{
name = topright;
pos = (338,700);
}
);
layerId = "BC57D14F-D7AD-4877-A02E-2DA2D5328E1F";
shapes = (
{
closed = 1;
nodes = (
(507,0,l),
(507,116,l),
(209,116,l),
(209,700,l),
(64,700,l),
(64,0,l)
);
}
);
userData = {
com.hugojourdan.ColorFlow = {
"0" = 0;
"1" = 0;
"10" = 0;
"11" = 0;
"2" = 0;
"3" = 0;
"4" = 0;
"5" = 0;
"6" = 0;
"7" = 0;
"8" = 0;
"9" = 0;
};
};
width = 519;
}
);
metricLeft = H;
unicode = 76;
userData = {
KernOnName = L;
};
},
{
color = 0;
glyphname = Lslash;
kernLeft = KO_Lslash;
kernRight = KO_L;
lastChange = "2025-02-06 07:51:02 +0000";
layers = (
{
layerId = "AC72BA4F-EBEC-4C28-9168-13A8176B9035";
shapes = (
{
ref = L;
},
{
closed = 1;
nodes = (
(6,207,l),
(306,434,l),
(264,490,l),
(-36,263,l)
);
},
{
closed = 1;
nodes = (
(6,207,l),
(306,434,l),
(264,490,l),
(-36,263,l)
);
}
);
userData = {
com.hugojourdan.ColorFlow = {
"0" = 0;
"1" = 0;
"10" = 0;
"11" = 0;
"2" = 0;
"3" = 0;
"4" = 0;
"5" = 0;
"6" = 0;
"7" = 0;
"8" = 0;
"9" = 0;
};
};
width = 492;
},
{
layerId = "BC57D14F-D7AD-4877-A02E-2DA2D5328E1F";
shapes = (
{
alignment = -1;
ref = L;
},
{
closed = 1;
nodes = (
(5,188,l),
(356,453,l),
(285,547,l),
(-66,282,l)
);
},
{
closed = 1;
nodes = (
(5,188,l),
(356,453,l),
(285,547,l),
(-66,282,l)
);
}
);
userData = {
com.hugojourdan.ColorFlow = {
"0" = 0;
"1" = 0;
"10" = 0;
"11" = 0;
"2" = 0;
"3" = 0;
"4" = 0;
"5" = 0;
"6" = 0;
"7" = 0;
"8" = 0;
"9" = 0;
};
};
width = 519;
}
);
metricRight = L;
unicode = 321;
},
{
glyphname = M;
kernLeft = KO_H;
kernRight = KO_H;
layers = (
{
anchors = (
{
name = bottom;
pos = (396,0);
},
{
name = top;
pos = (396,700);
}
);
layerId = "AC72BA4F-EBEC-4C28-9168-13A8176B9035";
shapes = (
{
closed = 1;
nodes = (
(160,0,l),
(160,646,l),
(148,649,l),
(360,113,l),
(430,113,l),
(642,646,l),
(632,648,l),
(632,0,l),
(702,0,l),
(702,700,l),
(593,700,l),
(384,173,l),
(406,173,l),
(198,700,l),
(90,700,l),
(90,0,l)
);
}
);
userData = {
com.hugojourdan.ColorFlow = {
"0" = 0;
"1" = 0;
"10" = 0;
"11" = 0;
"2" = 0;
"3" = 0;
"4" = 0;
"5" = 0;
"6" = 0;
"7" = 0;
"8" = 0;
"9" = 0;
};
};
width = 792;
},
{
anchors = (
{
name = bottom;
pos = (405,0);
},
{
name = top;
pos = (405,700);
}
);
layerId = "BC57D14F-D7AD-4877-A02E-2DA2D5328E1F";
shapes = (
{
closed = 1;
nodes = (
(201,0,l),
(201,622,l),
(162,632,l),
(340,113,l),
(467,113,l),
(646,632,l),
(609,624,l),
(609,0,l),
(745,0,l),
(745,700,l),
(534,700,l),
(394,276,l),
(414,276,l),
(274,700,l),
(64,700,l),
(64,0,l)
);
}
);
userData = {
com.hugojourdan.ColorFlow = {
"0" = 0;
"1" = 0;
"10" = 0;
"11" = 0;
"2" = 0;
"3" = 0;
"4" = 0;
"5" = 0;
"6" = 0;
"7" = 0;
"8" = 0;
"9" = 0;
};
};
width = 809;
}
);
metricLeft = H;
metricRight = "=|";
unicode = 77;
},
{
glyphname = N;
kernLeft = KO_H;
kernRight = KO_H;
layers = (
{
anchors = (
{
name = bottom;
pos = (337,0);
},
{
name = top;
pos = (337,700);
}
);
layerId = "AC72BA4F-EBEC-4C28-9168-13A8176B9035";
shapes = (
{
closed = 1;
nodes = (
(160,0,l),
(160,613,l),
(156,601,l),
(495,0,l),
(584,0,l),
(584,700,l),
(514,700,l),
(514,74,l),
(519,97,l),
(179,700,l),
(90,700,l),
(90,0,l)
);
}
);
userData = {
com.hugojourdan.ColorFlow = {
"0" = 0;
"1" = 0;
"10" = 0;
"11" = 0;
"2" = 0;
"3" = 0;
"4" = 0;
"5" = 0;
"6" = 0;
"7" = 0;
"8" = 0;
"9" = 0;
};
};
width = 674;
},
{
anchors = (
{
name = bottom;
pos = (349,0);
},
{
name = top;
pos = (349,700);
}
);
layerId = "BC57D14F-D7AD-4877-A02E-2DA2D5328E1F";
shapes = (
{
closed = 1;
nodes = (
(203,0,l),
(203,601,l),
(168,581,l),
(444,0,l),
(635,0,l),
(635,700,l),
(496,700,l),
(496,92,l),
(531,116,l),
(254,700,l),
(64,700,l),
(64,0,l)
);
}
);
userData = {
com.hugojourdan.ColorFlow = {
"0" = 0;
"1" = 0;
"10" = 0;
"11" = 0;
"2" = 0;
"3" = 0;
"4" = 0;
"5" = 0;
"6" = 0;
"7" = 0;
"8" = 0;
"9" = 0;
};
};
width = 699;
}
);
metricLeft = H;
metricRight = H;
unicode = 78;
userData = {
KernOnName = N;
};
},
{
color = 0;
glyphname = Eng;
kernLeft = KO_H;
kernRight = KO_H;
lastChange = "2025-02-06 07:51:02 +0000";
layers = (
{
anchors = (
{
name = bottom;
pos = (337,-215);
},
{
name = top;
pos = (337,700);
}
);
layerId = "AC72BA4F-EBEC-4C28-9168-13A8176B9035";
shapes = (
{
closed = 1;
nodes = (
(414,-215,ls),
(527,-215,o),
(584,-157,o),
(584,-54,cs),
(584,485,l),
(514,485,l),
(514,-41,ls),
(514,-107,o),
(477,-145,o),
(413,-145,cs),
(305,-145,l),
(305,-215,l)
);
},
{
ref = N;
}
);
userData = {
com.hugojourdan.ColorFlow = {
"0" = 0;
"1" = 0;
"10" = 0;
"11" = 0;
"2" = 0;
"3" = 0;
"4" = 0;
"5" = 0;
"6" = 0;
"7" = 0;
"8" = 0;
"9" = 0;
};
};
width = 674;
},
{
anchors = (
{
name = bottom;
pos = (350,-215);
},
{
name = top;
pos = (350,700);
}
);
layerId = "BC57D14F-D7AD-4877-A02E-2DA2D5328E1F";
shapes = (
{
closed = 1;
nodes = (
(443,-215,ls),
(571,-215,o),
(635,-149,o),
(635,-32,cs),
(635,485,l),
(496,485,l),
(496,-22,ls),
(496,-67,o),
(462,-94,o),
(413,-94,cs),
(314,-94,l),
(314,-215,l)
);
},
{
alignment = -1;
ref = N;
}
);
userData = {
com.hugojourdan.ColorFlow = {
"0" = 0;
"1" = 0;
"10" = 0;
"11" = 0;
"2" = 0;
"3" = 0;
"4" = 0;
"5" = 0;
"6" = 0;
"7" = 0;
"8" = 0;
"9" = 0;
};
};
width = 699;
}
);
metricLeft = N;
metricRight = N;
unicode = 330;
},
{
glyphname = O;
kernLeft = KO_O;
kernRight = KO_O;
layers = (
{
anchors = (
{
name = bottom;
pos = (322,0);
},
{
name = center;
pos = (322,350);
},
{
name = ogonek;
pos = (578,10);
},
{
name = top;
pos = (322,700);
},
{
name = topleft;
pos = (22,700);
},
{
name = topright;
pos = (622,700);
}
);
layerId = "AC72BA4F-EBEC-4C28-9168-13A8176B9035";
shapes = (
{
closed = 1;
nodes = (
(488,-12,o),
(580,114,o),
(580,351,cs),
(580,588,o),
(488,714,o),
(327,714,cs),
(166,714,o),
(64,588,o),
(64,351,cs),
(64,114,o),
(166,-12,o),
(327,-12,cs)
);
},
{
closed = 1;
nodes = (
(200,48,o),
(134,153,o),
(134,351,cs),
(134,549,o),
(200,654,o),
(327,654,cs),
(448,654,o),
(510,550,o),
(510,351,cs),
(510,153,o),
(447,48,o),
(327,48,cs)
);
}
);
userData = {
com.hugojourdan.ColorFlow = {
"0" = 0;
"1" = 0;
"10" = 0;
"11" = 0;
"2" = 0;
"3" = 0;
"4" = 0;
"5" = 0;
"6" = 0;
"7" = 0;
"8" = 0;
"9" = 0;
};
};
width = 644;
},
{
anchors = (
{
name = bottom;
pos = (330,0);
},
{
name = center;
pos = (330,350);
},
{
name = ogonek;
pos = (593,10);
},
{
name = top;
pos = (330,700);
},
{
name = topleft;
pos = (20,700);
},
{
name = topright;
pos = (640,700);
}
);
layerId = "BC57D14F-D7AD-4877-A02E-2DA2D5328E1F";
shapes = (
{
closed = 1;
nodes = (
(537,-12,o),
(627,140,o),
(627,351,cs),
(627,560,o),
(537,714,o),
(336,714,cs),
(134,714,o),
(32,561,o),
(32,351,cs),
(32,141,o),
(134,-12,o),
(336,-12,cs)
);
},
{
closed = 1;
nodes = (
(221,104,o),
(180,182,o),
(180,351,cs),
(180,519,o),
(220,599,o),
(336,599,cs),
(443,599,o),
(480,520,o),
(480,351,cs),
(480,183,o),
(444,104,o),
(336,104,cs)
);
}
);
userData = {
com.hugojourdan.ColorFlow = {
"0" = 0;
"1" = 0;
"10" = 0;
"11" = 0;
"2" = 0;
"3" = 0;
"4" = 0;
"5" = 0;
"6" = 0;
"7" = 0;
"8" = 0;
"9" = 0;
};
};
width = 659;
}
);
metricRight = "=|";
unicode = 79;
userData = {
KernOnName = O;
};
},
{
color = 0;
glyphname = Oslash;
kernRight = KO_Oslash;
lastChange = "2025-02-06 07:51:02 +0000";
layers = (
{
layerId = "AC72BA4F-EBEC-4C28-9168-13A8176B9035";
shapes = (
{
pos = (-49,0);
ref = O;
},
{
closed = 1;
nodes = (
(56,-14,l),
(544,676,l),
(490,714,l),
(2,24,l)
);
},
{
closed = 1;
nodes = (
(56,-14,l),
(544,676,l),
(490,714,l),
(2,24,l)
);
}
);
userData = {
com.hugojourdan.ColorFlow = {
"0" = 0;
"1" = 0;
"10" = 0;
"11" = 0;
"2" = 0;
"3" = 0;
"4" = 0;
"5" = 0;
"6" = 0;
"7" = 0;
"8" = 0;
"9" = 0;
};
};
width = 497;
},
{
layerId = "BC57D14F-D7AD-4877-A02E-2DA2D5328E1F";
shapes = (
{
alignment = -1;
ref = O;
},
{
closed = 1;
nodes = (
(98,-8,l),
(642,638,l),
(562,707,l),
(18,61,l)
);
},
{
closed = 1;
nodes = (
(98,-8,l),
(642,638,l),
(562,707,l),
(18,61,l)
);
}
);
userData = {
com.hugojourdan.ColorFlow = {
"0" = 0;
"1" = 0;
"10" = 0;
"11" = 0;
"2" = 0;
"3" = 0;
"4" = 0;
"5" = 0;
"6" = 0;
"7" = 0;
"8" = 0;
"9" = 0;
};
};
width = 659;
}
);
unicode = 216;
},
{
color = 0;
glyphname = OE;
kernLeft = KO_O;
kernRight = KO_E;
lastChange = "2025-02-06 07:51:02 +0000";
layers = (
{
anchors = (
{
name = bottom;
pos = (322,0);
},
{
name = center;
pos = (322,350);
},
{
name = ogonek;
pos = (578,10);
},
{
name = top;
pos = (322,700);
},
{
name = topleft;
pos = (22,700);
},
{
name = topright;
pos = (622,700);
}
);
background = {
shapes = (
{
ref = O;
},
{
alignment = -1;
pos = (420,0);
ref = E;
}
);
};
layerId = "AC72BA4F-EBEC-4C28-9168-13A8176B9035";
shapes = (
{
closed = 1;
nodes = (
(500,-12,o),
(564,134,o),
(564,351,cs),
(564,568,o),
(500,714,o),
(332,714,cs),
(168,714,o),
(64,588,o),
(64,351,cs),
(64,114,o),
(168,-12,o),
(332,-12,cs)
);
},
{
closed = 1;
nodes = (
(200,48,o),
(134,153,o),
(134,351,cs),
(134,549,o),
(200,654,o),
(327,654,cs),
(448,654,o),
(510,550,o),
(510,351,cs),
(510,153,o),
(447,48,o),
(327,48,cs)
);
},
{
alignment = -1;
pos = (420,0);
ref = E;
}
);
userData = {
com.hugojourdan.ColorFlow = {
"0" = 0;
"1" = 0;
"10" = 0;
"11" = 0;
"2" = 0;
"3" = 0;
"4" = 0;
"5" = 0;
"6" = 0;
"7" = 0;
"8" = 0;
"9" = 0;
};
};
width = 965;
},
{
anchors = (
{
name = bottom;
pos = (329,0);
},
{
name = center;
pos = (329,350);
},
{
name = ogonek;
pos = (590,10);
},
{
name = top;
pos = (329,700);
},
{
name = topleft;
pos = (22,700);
},
{
name = topright;
pos = (636,700);
}
);
layerId = "BC57D14F-D7AD-4877-A02E-2DA2D5328E1F";
shapes = (
{
closed = 1;
nodes = (
(534,-12,o),
(552,139,o),
(551,351,cs),
(550,560,o),
(534,713,o),
(334,713,cs),
(133,713,o),
(32,561,o),
(32,351,cs),
(32,141,o),
(132,-12,o),
(332,-12,cs)
);
},
{
closed = 1;
nodes = (
(219,104,o),
(177,192,o),
(177,351,cs),
(177,510,o),
(218,599,o),
(334,599,cs),
(441,599,o),
(479,511,o),
(479,351,cs),
(479,193,o),
(443,104,o),
(334,104,cs)
);
},
{
alignment = -1;
pos = (415,0);
ref = E;
}
);
userData = {
com.hugojourdan.ColorFlow = {
"0" = 0;
"1" = 0;
"10" = 0;
"11" = 0;
"2" = 0;
"3" = 0;
"4" = 0;
"5" = 0;
"6" = 0;
"7" = 0;
"8" = 0;
"9" = 0;
};
};
width = 961;
}
);
metricLeft = O;
metricRight = E;
unicode = 338;
},
{
glyphname = P;
kernLeft = KO_H;
kernRight = KO_P;
layers = (
{
anchors = (
{
name = bottom;
pos = (292,0);
},
{
name = top;
pos = (292,700);
}
);
layerId = "AC72BA4F-EBEC-4C28-9168-13A8176B9035";
shapes = (
{
closed = 1;
nodes = (
(160,0,l),
(160,262,l),
(309,262,ls),
(477,262,o),
(554,343,o),
(554,478,cs),
(554,620,o),
(477,700,o),
(309,700,cs),
(90,700,l),
(90,0,l)
);
},
{
closed = 1;
nodes = (
(160,640,l),
(316,640,ls),
(424,640,o),
(484,593,o),
(484,475,cs),
(484,368,o),
(424,322,o),
(316,322,cs),
(160,322,l)
);
}
);
userData = {
com.hugojourdan.ColorFlow = {
"0" = 0;
"1" = 0;
"10" = 0;
"11" = 0;
"2" = 0;
"3" = 0;
"4" = 0;
"5" = 0;
"6" = 0;
"7" = 0;
"8" = 0;
"9" = 0;
};
};
width = 584;
},
{
anchors = (
{
name = bottom;
pos = (294,0);
},
{
name = top;
pos = (294,700);
}
);
layerId = "BC57D14F-D7AD-4877-A02E-2DA2D5328E1F";
shapes = (
{
closed = 1;
nodes = (
(209,0,l),
(209,225,l),
(318,225,ls),
(477,225,o),
(570,316,o),
(570,465,cs),
(570,614,o),
(478,700,o),
(318,700,cs),
(64,700,l),
(64,0,l)
);
},
{
closed = 1;
nodes = (
(209,585,l),
(307,585,ls),
(384,585,o),
(425,550,o),
(425,462,cs),
(425,379,o),
(385,342,o),
(307,342,cs),
(209,342,l)
);
}
);
userData = {
com.hugojourdan.ColorFlow = {
"0" = 0;
"1" = 0;
"10" = 0;
"11" = 0;
"2" = 0;
"3" = 0;
"4" = 0;
"5" = 0;
"6" = 0;
"7" = 0;
"8" = 0;
"9" = 0;
};
};
width = 589;
}
);
metricLeft = H;
metricRight = F;
unicode = 80;
},
{
color = 0;
glyphname = Thorn;
kernLeft = KO_H;
kernRight = KO_P;
lastChange = "2025-02-06 07:51:02 +0000";
layers = (
{
anchors = (
{
name = bottom;
pos = (292,0);
},
{
name = top;
pos = (292,700);
}
);
layerId = "AC72BA4F-EBEC-4C28-9168-13A8176B9035";
shapes = (
{
closed = 1;
nodes = (
(329,163,ls),
(483,163,o),
(554,235,o),
(554,355,cs),
(554,474,o),
(483,541,o),
(329,541,cs),
(144,541,l),
(144,481,l),
(336,481,ls),
(431,481,o),
(484,444,o),
(484,352,cs),
(484,262,o),
(431,223,o),
(336,223,cs),
(145,223,l),
(145,163,l)
);
},
{
closed = 1;
nodes = (
(160,0,l),
(160,700,l),
(90,700,l),
(90,0,l)
);
}
);
userData = {
com.hugojourdan.ColorFlow = {
"0" = 0;
"1" = 0;
"10" = 0;
"11" = 0;
"2" = 0;
"3" = 0;
"4" = 0;
"5" = 0;
"6" = 0;
"7" = 0;
"8" = 0;
"9" = 0;
};
};
width = 584;
},
{
anchors = (
{
name = bottom;
pos = (295,0);
},
{
name = top;
pos = (295,700);
}
);
layerId = "BC57D14F-D7AD-4877-A02E-2DA2D5328E1F";
shapes = (
{
closed = 1;
nodes = (
(321,130,ls),
(481,130,o),
(570,214,o),
(570,353,cs),
(570,491,o),
(482,572,o),
(321,572,cs),
(192,572,l),
(192,453,l),
(310,453,ls),
(384,453,o),
(425,424,o),
(425,350,cs),
(425,281,o),
(385,248,o),
(310,248,cs),
(192,248,l),
(192,130,l)
);
},
{
closed = 1;
nodes = (
(208,0,l),
(208,700,l),
(64,700,l),
(64,0,l)
);
}
);
userData = {
com.hugojourdan.ColorFlow = {
"0" = 0;
"1" = 0;
"10" = 0;
"11" = 0;
"2" = 0;
"3" = 0;
"4" = 0;
"5" = 0;
"6" = 0;
"7" = 0;
"8" = 0;
"9" = 0;
};
};
width = 589;
}
);
metricLeft = P;
metricRight = P;
unicode = 222;
},
{
glyphname = Q;
kernLeft = KO_O;
kernRight = KO_O;
layers = (
{
anchors = (
{
name = bottom;
pos = (322,0);
},
{
name = top;
pos = (322,700);
}
);
layerId = "AC72BA4F-EBEC-4C28-9168-13A8176B9035";
shapes = (
{
closed = 1;
nodes = (
(499,-179,l),
(499,-119,l),
(392,-119,ls),
(367,-119,o),
(359,-108,o),
(359,-81,cs),
(359,17,l),
(289,17,l),
(289,-72,ls),
(289,-156,o),
(315,-179,o),
(403,-179,cs)
);
},
{
alignment = -1;
ref = O;
}
);
userData = {
com.hugojourdan.ColorFlow = {
"0" = 0;
"1" = 0;
"10" = 0;
"11" = 0;
"2" = 0;
"3" = 0;
"4" = 0;
"5" = 0;
"6" = 0;
"7" = 0;
"8" = 0;
"9" = 0;
};
};
width = 644;
},
{
anchors = (
{
name = bottom;
pos = (331,0);
},
{
name = top;
pos = (331,700);
}
);
layerId = "BC57D14F-D7AD-4877-A02E-2DA2D5328E1F";
shapes = (
{
closed = 1;
nodes = (
(541,-192,l),
(541,-76,l),
(429,-76,ls),
(411,-76,o),
(402,-68,o),
(402,-49,cs),
(402,25,l),
(259,25,l),
(259,-57,ls),
(259,-153,o),
(305,-192,o),
(423,-192,cs)
);
},
{
alignment = -1;
ref = O;
}
);
userData = {
com.hugojourdan.ColorFlow = {
"0" = 0;
"1" = 0;
"10" = 0;
"11" = 0;
"2" = 0;
"3" = 0;
"4" = 0;
"5" = 0;
"6" = 0;
"7" = 0;
"8" = 0;
"9" = 0;
};
};
width = 659;
}
);
metricLeft = O;
metricRight = O;
unicode = 81;
},
{
glyphname = R;
kernLeft = KO_H;
kernRight = KO_R;
layers = (
{
anchors = (
{
name = bottom;
pos = (295,0);
},
{
name = top;
pos = (295,700);
}
);
layerId = "AC72BA4F-EBEC-4C28-9168-13A8176B9035";
shapes = (
{
closed = 1;
nodes = (
(160,0,l),
(160,316,l),
(340,316,ls),
(455,316,o),
(551,368,o),
(551,506,cs),
(551,647,o),
(455,700,o),
(340,700,cs),
(90,700,l),
(90,0,l)
);
},
{
closed = 1;
nodes = (
(570,0,l),
(340,322,l),
(258,322,l),
(487,0,l)
);
},
{
closed = 1;
nodes = (
(160,640,l),
(337,640,ls),
(416,640,o),
(481,610,o),
(481,508,cs),
(481,407,o),
(417,376,o),
(337,376,cs),
(160,376,l)
);
}
);
userData = {
com.hugojourdan.ColorFlow = {
"0" = 0;
"1" = 0;
"10" = 0;
"11" = 0;
"2" = 0;
"3" = 0;
"4" = 0;
"5" = 0;
"6" = 0;
"7" = 0;
"8" = 0;
"9" = 0;
};
};
width = 595;
},
{
anchors = (
{
name = bottom;
pos = (306,0);
},
{
name = top;
pos = (306,700);
}
);
layerId = "BC57D14F-D7AD-4877-A02E-2DA2D5328E1F";
shapes = (
{
closed = 1;
nodes = (
(209,0,l),
(209,275,l),
(324,275,ls),
(461,275,o),
(559,348,o),
(559,489,cs),
(559,629,o),
(460,700,o),
(323,700,cs),
(64,700,l),
(64,0,l)
);
},
{
closed = 1;
nodes = (
(592,0,l),
(361,322,l),
(206,322,l),
(413,0,l)
);
},
{
closed = 1;
nodes = (
(209,585,l),
(318,585,ls),
(378,585,o),
(414,560,o),
(414,486,cs),
(414,416,o),
(379,389,o),
(318,389,cs),
(209,389,l)
);
}
);
userData = {
com.hugojourdan.ColorFlow = {
"0" = 0;
"1" = 0;
"10" = 0;
"11" = 0;
"2" = 0;
"3" = 0;
"4" = 0;
"5" = 0;
"6" = 0;
"7" = 0;
"8" = 0;
"9" = 0;
};
};
width = 610;
}
);
metricLeft = H;
unicode = 82;
userData = {
KernOnName = R;
};
},
{
glyphname = S;
kernLeft = KO_S;
kernRight = KO_S;
lastChange = "2025-02-06 07:51:02 +0000";
layers = (
{
anchors = (
{
name = bottom;
pos = (275,0);
},
{
name = top;
pos = (275,700);
}
);
layerId = "AC72BA4F-EBEC-4C28-9168-13A8176B9035";
shapes = (
{
attr = {
identifier = ID0x7fafcdcb18b0;
};
closed = 1;
nodes = (
(387,-15,o),
(506,41,o),
(506,187,cs),
(506,301,o),
(443,357,o),
(276,401,cs),
(153,433,o),
(137,478,o),
(137,542,cs),
(137,618,o),
(202,655,o),
(272,655,cs),
(347,655,o),
(408,626,o),
(429,512,c),
(496,524,l),
(474,693,o),
(349,715,o),
(275,715,cs),
(145,715,o),
(67,639,o),
(67,530,cs),
(67,452,o),
(110,368,o),
(240,338,cs),
(381,305,o),
(442,263,o),
(435,170,cs),
(429,80,o),
(354,45,o),
(291,45,cs),
(223,45,o),
(130,67,o),
(112,210,c),
(43,203,l),
(59,49,o),
(167,-15,o),
(297,-15,cs)
);
}
);
userData = {
com.hugojourdan.ColorFlow = {
"0" = 0;
"1" = 0;
"10" = 0;
"11" = 0;
"2" = 0;
"3" = 0;
"4" = 0;
"5" = 0;
"6" = 0;
"7" = 0;
"8" = 0;
"9" = 0;
};
};
width = 549;
},
{
anchors = (
{
name = bottom;
pos = (284,0);
},
{
name = top;
pos = (284,700);
}
);
color = 4;
layerId = "BC57D14F-D7AD-4877-A02E-2DA2D5328E1F";
shapes = (
{
attr = {
identifier = ID0x7fafcdcb18b0;
};
closed = 1;
nodes = (
(433,-15,o),
(541,61,o),
(539,207,cs),
(539,319,o),
(469,392,o),
(319,426,cs),
(218,449,o),
(196,482,o),
(196,529,cs),
(196,575,o),
(236,602,o),
(287,602,cs),
(344,602,o),
(389,572,o),
(394,495,c),
(534,532,l),
(514,664,o),
(411,715,o),
(289,715,cs),
(146,715,o),
(51,634,o),
(51,509,cs),
(51,405,o),
(109,328,o),
(248,297,cs),
(352,275,o),
(398,243,o),
(399,185,cs),
(400,125,o),
(351,98,o),
(300,98,cs),
(237,98,o),
(177,130,o),
(173,226,c),
(29,195,l),
(46,52,o),
(150,-15,o),
(302,-15,cs)
);
}
);
userData = {
com.hugojourdan.ColorFlow = {
"0" = 0;
"1" = 0;
"10" = 0;
"11" = 0;
"2" = 0;
"3" = 0;
"4" = 0;
"5" = 0;
"6" = 0;
"7" = 0;
"8" = 0;
"9" = 0;
};
};
width = 568;
}
);
metricRight = "=|";
unicode = 83;
userData = {
KernOnName = S;
};
},
{
color = 0;
glyphname = Germandbls;
kernLeft = KO_H;
lastChange = "2025-02-06 07:51:02 +0000";
layers = (
{
layerId = "AC72BA4F-EBEC-4C28-9168-13A8176B9035";
shapes = (
{
attr = {
identifier = ID0x159985ed0;
};
closed = 1;
nodes = (
(522,-4,o),
(593,107,o),
(593,228,cs),
(593,358,o),
(511,448,o),
(354,448,c),
(380,422,l),
(543,620,l),
(543,700,l),
(90,700,l),
(90,0,l),
(166,0,l),
(166,640,l),
(523,640,l),
(512,687,l),
(310,447,l),
(310,387,l),
(320,387,ls),
(448,387,o),
(516,345,o),
(516,226,cs),
(516,137,o),
(474,56,o),
(374,56,cs),
(320,56,o),
(261,76,o),
(227,95,c),
(227,25,l),
(271,4,o),
(324,-4,o),
(372,-4,cs)
);
}
);
userData = {
com.hugojourdan.ColorFlow = {
"0" = 0;
"1" = 0;
"10" = 0;
"11" = 0;
"2" = 0;
"3" = 0;
"4" = 0;
"5" = 0;
"6" = 0;
"7" = 0;
"8" = 0;
"9" = 0;
};
};
width = 638;
},
{
layerId = "BC57D14F-D7AD-4877-A02E-2DA2D5328E1F";
shapes = (
{
attr = {
identifier = ID0x13be0ebe0;
};
closed = 1;
nodes = (
(511,-13,o),
(619,86,o),
(619,216,cs),
(619,337,o),
(547,422,o),
(423,442,c),
(397,391,l),
(566,555,l),
(566,700,l),
(64,700,l),
(64,0,l),
(209,0,l),
(209,586,l),
(484,586,l),
(473,637,l),
(301,455,l),
(301,338,l),
(315,338,ls),
(425,338,o),
(475,298,o),
(475,213,cs),
(475,147,o),
(432,101,o),
(362,101,cs),
(321,101,o),
(274,113,o),
(253,132,c),
(253,12,l),
(279,-3,o),
(326,-13,o),
(378,-13,cs)
);
}
);
userData = {
com.hugojourdan.ColorFlow = {
"0" = 0;
"1" = 0;
"10" = 0;
"11" = 0;
"2" = 0;
"3" = 0;
"4" = 0;
"5" = 0;
"6" = 0;
"7" = 0;
"8" = 0;
"9" = 0;
};
};
width = 651;
}
);
metricLeft = B;
metricRight = B;
unicode = 7838;
},
{
glyphname = T;
kernLeft = KO_T;
kernRight = KO_T;
layers = (
{
anchors = (
{
name = bottom;
pos = (290,0);
},
{
name = center;
pos = (290,350);
},
{
name = top;
pos = (290,700);
}
);
layerId = "AC72BA4F-EBEC-4C28-9168-13A8176B9035";
shapes = (
{
closed = 1;
nodes = (
(324,0,l),
(324,695,l),
(254,695,l),
(254,0,l)
);
},
{
closed = 1;
nodes = (
(543,640,l),
(543,700,l),
(37,700,l),
(37,640,l)
);
}
);
userData = {
com.hugojourdan.ColorFlow = {
"0" = 0;
"1" = 0;
"10" = 0;
"11" = 0;
"2" = 0;
"3" = 0;
"4" = 0;
"5" = 0;
"6" = 0;
"7" = 0;
"8" = 0;
"9" = 0;
};
};
width = 580;
},
{
anchors = (
{
name = bottom;
pos = (282,0);
},
{
name = center;
pos = (282,350);
},
{
name = top;
pos = (282,700);
}
);
layerId = "BC57D14F-D7AD-4877-A02E-2DA2D5328E1F";
shapes = (
{
closed = 1;
nodes = (
(355,0,l),
(355,695,l),
(209,695,l),
(209,0,l)
);
},
{
closed = 1;
nodes = (
(535,584,l),
(535,700,l),
(29,700,l),
(29,584,l)
);
}
);
userData = {
com.hugojourdan.ColorFlow = {
"0" = 0;
"1" = 0;
"10" = 0;
"11" = 0;
"2" = 0;
"3" = 0;
"4" = 0;
"5" = 0;
"6" = 0;
"7" = 0;
"8" = 0;
"9" = 0;
};
};
width = 564;
}
);
metricRight = "=|";
unicode = 84;
userData = {
KernOnName = T;
};
},
{
glyphname = U;
kernLeft = KO_U;
kernRight = KO_U;
layers = (
{
anchors = (
{
name = bottom;
pos = (322,0);
},
{
name = ogonek;
pos = (451,10);
},
{
name = top;
pos = (322,700);
},
{
name = topright;
pos = (622,700);
}
);
layerId = "AC72BA4F-EBEC-4C28-9168-13A8176B9035";
shapes = (
{
closed = 1;
nodes = (
(457,-15,o),
(563,62,o),
(563,256,cs),
(563,700,l),
(494,700,l),
(494,237,ls),
(494,110,o),
(419,45,o),
(322,45,cs),
(226,45,o),
(151,110,o),
(151,237,cs),
(151,700,l),
(81,700,l),
(81,256,ls),
(81,62,o),
(189,-15,o),
(322,-15,cs)
);
}
);
userData = {
com.hugojourdan.ColorFlow = {
"0" = 0;
"1" = 0;
"10" = 0;
"11" = 0;
"2" = 0;
"3" = 0;
"4" = 0;
"5" = 0;
"6" = 0;
"7" = 0;
"8" = 0;
"9" = 0;
};
};
width = 644;
},
{
anchors = (
{
name = bottom;
pos = (328,0);
},
{
name = ogonek;
pos = (472,10);
},
{
name = top;
pos = (328,700);
},
{
name = topright;
pos = (621,700);
}
);
layerId = "BC57D14F-D7AD-4877-A02E-2DA2D5328E1F";
shapes = (
{
closed = 1;
nodes = (
(486,-15,o),
(599,64,o),
(599,267,cs),
(599,700,l),
(454,700,l),
(454,251,ls),
(454,145,o),
(401,101,o),
(328,101,cs),
(260,101,o),
(204,144,o),
(204,251,cs),
(204,700,l),
(58,700,l),
(58,267,ls),
(58,65,o),
(172,-15,o),
(328,-15,cs)
);
}
);
userData = {
com.hugojourdan.ColorFlow = {
"0" = 0;
"1" = 0;
"10" = 0;
"11" = 0;
"2" = 0;
"3" = 0;
"4" = 0;
"5" = 0;
"6" = 0;
"7" = 0;
"8" = 0;
"9" = 0;
};
};
width = 657;
}
);
metricLeft = "=H*.9";
metricRight = "=|";
unicode = 85;
},
{
glyphname = V;
kernLeft = KO_V;
kernRight = KO_V;
layers = (
{
anchors = (
{
name = bottom;
pos = (315,0);
},
{
name = top;
pos = (315,700);
}
);
layerId = "AC72BA4F-EBEC-4C28-9168-13A8176B9035";
shapes = (
{
closed = 1;
nodes = (
(346,0,l),
(594,700,l),
(522,700,l),
(314,101,l),
(312,101,l),
(107,700,l),
(35,700,l),
(281,0,l)
);
}
);
userData = {
com.hugojourdan.ColorFlow = {
"0" = 0;
"1" = 0;
"10" = 0;
"11" = 0;
"2" = 0;
"3" = 0;
"4" = 0;
"5" = 0;
"6" = 0;
"7" = 0;
"8" = 0;
"9" = 0;
};
};
width = 629;
},
{
anchors = (
{
name = bottom;
pos = (330,0);
},
{
name = top;
pos = (330,700);
}
);
layerId = "BC57D14F-D7AD-4877-A02E-2DA2D5328E1F";
shapes = (
{
closed = 1;
nodes = (
(422,0,l),
(637,700,l),
(491,700,l),
(316,90,l),
(343,90,l),
(167,700,l),
(20,700,l),
(237,0,l)
);
}
);
userData = {
com.hugojourdan.ColorFlow = {
"0" = 0;
"1" = 0;
"10" = 0;
"11" = 0;
"2" = 0;
"3" = 0;
"4" = 0;
"5" = 0;
"6" = 0;
"7" = 0;
"8" = 0;
"9" = 0;
};
};
width = 657;
}
);
metricRight = "=|";
unicode = 86;
userData = {
KernOnName = V;
};
},
{
glyphname = W;
kernLeft = KO_W;
kernRight = KO_W;
layers = (
{
anchors = (
{
name = bottom;
pos = (423,0);
},
{
name = top;
pos = (423,700);
}
);
layerId = "AC72BA4F-EBEC-4C28-9168-13A8176B9035";
shapes = (
{
closed = 1;
nodes = (
(269,0,l),
(427,668,l),
(419,668,l),
(577,0,l),
(679,0,l),
(811,700,l),
(744,700,l),
(622,41,l),
(633,41,l),
(476,700,l),
(370,700,l),
(213,41,l),
(224,41,l),
(102,700,l),
(35,700,l),
(167,0,l)
);
}
);
userData = {
com.hugojourdan.ColorFlow = {
"0" = 0;
"1" = 0;
"10" = 0;
"11" = 0;
"2" = 0;
"3" = 0;
"4" = 0;
"5" = 0;
"6" = 0;
"7" = 0;
"8" = 0;
"9" = 0;
};
};
width = 846;
},
{
anchors = (
{
name = bottom;
pos = (429,0);
},
{
name = top;
pos = (429,700);
}
);
layerId = "BC57D14F-D7AD-4877-A02E-2DA2D5328E1F";
shapes = (
{
closed = 1;
nodes = (
(329,0,l),
(438,554,l),
(422,554,l),
(531,0,l),
(729,0,l),
(840,700,l),
(711,700,l),
(623,101,l),
(635,101,l),
(508,700,l),
(352,700,l),
(226,101,l),
(237,101,l),
(149,700,l),
(20,700,l),
(131,0,l)
);
}
);
userData = {
com.hugojourdan.ColorFlow = {
"0" = 0;
"1" = 0;
"10" = 0;
"11" = 0;
"2" = 0;
"3" = 0;
"4" = 0;
"5" = 0;
"6" = 0;
"7" = 0;
"8" = 0;
"9" = 0;
};
};
width = 860;
}
);
metricLeft = V;
metricRight = V;
unicode = 87;
userData = {
KernOnName = W;
};
},
{
glyphname = X;
kernLeft = KO_X;
kernRight = KO_X;
layers = (
{
anchors = (
{
name = bottom;
pos = (341,0);
},
{
name = top;
pos = (341,700);
}
);
layerId = "AC72BA4F-EBEC-4C28-9168-13A8176B9035";
shapes = (
{
closed = 1;
nodes = (
(150,0,l),
(350,329,l),
(337,329,l),
(526,0,l),
(607,0,l),
(389,361,l),
(616,700,l),
(533,700,l),
(335,394,l),
(352,394,l),
(155,700,l),
(71,700,l),
(294,363,l),
(68,0,l)
);
}
);
userData = {
com.hugojourdan.ColorFlow = {
"0" = 0;
"1" = 0;
"10" = 0;
"11" = 0;
"2" = 0;
"3" = 0;
"4" = 0;
"5" = 0;
"6" = 0;
"7" = 0;
"8" = 0;
"9" = 0;
};
};
width = 684;
},
{
anchors = (
{
name = bottom;
pos = (327,0);
},
{
name = top;
pos = (327,700);
}
);
layerId = "BC57D14F-D7AD-4877-A02E-2DA2D5328E1F";
shapes = (
{
closed = 1;
nodes = (
(207,0,l),
(354,290,l),
(333,290,l),
(475,0,l),
(642,0,l),
(440,363,l),
(640,700,l),
(473,700,l),
(332,429,l),
(355,429,l),
(212,700,l),
(44,700,l),
(245,364,l),
(42,0,l)
);
}
);
userData = {
com.hugojourdan.ColorFlow = {
"0" = 0;
"1" = 0;
"10" = 0;
"11" = 0;
"2" = 0;
"3" = 0;
"4" = 0;
"5" = 0;
"6" = 0;
"7" = 0;
"8" = 0;
"9" = 0;
};
};
width = 684;
}
);
metricRight = "=|";
unicode = 88;
},
{
glyphname = Y;
kernLeft = KO_Y;
kernRight = KO_Y;
layers = (
{
anchors = (
{
name = bottom;
pos = (298,0);
},
{
name = top;
pos = (298,700);
},
{
name = topleft;
pos = (14,700);
}
);
layerId = "AC72BA4F-EBEC-4C28-9168-13A8176B9035";
shapes = (
{
closed = 1;
nodes = (
(315,290,l),
(560,700,l),
(481,700,l),
(280,356,l),
(316,358,l),
(114,700,l),
(35,700,l),
(282,290,l)
);
},
{
closed = 1;
nodes = (
(332,0,l),
(332,381,l),
(262,381,l),
(262,0,l)
);
}
);
userData = {
com.hugojourdan.ColorFlow = {
"0" = 0;
"1" = 0;
"10" = 0;
"11" = 0;
"2" = 0;
"3" = 0;
"4" = 0;
"5" = 0;
"6" = 0;
"7" = 0;
"8" = 0;
"9" = 0;
};
};
width = 595;
},
{
anchors = (
{
name = bottom;
pos = (316,0);
},
{
name = top;
pos = (316,700);
},
{
name = topleft;
pos = (29,700);
}
);
layerId = "BC57D14F-D7AD-4877-A02E-2DA2D5328E1F";
shapes = (
{
closed = 1;
nodes = (
(363,275,l),
(612,700,l),
(445,700,l),
(302,424,l),
(334,418,l),
(187,700,l),
(20,700,l),
(269,275,l)
);
},
{
closed = 1;
nodes = (
(389,0,l),
(389,422,l),
(243,422,l),
(243,0,l)
);
}
);
userData = {
com.hugojourdan.ColorFlow = {
"0" = 0;
"1" = 0;
"10" = 0;
"11" = 0;
"2" = 0;
"3" = 0;
"4" = 0;
"5" = 0;
"6" = 0;
"7" = 0;
"8" = 0;
"9" = 0;
};
};
width = 632;
}
);
metricLeft = V;
metricRight = "=|";
unicode = 89;
userData = {
KernOnName = Y;
};
},
{
glyphname = Z;
kernLeft = KO_Z;
kernRight = KO_Z;
layers = (
{
anchors = (
{
name = bottom;
pos = (293,0);
},
{
name = center;
pos = (293,350);
},
{
name = top;
pos = (293,700);
}
);
layerId = "AC72BA4F-EBEC-4C28-9168-13A8176B9035";
shapes = (
{
closed = 1;
nodes = (
(527,0,l),
(527,60,l),
(101,60,l),
(113,24,l),
(514,637,l),
(514,700,l),
(81,700,l),
(81,640,l),
(462,640,l),
(450,664,l),
(58,64,l),
(58,0,l)
);
}
);
userData = {
com.hugojourdan.ColorFlow = {
"0" = 0;
"1" = 0;
"10" = 0;
"11" = 0;
"2" = 0;
"3" = 0;
"4" = 0;
"5" = 0;
"6" = 0;
"7" = 0;
"8" = 0;
"9" = 0;
};
};
width = 585;
},
{
anchors = (
{
name = bottom;
pos = (302,0);
},
{
name = center;
pos = (302,350);
},
{
name = top;
pos = (302,700);
}
);
layerId = "BC57D14F-D7AD-4877-A02E-2DA2D5328E1F";
shapes = (
{
closed = 1;
nodes = (
(560,0,l),
(560,116,l),
(170,116,l),
(186,84,l),
(547,566,l),
(547,700,l),
(68,700,l),
(68,585,l),
(408,585,l),
(396,605,l),
(45,136,l),
(45,0,l)
);
}
);
userData = {
com.hugojourdan.ColorFlow = {
"0" = 0;
"1" = 0;
"10" = 0;
"11" = 0;
"2" = 0;
"3" = 0;
"4" = 0;
"5" = 0;
"6" = 0;
"7" = 0;
"8" = 0;
"9" = 0;
};
};
width = 605;
}
);
metricRight = "=|";
unicode = 90;
},
{
glyphname = M.ss01;
kernLeft = KO_N.ss01;
kernRight = KO_N.ss01;
lastChange = "2025-02-06 07:51:02 +0000";
layers = (
{
anchors = (
{
name = bottom;
pos = (425,0);
},
{
name = top;
pos = (425,700);
}
);
background = {
shapes = (
{
closed = 1;
nodes = (
(155,0,l),
(155,509,ls),
(155,598,o),
(202,645,o),
(275,645,cs),
(348,645,o),
(389,598,o),
(389,509,cs),
(389,0,l),
(459,0,l),
(459,509,ls),
(459,598,o),
(506,645,o),
(579,645,cs),
(652,645,o),
(693,598,o),
(693,509,cs),
(693,0,l),
(763,0,l),
(763,700,l),
(85,700,l),
(85,0,l)
);
}
);
};
layerId = "AC72BA4F-EBEC-4C28-9168-13A8176B9035";
shapes = (
{
closed = 1;
nodes = (
(158,0,l),
(158,640,l),
(392,640,l),
(392,0,l),
(459,0,l),
(459,640,l),
(693,640,l),
(693,0,l),
(760,0,l),
(760,591,ls),
(760,664,o),
(728,700,o),
(649,700,cs),
(201,700,ls),
(122,700,o),
(90,664,o),
(90,591,cs),
(90,0,l)
);
}
);
userData = {
com.hugojourdan.ColorFlow = {
"0" = 0;
"1" = 0;
"10" = 0;
"11" = 0;
"2" = 0;
"3" = 0;
"4" = 0;
"5" = 0;
"6" = 0;
"7" = 0;
"8" = 0;
"9" = 0;
};
};
width = 850;
},
{
anchors = (
{
name = bottom;
pos = (427,0);
},
{
name = top;
pos = (427,700);
}
);
layerId = "BC57D14F-D7AD-4877-A02E-2DA2D5328E1F";
shapes = (
{
closed = 1;
nodes = (
(201,0,l),
(201,585,l),
(359,585,l),
(359,0,l),
(495,0,l),
(495,585,l),
(653,585,l),
(653,0,l),
(789,0,l),
(789,483,ls),
(789,621,o),
(728,704,o),
(575,704,cs),
(291,704,ls),
(134,704,o),
(64,626,o),
(64,483,cs),
(64,0,l)
);
}
);
userData = {
com.hugojourdan.ColorFlow = {
"0" = 0;
"1" = 0;
"10" = 0;
"11" = 0;
"2" = 0;
"3" = 0;
"4" = 0;
"5" = 0;
"6" = 0;
"7" = 0;
"8" = 0;
"9" = 0;
};
};
width = 853;
}
);
metricLeft = M;
metricRight = M;
},
{
glyphname = N.ss01;
kernLeft = KO_N.ss01;
kernRight = KO_N.ss01;
lastChange = "2025-02-06 07:51:02 +0000";
layers = (
{
anchors = (
{
name = bottom;
pos = (339,0);
},
{
name = top;
pos = (339,700);
}
);
background = {
shapes = (
{
closed = 1;
nodes = (
(158,0,l),
(158,430,ls),
(158,571,o),
(220,645,o),
(339,645,cs),
(458,645,o),
(520,571,o),
(520,430,cs),
(520,0,l),
(590,0,l),
(590,700,l),
(88,700,l),
(88,0,l)
);
}
);
};
layerId = "AC72BA4F-EBEC-4C28-9168-13A8176B9035";
shapes = (
{
closed = 1;
nodes = (
(158,0,l),
(158,640,l),
(521,640,l),
(521,0,l),
(589,0,l),
(589,591,l),
(589,664,o),
(553,700,o),
(467,700,cs),
(212,700,ls),
(126,700,o),
(90,664,o),
(90,591,cs),
(90,0,l)
);
}
);
userData = {
com.hugojourdan.ColorFlow = {
"0" = 0;
"1" = 0;
"10" = 0;
"11" = 0;
"2" = 0;
"3" = 0;
"4" = 0;
"5" = 0;
"6" = 0;
"7" = 0;
"8" = 0;
"9" = 0;
};
};
width = 679;
},
{
anchors = (
{
name = bottom;
pos = (341,0);
},
{
name = top;
pos = (341,700);
}
);
layerId = "BC57D14F-D7AD-4877-A02E-2DA2D5328E1F";
shapes = (
{
closed = 1;
nodes = (
(201,0,l),
(201,585,l),
(479,585,l),
(479,0,l),
(615,0,l),
(615,423,ls),
(615,604,o),
(523,715,o),
(342,715,cs),
(340,715,ls),
(161,715,o),
(65,603,o),
(65,423,cs),
(64,0,l)
);
}
);
userData = {
com.hugojourdan.ColorFlow = {
"0" = 0;
"1" = 0;
"10" = 0;
"11" = 0;
"2" = 0;
"3" = 0;
"4" = 0;
"5" = 0;
"6" = 0;
"7" = 0;
"8" = 0;
"9" = 0;
};
};
width = 679;
}
);
metricLeft = N;
metricRight = N;
},
{
glyphname = M.ss02;
kernLeft = KO_H;
kernRight = KO_H;
lastChange = "2025-02-06 07:51:02 +0000";
layers = (
{
anchors = (
{
name = bottom;
pos = (429,0);
},
{
name = top;
pos = (429,700);
}
);
layerId = "AC72BA4F-EBEC-4C28-9168-13A8176B9035";
shapes = (
{
closed = 1;
nodes = (
(160,0,l),
(160,509,ls),
(160,598,o),
(207,645,o),
(280,645,cs),
(353,645,o),
(394,598,o),
(394,509,cs),
(394,0,l),
(464,0,l),
(464,509,ls),
(464,598,o),
(511,645,o),
(584,645,cs),
(657,645,o),
(698,598,o),
(698,509,cs),
(698,0,l),
(768,0,l),
(768,700,l),
(90,700,l),
(90,0,l)
);
}
);
userData = {
com.hugojourdan.ColorFlow = {
"0" = 0;
"1" = 0;
"10" = 0;
"11" = 0;
"2" = 0;
"3" = 0;
"4" = 0;
"5" = 0;
"6" = 0;
"7" = 0;
"8" = 0;
"9" = 0;
};
};
width = 858;
},
{
anchors = (
{
name = bottom;
pos = (428,0);
},
{
name = top;
pos = (428,700);
}
);
layerId = "BC57D14F-D7AD-4877-A02E-2DA2D5328E1F";
shapes = (
{
closed = 1;
nodes = (
(200,0,l),
(200,499,ls),
(200,561,o),
(231,594,o),
(282,594,cs),
(331,594,o),
(359,562,o),
(359,499,cs),
(359,0,l),
(496,0,l),
(496,499,ls),
(496,561,o),
(529,594,o),
(578,594,cs),
(626,594,o),
(656,562,o),
(656,499,cs),
(656,0,l),
(791,0,l),
(791,700,l),
(64,700,l),
(64,0,l)
);
}
);
userData = {
com.hugojourdan.ColorFlow = {
"0" = 0;
"1" = 0;
"10" = 0;
"11" = 0;
"2" = 0;
"3" = 0;
"4" = 0;
"5" = 0;
"6" = 0;
"7" = 0;
"8" = 0;
"9" = 0;
};
};
width = 855;
}
);
metricLeft = M;
metricRight = M;
},
{
glyphname = N.ss02;
kernLeft = KO_H;
kernRight = KO_H;
lastChange = "2025-02-06 07:51:02 +0000";
layers = (
{
anchors = (
{
name = bottom;
pos = (341,0);
},
{
name = top;
pos = (341,700);
}
);
layerId = "AC72BA4F-EBEC-4C28-9168-13A8176B9035";
shapes = (
{
closed = 1;
nodes = (
(160,0,l),
(160,430,ls),
(160,571,o),
(222,645,o),
(341,645,cs),
(460,645,o),
(522,571,o),
(522,430,cs),
(522,0,l),
(592,0,l),
(592,700,l),
(90,700,l),
(90,0,l)
);
}
);
userData = {
com.hugojourdan.ColorFlow = {
"0" = 0;
"1" = 0;
"10" = 0;
"11" = 0;
"2" = 0;
"3" = 0;
"4" = 0;
"5" = 0;
"6" = 0;
"7" = 0;
"8" = 0;
"9" = 0;
};
};
width = 682;
},
{
anchors = (
{
name = bottom;
pos = (340,0);
},
{
name = top;
pos = (340,700);
}
);
layerId = "BC57D14F-D7AD-4877-A02E-2DA2D5328E1F";
shapes = (
{
closed = 1;
nodes = (
(200,0,l),
(200,433,ls),
(200,540,o),
(248,600,o),
(340,600,cs),
(430,600,o),
(480,541,o),
(480,433,cs),
(480,0,l),
(616,0,l),
(616,701,l),
(64,701,l),
(64,0,l)
);
}
);
userData = {
com.hugojourdan.ColorFlow = {
"0" = 0;
"1" = 0;
"10" = 0;
"11" = 0;
"2" = 0;
"3" = 0;
"4" = 0;
"5" = 0;
"6" = 0;
"7" = 0;
"8" = 0;
"9" = 0;
};
};
width = 680;
}
);
metricLeft = N;
metricRight = N;
},
{
glyphname = a;
kernLeft = KO_a;
kernRight = KO_a;
layers = (
{
anchors = (
{
name = bottom;
pos = (258,0);
},
{
name = ogonek;
pos = (470,10);
},
{
name = top;
pos = (258,546);
}
);
background = {
shapes = (
{
closed = 1;
nodes = (
(449,0,l),
(449,390,ls),
(449,503,o),
(384,561,o),
(256,561,cs),
(161,561,o),
(82,512,o),
(48,432,c),
(104,398,l),
(133,461,o),
(186,501,o),
(255,501,cs),
(340,501,o),
(381,455,o),
(381,391,cs),
(381,0,l)
);
},
{
closed = 1;
nodes = (
(322,-11,o),
(389,50,o),
(394,146,c),
(381,240,l),
(381,121,o),
(324,49,o),
(230,49,cs),
(152,49,o),
(109,84,o),
(109,148,cs),
(109,208,o),
(149,241,o),
(244,258,cs),
(394,283,l),
(394,344,l),
(237,318,ls),
(104,297,o),
(41,241,o),
(41,144,cs),
(41,49,o),
(108,-11,o),
(223,-11,cs)
);
}
);
};
layerId = "AC72BA4F-EBEC-4C28-9168-13A8176B9035";
shapes = (
{
closed = 1;
nodes = (
(452,0,l),
(452,379,ls),
(452,516,o),
(363,561,o),
(263,561,cs),
(159,561,o),
(86,518,o),
(49,429,c),
(112,400,l),
(135,466,o),
(186,501,o),
(262,501,cs),
(330,501,o),
(382,466,o),
(382,386,cs),
(382,0,l)
);
},
{
closed = 1;
nodes = (
(330,-11,o),
(394,53,o),
(399,157,c),
(382,241,l),
(382,118,o),
(321,50,o),
(220,50,cs),
(159,50,o),
(111,80,o),
(111,148,cs),
(111,212,o),
(154,241,o),
(240,258,cs),
(395,280,l),
(395,340,l),
(244,319,ls),
(110,300,o),
(42,242,o),
(42,142,cs),
(42,55,o),
(102,-11,o),
(210,-11,cs)
);
}
);
userData = {
com.hugojourdan.ColorFlow = {
"0" = 0;
"1" = 0;
"10" = 0;
"11" = 0;
"2" = 0;
"3" = 0;
"4" = 0;
"5" = 0;
"6" = 0;
"7" = 0;
"8" = 0;
"9" = 0;
};
};
width = 520;
},
{
anchors = (
{
name = bottom;
pos = (269,0);
},
{
name = ogonek;
pos = (465,10);
},
{
name = top;
pos = (269,560);
}
);
color = 4;
layerId = "BC57D14F-D7AD-4877-A02E-2DA2D5328E1F";
shapes = (
{
closed = 1;
nodes = (
(486,0,l),
(486,373,ls),
(486,515,o),
(409,575,o),
(270,575,cs),
(184,575,o),
(94,543,o),
(38,473,c),
(124,385,l),
(148,425,o),
(201,461,o),
(261,461,cs),
(313,461,o),
(350,436,o),
(350,378,cs),
(350,0,l)
);
},
{
closed = 1;
nodes = (
(302,-11,o),
(358,51,o),
(354,155,c),
(350,242,l),
(350,147,o),
(310,94,o),
(242,94,cs),
(201,94,o),
(167,113,o),
(167,161,cs),
(167,202,o),
(194,228,o),
(251,240,cs),
(363,262,l),
(363,360,l),
(233,336,ls),
(97,311,o),
(30,253,o),
(30,152,cs),
(30,55,o),
(91,-11,o),
(199,-11,cs)
);
}
);
userData = {
com.hugojourdan.ColorFlow = {
"0" = 0;
"1" = 0;
"10" = 0;
"11" = 0;
"2" = 0;
"3" = 0;
"4" = 0;
"5" = 0;
"6" = 0;
"7" = 0;
"8" = 0;
"9" = 0;
};
};
width = 543;
}
);
metricLeft = o;
metricRight = n;
unicode = 97;
userData = {
KernOnName = a;
};
},
{
glyphname = aogonek;
kernLeft = KO_a;
kernRight = KO_a;
lastChange = "2025-02-06 07:51:02 +0000";
layers = (
{
anchors = (
{
name = top;
pos = (260,546);
}
);
layerId = "AC72BA4F-EBEC-4C28-9168-13A8176B9035";
shapes = (
{
closed = 1;
nodes = (
(427,-205,o),
(447,-202,o),
(470,-191,c),
(470,-130,l),
(447,-142,o),
(434,-145,o),
(420,-145,c),
(391,-145,o),
(371,-129,o),
(371,-103,cs),
(371,-72,o),
(395,-46,o),
(436,-13,cs),
(452,0,l),
(389,7,l),
(371,-9,ls),
(333,-44,o),
(308,-72,o),
(308,-120,cs),
(308,-171,o),
(347,-205,o),
(402,-205,c)
);
},
{
ref = a;
}
);
userData = {
com.hugojourdan.ColorFlow = {
"0" = 0;
"1" = 0;
"10" = 0;
"11" = 0;
"2" = 0;
"3" = 0;
"4" = 0;
"5" = 0;
"6" = 0;
"7" = 0;
"8" = 0;
"9" = 0;
};
};
width = 520;
},
{
anchors = (
{
name = top;
pos = (272,560);
}
);
layerId = "BC57D14F-D7AD-4877-A02E-2DA2D5328E1F";
shapes = (
{
closed = 1;
nodes = (
(468,-205,o),
(488,-201,o),
(511,-192,c),
(511,-115,l),
(488,-127,o),
(475,-129,o),
(461,-129,c),
(437,-129,o),
(418,-117,o),
(418,-95,cs),
(418,-69,o),
(439,-45,o),
(472,-13,cs),
(486,0,l),
(415,10,l),
(397,-4,ls),
(352,-38,o),
(328,-75,o),
(328,-116,cs),
(328,-172,o),
(369,-205,o),
(437,-205,c)
);
},
{
alignment = -1;
ref = a;
}
);
userData = {
com.hugojourdan.ColorFlow = {
"0" = 0;
"1" = 0;
"10" = 0;
"11" = 0;
"2" = 0;
"3" = 0;
"4" = 0;
"5" = 0;
"6" = 0;
"7" = 0;
"8" = 0;
"9" = 0;
};
};
width = 543;
}
);
metricLeft = a;
unicode = 261;
},
{
color = 0;
glyphname = ae;
kernLeft = KO_a;
kernRight = KO_e;
lastChange = "2025-02-06 07:51:02 +0000";
layers = (
{
anchors = (
{
name = bottom;
pos = (445,0);
},
{
name = top;
pos = (445,546);
}
);
layerId = "AC72BA4F-EBEC-4C28-9168-13A8176B9035";
shapes = (
{
closed = 1;
nodes = (
(446,173,l),
(446,379,ls),
(446,516,o),
(363,561,o),
(263,561,cs),
(159,561,o),
(86,518,o),
(49,429,c),
(112,400,l),
(135,466,o),
(186,501,o),
(262,501,cs),
(330,501,o),
(382,466,o),
(382,386,cs),
(382,173,l)
);
},
{
closed = 1;
nodes = (
(339,-11,o),
(404,53,o),
(419,157,c),
(382,241,l),
(382,118,o),
(321,50,o),
(220,50,cs),
(159,50,o),
(111,80,o),
(111,148,cs),
(111,212,o),
(154,241,o),
(240,258,cs),
(395,280,l),
(395,340,l),
(244,319,ls),
(110,300,o),
(42,242,o),
(42,142,cs),
(42,55,o),
(102,-11,o),
(210,-11,cs)
);
},
{
alignment = -1;
pos = (341,0);
ref = e;
}
);
userData = {
com.hugojourdan.ColorFlow = {
"0" = 0;
"1" = 0;
"10" = 0;
"11" = 0;
"2" = 0;
"3" = 0;
"4" = 0;
"5" = 0;
"6" = 0;
"7" = 0;
"8" = 0;
"9" = 0;
};
};
width = 889;
},
{
anchors = (
{
name = bottom;
pos = (436,0);
},
{
name = top;
pos = (436,560);
}
);
layerId = "BC57D14F-D7AD-4877-A02E-2DA2D5328E1F";
shapes = (
{
closed = 1;
nodes = (
(467,192,l),
(467,381,ls),
(467,513,o),
(392,575,o),
(276,575,cs),
(184,575,o),
(96,541,o),
(38,470,c),
(115,384,l),
(144,430,o),
(194,461,o),
(261,461,cs),
(312,461,o),
(350,436,o),
(350,378,cs),
(350,192,l)
);
},
{
closed = 1;
nodes = (
(337,-11,o),
(407,48,o),
(416,148,c),
(350,247,l),
(350,143,o),
(312,94,o),
(241,94,cs),
(199,94,o),
(166,116,o),
(166,164,cs),
(166,205,o),
(195,230,o),
(248,241,cs),
(363,265,l),
(363,353,l),
(232,331,ls),
(95,306,o),
(30,248,o),
(30,150,cs),
(30,54,o),
(97,-11,o),
(209,-11,cs)
);
},
{
alignment = -1;
pos = (319,0);
ref = e;
}
);
userData = {
com.hugojourdan.ColorFlow = {
"0" = 0;
"1" = 0;
"10" = 0;
"11" = 0;
"2" = 0;
"3" = 0;
"4" = 0;
"5" = 0;
"6" = 0;
"7" = 0;
"8" = 0;
"9" = 0;
};
};
width = 871;
}
);
metricLeft = a;
metricRight = e;
unicode = 230;
},
{
glyphname = b;
kernLeft = KO_i;
kernRight = KO_b;
layers = (
{
anchors = (
{
name = bottom;
pos = (284,0);
},
{
name = center;
pos = (140,618);
},
{
name = top;
pos = (284,546);
}
);
background = {
shapes = (
{
closed = 1;
nodes = (
(428,-15,o),
(523,86,o),
(523,278,cs),
(523,470,o),
(428,562,o),
(308,562,cs),
(222,562,o),
(143,505,o),
(131,409,c),
(71,275,l),
(128,151,l),
(138,48,o),
(210,-15,o),
(308,-15,cs)
);
},
{
closed = 1;
nodes = (
(192,37,o),
(138,137,o),
(138,275,cs),
(138,405,o),
(192,510,o),
(293,510,cs),
(399,510,o),
(455,424,o),
(455,277,cs),
(455,133,o),
(399,37,o),
(293,37,cs)
);
}
);
};
layerId = "AC72BA4F-EBEC-4C28-9168-13A8176B9035";
shapes = (
{
closed = 1;
nodes = (
(443,-15,o),
(550,78,o),
(550,273,cs),
(550,468,o),
(443,561,o),
(318,561,cs),
(222,561,o),
(135,494,o),
(122,385,c),
(73,273,l),
(122,161,l),
(135,52,o),
(222,-15,o),
(318,-15,cs)
);
},
{
closed = 1;
nodes = (
(140,0,l),
(140,164,l),
(140,382,l),
(140,760,l),
(72,760,l),
(72,0,l)
);
},
{
closed = 1;
nodes = (
(197,45,o),
(140,145,o),
(140,273,cs),
(140,401,o),
(197,501,o),
(305,501,cs),
(418,501,o),
(482,418,o),
(482,273,cs),
(482,128,o),
(418,45,o),
(305,45,cs)
);
}
);
userData = {
com.hugojourdan.ColorFlow = {
"0" = 0;
"1" = 0;
"10" = 0;
"11" = 0;
"2" = 0;
"3" = 0;
"4" = 0;
"5" = 0;
"6" = 0;
"7" = 0;
"8" = 0;
"9" = 0;
};
};
width = 588;
},
{
anchors = (
{
name = bottom;
pos = (306,0);
},
{
name = center;
pos = (153,609);
},
{
name = top;
pos = (306,560);
}
);
layerId = "BC57D14F-D7AD-4877-A02E-2DA2D5328E1F";
shapes = (
{
closed = 1;
nodes = (
(481,-15,o),
(583,83,o),
(583,281,cs),
(583,477,o),
(481,575,o),
(353,575,cs),
(259,575,o),
(187,510,o),
(183,402,c),
(128,281,l),
(183,159,l),
(187,52,o),
(258,-15,o),
(353,-15,cs)
);
},
{
closed = 1;
nodes = (
(195,0,l),
(195,167,l),
(195,390,l),
(195,759,l),
(60,759,l),
(60,0,l)
);
},
{
closed = 1;
nodes = (
(233,103,o),
(195,177,o),
(195,281,cs),
(195,383,o),
(232,458,o),
(316,458,cs),
(400,458,o),
(446,391,o),
(446,281,cs),
(446,171,o),
(401,103,o),
(316,103,cs)
);
}
);
userData = {
com.hugojourdan.ColorFlow = {
"0" = 0;
"1" = 0;
"10" = 0;
"11" = 0;
"2" = 0;
"3" = 0;
"4" = 0;
"5" = 0;
"6" = 0;
"7" = 0;
"8" = 0;
"9" = 0;
};
};
width = 610;
}
);
metricLeft = l;
metricRight = "=o*.9";
unicode = 98;
},
{
glyphname = c;
kernLeft = KO_e;
kernRight = KO_c;
lastChange = "2025-02-06 07:51:02 +0000";
layers = (
{
anchors = (
{
name = bottom;
pos = (270,0);
},
{
name = top;
pos = (270,546);
}
);
background = {
shapes = (
{
pos = (-1,0);
ref = o;
}
);
};
layerId = "AC72BA4F-EBEC-4C28-9168-13A8176B9035";
shapes = (
{
closed = 1;
nodes = (
(371,-13,o),
(471,19,o),
(501,155,c),
(439,172,l),
(422,83,o),
(357,47,o),
(285,47,cs),
(176,47,o),
(110,128,o),
(110,275,cs),
(110,420,o),
(181,501,o),
(285,501,cs),
(364,501,o),
(421,466,o),
(442,378,c),
(501,396,l),
(478,527,o),
(374,561,o),
(285,561,cs),
(129,561,o),
(42,441,o),
(42,275,cs),
(42,107,o),
(129,-13,o),
(285,-13,cs)
);
}
);
userData = {
com.hugojourdan.ColorFlow = {
"0" = 0;
"1" = 0;
"10" = 0;
"11" = 0;
"2" = 0;
"3" = 0;
"4" = 0;
"5" = 0;
"6" = 0;
"7" = 0;
"8" = 0;
"9" = 0;
};
};
width = 541;
},
{
anchors = (
{
name = bottom;
pos = (275,0);
},
{
name = top;
pos = (275,560);
}
);
color = 4;
layerId = "BC57D14F-D7AD-4877-A02E-2DA2D5328E1F";
shapes = (
{
closed = 1;
nodes = (
(408,-13,o),
(498,49,o),
(520,175,c),
(388,204,l),
(378,130,o),
(339,102,o),
(284,102,cs),
(208,102,o),
(166,162,o),
(166,282,cs),
(166,399,o),
(209,460,o),
(284,460,cs),
(340,460,o),
(377,432,o),
(388,358,c),
(520,388,l),
(504,516,o),
(409,575,o),
(287,575,cs),
(127,575,o),
(30,460,o),
(30,282,cs),
(30,106,o),
(128,-13,o),
(287,-13,cs)
);
}
);
userData = {
com.hugojourdan.ColorFlow = {
"0" = 0;
"1" = 0;
"10" = 0;
"11" = 0;
"2" = 0;
"3" = 0;
"4" = 0;
"5" = 0;
"6" = 0;
"7" = 0;
"8" = 0;
"9" = 0;
};
};
width = 549;
}
);
metricLeft = o;
metricRight = "=|*.95";
unicode = 99;
},
{
glyphname = d;
kernLeft = KO_d;
kernRight = KO_i;
layers = (
{
anchors = (
{
name = bottom;
pos = (294,0);
},
{
name = center;
pos = (441,608);
},
{
name = top;
pos = (294,546);
},
{
name = topright;
pos = (568,760);
}
);
layerId = "AC72BA4F-EBEC-4C28-9168-13A8176B9035";
shapes = (
{
closed = 1;
nodes = (
(366,-15,o),
(453,52,o),
(466,161,c),
(515,273,l),
(466,385,l),
(453,494,o),
(366,561,o),
(270,561,cs),
(145,561,o),
(38,468,o),
(38,273,cs),
(38,78,o),
(145,-15,o),
(270,-15,cs)
);
},
{
closed = 1;
nodes = (
(170,45,o),
(106,128,o),
(106,273,cs),
(106,418,o),
(170,501,o),
(283,501,cs),
(391,501,o),
(448,401,o),
(448,273,cs),
(448,145,o),
(391,45,o),
(283,45,cs)
);
},
{
closed = 1;
nodes = (
(516,0,l),
(516,760,l),
(448,760,l),
(448,382,l),
(448,164,l),
(448,0,l)
);
}
);
userData = {
com.hugojourdan.ColorFlow = {
"0" = 0;
"1" = 0;
"10" = 0;
"11" = 0;
"2" = 0;
"3" = 0;
"4" = 0;
"5" = 0;
"6" = 0;
"7" = 0;
"8" = 0;
"9" = 0;
};
};
width = 588;
},
{
anchors = (
{
name = bottom;
pos = (305,0);
},
{
name = center;
pos = (458,608);
},
{
name = top;
pos = (305,560);
},
{
name = topright;
pos = (590,760);
}
);
layerId = "BC57D14F-D7AD-4877-A02E-2DA2D5328E1F";
shapes = (
{
closed = 1;
nodes = (
(352,-15,o),
(423,52,o),
(427,159,c),
(482,281,l),
(427,402,l),
(423,510,o),
(351,575,o),
(257,575,cs),
(129,575,o),
(27,477,o),
(27,281,cs),
(27,83,o),
(129,-15,o),
(257,-15,cs)
);
},
{
closed = 1;
nodes = (
(209,103,o),
(164,171,o),
(164,281,cs),
(164,391,o),
(210,458,o),
(294,458,cs),
(378,458,o),
(415,383,o),
(415,281,cs),
(415,177,o),
(377,103,o),
(294,103,cs)
);
},
{
closed = 1;
nodes = (
(550,0,l),
(550,759,l),
(415,759,l),
(415,390,l),
(415,167,l),
(415,0,l)
);
}
);
userData = {
com.hugojourdan.ColorFlow = {
"0" = 0;
"1" = 0;
"10" = 0;
"11" = 0;
"2" = 0;
"3" = 0;
"4" = 0;
"5" = 0;
"6" = 0;
"7" = 0;
"8" = 0;
"9" = 0;
};
};
width = 610;
}
);
unicode = 100;
userData = {
KernOnName = d;
};
},
{
color = 0;
glyphname = dcroat;
kernLeft = KO_d;
lastChange = "2025-02-06 07:51:02 +0000";
layers = (
{
layerId = "AC72BA4F-EBEC-4C28-9168-13A8176B9035";
shapes = (
{
ref = d;
},
{
closed = 1;
nodes = (
(327,675,l),
(327,615,l),
(602,615,l),
(602,675,l)
);
}
);
userData = {
com.hugojourdan.ColorFlow = {
"0" = 0;
"1" = 0;
"10" = 0;
"11" = 0;
"2" = 0;
"3" = 0;
"4" = 0;
"5" = 0;
"6" = 0;
"7" = 0;
"8" = 0;
"9" = 0;
};
};
width = 594;
},
{
layerId = "BC57D14F-D7AD-4877-A02E-2DA2D5328E1F";
shapes = (
{
alignment = -1;
ref = d;
},
{
closed = 1;
nodes = (
(327,699,l),
(327,591,l),
(614,591,l),
(614,699,l)
);
}
);
userData = {
com.hugojourdan.ColorFlow = {
"0" = 0;
"1" = 0;
"10" = 0;
"11" = 0;
"2" = 0;
"3" = 0;
"4" = 0;
"5" = 0;
"6" = 0;
"7" = 0;
"8" = 0;
"9" = 0;
};
};
width = 598;
}
);
unicode = 273;
},
{
color = 0;
glyphname = eth;
kernLeft = KO_eth;
kernRight = KO_eth;
lastChange = "2025-02-06 07:51:02 +0000";
layers = (
{
background = {
shapes = (
{
attr = {
identifier = ID0x149dc2ac0;
};
closed = 1;
nodes = (
(476,-15,o),
(524,162,o),
(523,356,cs),
(520,555,o),
(424,700,o),
(187,754,c),
(163,656,l),
(295,633,o),
(452,539,o),
(452,374,cs),
(452,297,l),
(460,318,l),
(448,388,o),
(362,472,o),
(263,472,cs),
(155,472,o),
(40,390,o),
(40,237,cs),
(40,60,o),
(153,-15,o),
(279,-15,cs)
);
},
{
attr = {
identifier = ID0x149dc2ac0;
};
closed = 1;
nodes = (
(184,38,o),
(105,117,o),
(105,232,cs),
(105,354,o),
(168,421,o),
(265,421,cs),
(338,421,o),
(442,373,o),
(442,232,cs),
(442,117,o),
(383,38,o),
(275,38,cs)
);
},
{
attr = {
strokeHeight = 63.54369;
strokeWidth = 63.54369;
};
closed = 0;
nodes = (
(262,543,l),
(449,743,l)
);
}
);
};
layerId = "AC72BA4F-EBEC-4C28-9168-13A8176B9035";
shapes = (
{
attr = {
identifier = ID0x13bef4cb0;
};
closed = 1;
nodes = (
(466,-15,o),
(521,142,o),
(516,339,cs),
(512,515,o),
(446,728,o),
(145,766,c),
(133,698,l),
(393,665,o),
(441,497,o),
(443,374,cs),
(443,297,l),
(451,358,l),
(439,443,o),
(368,512,o),
(262,512,cs),
(148,512,o),
(34,421,o),
(34,255,cs),
(34,64,o),
(149,-15,o),
(276,-15,cs)
);
},
{
attr = {
identifier = ID0x13bef4cb0;
};
closed = 1;
nodes = (
(180,45,o),
(104,123,o),
(104,255,cs),
(104,387,o),
(180,452,o),
(267,452,cs),
(347,452,o),
(436,404,o),
(436,252,cs),
(436,128,o),
(377,45,o),
(272,45,cs)
);
},
{
closed = 1;
nodes = (
(235,593,l),
(281,555,l),
(436,733,l),
(390,771,l)
);
}
);
userData = {
com.hugojourdan.ColorFlow = {
"0" = 0;
"1" = 0;
"10" = 0;
"11" = 0;
"2" = 0;
"3" = 0;
"4" = 0;
"5" = 0;
"6" = 0;
"7" = 0;
"8" = 0;
"9" = 0;
};
};
width = 565;
},
{
layerId = "BC57D14F-D7AD-4877-A02E-2DA2D5328E1F";
shapes = (
{
attr = {
identifier = ID0x149dc2ac0;
};
closed = 1;
nodes = (
(491,-15,o),
(554,145,o),
(550,353,cs),
(546,558,o),
(448,720,o),
(181,775,c),
(141,640,l),
(347,607,o),
(413,494,o),
(413,374,cs),
(413,297,l),
(421,345,l),
(411,441,o),
(346,512,o),
(244,512,cs),
(134,512,o),
(30,423,o),
(30,257,cs),
(30,67,o),
(153,-15,o),
(287,-15,cs)
);
},
{
attr = {
identifier = ID0x149dc2ac0;
};
closed = 1;
nodes = (
(221,101,o),
(167,158,o),
(167,252,cs),
(167,349,o),
(214,397,o),
(282,397,cs),
(339,397,o),
(407,357,o),
(407,252,cs),
(407,159,o),
(357,101,o),
(286,101,cs)
);
},
{
closed = 1;
nodes = (
(214,584,l),
(292,525,l),
(440,721,l),
(362,779,l)
);
}
);
userData = {
com.hugojourdan.ColorFlow = {
"0" = 0;
"1" = 0;
"10" = 0;
"11" = 0;
"2" = 0;
"3" = 0;
"4" = 0;
"5" = 0;
"6" = 0;
"7" = 0;
"8" = 0;
"9" = 0;
};
};
width = 586;
}
);
unicode = 240;
},
{
glyphname = e;
kernLeft = KO_e;
kernRight = KO_e;
lastChange = "2025-02-06 07:51:02 +0000";
layers = (
{
anchors = (
{
name = bottom;
pos = (274,0);
},
{
name = ogonek;
pos = (413,10);
},
{
name = top;
pos = (274,546);
}
);
layerId = "AC72BA4F-EBEC-4C28-9168-13A8176B9035";
shapes = (
{
closed = 1;
nodes = (
(370,-15,o),
(464,12,o),
(501,152,c),
(442,166,l),
(422,79,o),
(357,45,o),
(285,45,cs),
(159,45,o),
(111,121,o),
(111,285,cs),
(111,441,o),
(177,501,o),
(281,501,cs),
(386,501,o),
(437,437,o),
(437,338,cs),
(437,332,o),
(437,324,o),
(436,318,c),
(453,322,l),
(91,322,l),
(91,262,l),
(506,262,l),
(506,292,ls),
(506,470,o),
(421,561,o),
(281,561,cs),
(138,561,o),
(42,450,o),
(42,280,cs),
(42,102,o),
(126,-15,o),
(286,-15,cs)
);
}
);
userData = {
com.hugojourdan.ColorFlow = {
"0" = 0;
"1" = 0;
"10" = 0;
"11" = 0;
"2" = 0;
"3" = 0;
"4" = 0;
"5" = 0;
"6" = 0;
"7" = 0;
"8" = 0;
"9" = 0;
};
};
width = 548;
},
{
anchors = (
{
name = bottom;
pos = (277,0);
},
{
name = ogonek;
pos = (418,10);
},
{
name = top;
pos = (277,560);
}
);
color = 4;
layerId = "BC57D14F-D7AD-4877-A02E-2DA2D5328E1F";
shapes = (
{
closed = 1;
nodes = (
(375,-14,o),
(484,16,o),
(517,156,c),
(395,190,l),
(381,121,o),
(341,97,o),
(286,97,cs),
(199,97,o),
(167,156,o),
(167,293,cs),
(167,421,o),
(210,464,o),
(278,464,cs),
(347,464,o),
(379,419,o),
(379,354,cs),
(379,345,o),
(379,334,o),
(378,326,c),
(402,342,l),
(106,342,l),
(106,251,l),
(522,251,l),
(522,295,ls),
(522,484,o),
(422,575,o),
(284,575,cs),
(131,575,o),
(30,465,o),
(30,287,cs),
(30,106,o),
(126,-14,o),
(286,-14,cs)
);
}
);
userData = {
com.hugojourdan.ColorFlow = {
"0" = 0;
"1" = 0;
"10" = 0;
"11" = 0;
"2" = 0;
"3" = 0;
"4" = 0;
"5" = 0;
"6" = 0;
"7" = 0;
"8" = 0;
"9" = 0;
};
};
width = 552;
}
);
metricLeft = o;
metricRight = o;
unicode = 101;
},
{
glyphname = f;
kernLeft = KO_f;
kernRight = KO_f;
layers = (
{
anchors = (
{
name = bottom;
pos = (191,0);
},
{
name = top;
pos = (191,760);
}
);
layerId = "AC72BA4F-EBEC-4C28-9168-13A8176B9035";
shapes = (
{
closed = 1;
nodes = (
(221,0,l),
(221,643,ls),
(221,682,o),
(236,700,o),
(274,700,cs),
(362,700,l),
(362,760,l),
(276,760,ls),
(194,760,o),
(154,720,o),
(154,641,cs),
(154,0,l)
);
},
{
closed = 1;
nodes = (
(361,486,l),
(361,546,l),
(49,546,l),
(49,486,l)
);
}
);
userData = {
com.hugojourdan.ColorFlow = {
"0" = 0;
"1" = 0;
"10" = 0;
"11" = 0;
"2" = 0;
"3" = 0;
"4" = 0;
"5" = 0;
"6" = 0;
"7" = 0;
"8" = 0;
"9" = 0;
};
};
width = 382;
},
{
anchors = (
{
name = bottom;
pos = (203,0);
},
{
name = top;
pos = (203,762);
}
);
layerId = "BC57D14F-D7AD-4877-A02E-2DA2D5328E1F";
shapes = (
{
closed = 1;
nodes = (
(261,0,l),
(261,608,ls),
(261,633,o),
(272,646,o),
(299,646,cs),
(384,646,l),
(384,760,l),
(281,760,ls),
(167,760,o),
(126,710,o),
(126,602,cs),
(126,0,l)
);
},
{
closed = 1;
nodes = (
(383,446,l),
(383,560,l),
(36,560,l),
(36,446,l)
);
}
);
userData = {
com.hugojourdan.ColorFlow = {
"0" = 0;
"1" = 0;
"10" = 0;
"11" = 0;
"2" = 0;
"3" = 0;
"4" = 0;
"5" = 0;
"6" = 0;
"7" = 0;
"8" = 0;
"9" = 0;
};
};
width = 405;
}
);
unicode = 102;
},
{
glyphname = g;
kernLeft = KO_d;
kernRight = KO_g;
lastChange = "2025-02-06 07:51:02 +0000";
layers = (
{
anchors = (
{
name = bottom;
pos = (311,-220);
},
{
name = top;
pos = (311,546);
}
);
background = {
shapes = (
{
closed = 1;
nodes = (
(346,-220,ls),
(479,-220,o),
(515,-159,o),
(515,-52,cs),
(515,547,l),
(447,547,l),
(447,-57,ls),
(447,-136,o),
(412,-167,o),
(348,-167,cs),
(138,-167,l),
(138,-220,l)
);
},
{
closed = 1;
nodes = (
(370,-15,o),
(453,52,o),
(465,161,c),
(514,273,l),
(465,385,l),
(453,494,o),
(370,561,o),
(279,561,cs),
(159,561,o),
(62,468,o),
(62,273,cs),
(62,78,o),
(159,-15,o),
(279,-15,cs)
);
},
{
closed = 1;
nodes = (
(186,45,o),
(130,128,o),
(130,273,cs),
(130,418,o),
(186,501,o),
(292,501,cs),
(393,501,o),
(447,401,o),
(447,273,cs),
(447,145,o),
(393,45,o),
(292,45,cs)
);
}
);
};
layerId = "AC72BA4F-EBEC-4C28-9168-13A8176B9035";
shapes = (
{
closed = 1;
nodes = (
(348,-215,ls),
(481,-215,o),
(517,-154,o),
(517,-47,cs),
(517,547,l),
(449,547,l),
(449,-45,ls),
(449,-124,o),
(414,-155,o),
(350,-155,cs),
(122,-155,l),
(122,-215,l)
);
},
{
closed = 1;
nodes = (
(366,-15,o),
(453,52,o),
(466,161,c),
(515,273,l),
(466,385,l),
(453,494,o),
(366,561,o),
(270,561,cs),
(145,561,o),
(38,468,o),
(38,273,cs),
(38,78,o),
(145,-15,o),
(270,-15,cs)
);
},
{
closed = 1;
nodes = (
(170,45,o),
(106,128,o),
(106,273,cs),
(106,418,o),
(170,501,o),
(283,501,cs),
(391,501,o),
(448,401,o),
(448,273,cs),
(448,145,o),
(391,45,o),
(283,45,cs)
);
}
);
userData = {
com.hugojourdan.ColorFlow = {
"0" = 0;
"1" = 0;
"10" = 0;
"11" = 0;
"2" = 0;
"3" = 0;
"4" = 0;
"5" = 0;
"6" = 0;
"7" = 0;
"8" = 0;
"9" = 0;
};
};
width = 589;
},
{
anchors = (
{
name = bottom;
pos = (322,-220);
},
{
name = top;
pos = (322,560);
}
);
color = 4;
layerId = "BC57D14F-D7AD-4877-A02E-2DA2D5328E1F";
shapes = (
{
closed = 1;
nodes = (
(346,-215,ls),
(506,-215,o),
(549,-141,o),
(549,-9,cs),
(549,560,l),
(414,560,l),
(414,-14,ls),
(414,-74,o),
(386,-100,o),
(335,-100,cs),
(112,-100,l),
(112,-215,l)
);
},
{
closed = 1;
nodes = (
(349,-15,o),
(421,51,o),
(426,159,c),
(480,281,l),
(426,402,l),
(421,511,o),
(349,575,o),
(255,575,cs),
(128,575,o),
(27,478,o),
(27,281,cs),
(27,84,o),
(127,-15,o),
(255,-15,cs)
);
},
{
closed = 1;
nodes = (
(208,103,o),
(162,170,o),
(162,281,cs),
(162,390,o),
(207,458,o),
(293,458,cs),
(375,458,o),
(413,384,o),
(413,281,cs),
(413,178,o),
(376,103,o),
(293,103,cs)
);
}
);
userData = {
com.hugojourdan.ColorFlow = {
"0" = 0;
"1" = 0;
"10" = 0;
"11" = 0;
"2" = 0;
"3" = 0;
"4" = 0;
"5" = 0;
"6" = 0;
"7" = 0;
"8" = 0;
"9" = 0;
};
};
width = 609;
}
);
metricLeft = q;
metricRight = q;
unicode = 103;
},
{
glyphname = h;
kernLeft = KO_i;
kernRight = KO_n;
layers = (
{
anchors = (
{
name = bottom;
pos = (294,0);
},
{
name = center;
pos = (148,608);
},
{
name = top;
pos = (294,760);
}
);
layerId = "AC72BA4F-EBEC-4C28-9168-13A8176B9035";
shapes = (
{
closed = 1;
nodes = (
(518,0,l),
(518,332,ls),
(518,475,o),
(459,561,o),
(318,561,cs),
(212,561,o),
(135,504,o),
(130,401,c),
(140,292,l),
(140,430,o),
(203,501,o),
(307,501,cs),
(402,501,o),
(450,439,o),
(450,321,cs),
(450,0,l)
);
},
{
closed = 1;
nodes = (
(140,0,l),
(140,760,l),
(72,760,l),
(72,0,l)
);
}
);
userData = {
com.hugojourdan.ColorFlow = {
"0" = 0;
"1" = 0;
"10" = 0;
"11" = 0;
"2" = 0;
"3" = 0;
"4" = 0;
"5" = 0;
"6" = 0;
"7" = 0;
"8" = 0;
"9" = 0;
};
};
width = 586;
},
{
anchors = (
{
name = bottom;
pos = (304,0);
},
{
name = center;
pos = (153,609);
},
{
name = top;
pos = (150,762);
}
);
layerId = "BC57D14F-D7AD-4877-A02E-2DA2D5328E1F";
shapes = (
{
closed = 1;
nodes = (
(552,0,l),
(552,359,ls),
(552,491,o),
(492,572,o),
(362,572,cs),
(264,572,o),
(195,518,o),
(190,428,c),
(195,317,l),
(195,408,o),
(238,457,o),
(311,457,cs),
(381,457,o),
(417,415,o),
(417,333,cs),
(417,0,l)
);
},
{
closed = 1;
nodes = (
(195,0,l),
(195,760,l),
(60,760,l),
(60,0,l)
);
}
);
userData = {
com.hugojourdan.ColorFlow = {
"0" = 0;
"1" = 0;
"10" = 0;
"11" = 0;
"2" = 0;
"3" = 0;
"4" = 0;
"5" = 0;
"6" = 0;
"7" = 0;
"8" = 0;
"9" = 0;
};
};
width = 609;
}
);
metricLeft = l;
metricRight = n;
unicode = 104;
userData = {
KernOnName = h;
};
},
{
color = 0;
glyphname = hbar;
kernRight = KO_hbar;
lastChange = "2025-02-06 07:51:02 +0000";
layers = (
{
layerId = "AC72BA4F-EBEC-4C28-9168-13A8176B9035";
shapes = (
{
ref = h;
},
{
closed = 1;
nodes = (
(-8,675,l),
(-8,615,l),
(277,615,l),
(277,675,l)
);
}
);
userData = {
com.hugojourdan.ColorFlow = {
"0" = 0;
"1" = 0;
"10" = 0;
"11" = 0;
"2" = 0;
"3" = 0;
"4" = 0;
"5" = 0;
"6" = 0;
"7" = 0;
"8" = 0;
"9" = 0;
};
};
width = 604;
},
{
layerId = "BC57D14F-D7AD-4877-A02E-2DA2D5328E1F";
shapes = (
{
alignment = -1;
ref = h;
},
{
closed = 1;
nodes = (
(-8,699,l),
(-8,591,l),
(289,591,l),
(289,699,l)
);
}
);
userData = {
com.hugojourdan.ColorFlow = {
"0" = 0;
"1" = 0;
"10" = 0;
"11" = 0;
"2" = 0;
"3" = 0;
"4" = 0;
"5" = 0;
"6" = 0;
"7" = 0;
"8" = 0;
"9" = 0;
};
};
width = 615;
}
);
unicode = 295;
},
{
glyphname = idotless;
kernLeft = KO_r;
kernRight = KO_g;
lastChange = "2025-02-06 07:51:02 +0000";
layers = (
{
anchors = (
{
name = bottom;
pos = (106,0);
},
{
name = ogonek;
pos = (153,0);
},
{
name = top;
pos = (106,546);
}
);
layerId = "AC72BA4F-EBEC-4C28-9168-13A8176B9035";
shapes = (
{
closed = 1;
nodes = (
(140,0,l),
(140,546,l),
(72,546,l),
(72,0,l)
);
}
);
userData = {
com.hugojourdan.ColorFlow = {
"0" = 0;
"1" = 0;
"10" = 0;
"11" = 0;
"2" = 0;
"3" = 0;
"4" = 0;
"5" = 0;
"6" = 0;
"7" = 0;
"8" = 0;
"9" = 0;
};
};
width = 212;
},
{
anchors = (
{
name = bottom;
pos = (127,0);
},
{
name = ogonek;
pos = (206,0);
},
{
name = top;
pos = (127,560);
}
);
layerId = "BC57D14F-D7AD-4877-A02E-2DA2D5328E1F";
shapes = (
{
closed = 1;
nodes = (
(195,0,l),
(195,560,l),
(60,560,l),
(60,0,l)
);
}
);
userData = {
com.hugojourdan.ColorFlow = {
"0" = 0;
"1" = 0;
"10" = 0;
"11" = 0;
"2" = 0;
"3" = 0;
"4" = 0;
"5" = 0;
"6" = 0;
"7" = 0;
"8" = 0;
"9" = 0;
};
};
width = 255;
}
);
metricLeft = l;
metricRight = "=|";
unicode = 305;
},
{
glyphname = iogonek;
kernLeft = KO_i;
kernRight = KO_i;
lastChange = "2025-02-06 07:51:02 +0000";
layers = (
{
background = {
anchors = (
{
name = _ogonek;
pos = (153,0);
}
);
};
layerId = "AC72BA4F-EBEC-4C28-9168-13A8176B9035";
shapes = (
{
ref = idotless;
},
{
pos = (-195,0);
ref = dotaccentcomb;
},
{
closed = 1;
nodes = (
(110,-215,o),
(130,-212,o),
(153,-201,c),
(153,-140,l),
(130,-152,o),
(117,-155,o),
(103,-155,c),
(74,-155,o),
(54,-139,o),
(54,-113,cs),
(54,-82,o),
(76,-58,o),
(115,-23,cs),
(140,0,l),
(72,0,l),
(54,-16,ls),
(15,-50,o),
(-9,-82,o),
(-9,-130,cs),
(-9,-181,o),
(30,-215,o),
(85,-215,c)
);
}
);
userData = {
com.hugojourdan.ColorFlow = {
"0" = 0;
"1" = 0;
"10" = 0;
"11" = 0;
"2" = 0;
"3" = 0;
"4" = 0;
"5" = 0;
"6" = 0;
"7" = 0;
"8" = 0;
"9" = 0;
};
};
width = 212;
},
{
layerId = "BC57D14F-D7AD-4877-A02E-2DA2D5328E1F";
shapes = (
{
alignment = -1;
ref = idotless;
},
{
alignment = -1;
pos = (-174,0);
ref = dotaccentcomb;
},
{
closed = 1;
nodes = (
(164,-215,o),
(184,-211,o),
(207,-202,c),
(207,-125,l),
(184,-137,o),
(171,-139,o),
(157,-139,c),
(134,-139,o),
(115,-126,o),
(115,-104,cs),
(115,-77,o),
(134,-54,o),
(169,-23,cs),
(195,0,l),
(110,0,l),
(93,-14,ls),
(51,-49,o),
(27,-85,o),
(27,-129,cs),
(27,-182,o),
(66,-215,o),
(134,-215,c)
);
}
);
userData = {
com.hugojourdan.ColorFlow = {
"0" = 0;
"1" = 0;
"10" = 0;
"11" = 0;
"2" = 0;
"3" = 0;
"4" = 0;
"5" = 0;
"6" = 0;
"7" = 0;
"8" = 0;
"9" = 0;
};
};
width = 255;
}
);
unicode = 303;
},
{
glyphname = jdotless;
kernLeft = KO_j;
lastChange = "2025-02-06 07:51:02 +0000";
layers = (
{
anchors = (
{
name = bottom;
pos = (109,-220);
},
{
name = top;
pos = (109,546);
}
);
layerId = "AC72BA4F-EBEC-4C28-9168-13A8176B9035";
shapes = (
{
closed = 1;
nodes = (
(29,-215,ls),
(109,-215,o),
(141,-178,o),
(141,-106,cs),
(141,546,l),
(73,546,l),
(73,-102,ls),
(73,-141,o),
(54,-155,o),
(6,-155,cs),
(-42,-155,l),
(-42,-215,l)
);
}
);
userData = {
com.hugojourdan.ColorFlow = {
"0" = 0;
"1" = 0;
"10" = 0;
"11" = 0;
"2" = 0;
"3" = 0;
"4" = 0;
"5" = 0;
"6" = 0;
"7" = 0;
"8" = 0;
"9" = 0;
};
};
width = 213;
},
{
anchors = (
{
name = bottom;
pos = (133,-220);
},
{
name = top;
pos = (133,552);
}
);
layerId = "BC57D14F-D7AD-4877-A02E-2DA2D5328E1F";
shapes = (
{
closed = 1;
nodes = (
(45,-215,ls),
(161,-215,o),
(201,-164,o),
(201,-63,cs),
(201,560,l),
(66,560,l),
(66,-46,ls),
(66,-84,o),
(50,-100,o),
(9,-100,cs),
(-33,-100,l),
(-33,-215,l)
);
}
);
userData = {
com.hugojourdan.ColorFlow = {
"0" = 0;
"1" = 0;
"10" = 0;
"11" = 0;
"2" = 0;
"3" = 0;
"4" = 0;
"5" = 0;
"6" = 0;
"7" = 0;
"8" = 0;
"9" = 0;
};
};
width = 261;
}
);
metricRight = idotless;
unicode = 567;
},
{
glyphname = k;
kernLeft = KO_i;
kernRight = KO_k;
layers = (
{
anchors = (
{
name = bottom;
pos = (264,0);
},
{
name = top;
pos = (107,760);
}
);
layerId = "AC72BA4F-EBEC-4C28-9168-13A8176B9035";
shapes = (
{
closed = 1;
nodes = (
(486,0,l),
(208,300,l),
(208,286,l),
(465,546,l),
(375,546,l),
(116,284,l),
(120,295,l),
(394,-1,l)
);
},
{
closed = 1;
nodes = (
(140,0,l),
(140,760,l),
(72,760,l),
(72,0,l)
);
}
);
userData = {
com.hugojourdan.ColorFlow = {
"0" = 0;
"1" = 0;
"10" = 0;
"11" = 0;
"2" = 0;
"3" = 0;
"4" = 0;
"5" = 0;
"6" = 0;
"7" = 0;
"8" = 0;
"9" = 0;
};
};
width = 521;
},
{
anchors = (
{
name = bottom;
pos = (289,0);
},
{
name = top;
pos = (145,762);
}
);
layerId = "BC57D14F-D7AD-4877-A02E-2DA2D5328E1F";
shapes = (
{
closed = 1;
nodes = (
(552,0,l),
(308,319,l),
(308,301,l),
(527,560,l),
(362,560,l),
(158,300,l),
(162,311,l),
(381,0,l)
);
},
{
closed = 1;
nodes = (
(195,0,l),
(195,760,l),
(60,760,l),
(60,0,l)
);
}
);
userData = {
com.hugojourdan.ColorFlow = {
"0" = 0;
"1" = 0;
"10" = 0;
"11" = 0;
"2" = 0;
"3" = 0;
"4" = 0;
"5" = 0;
"6" = 0;
"7" = 0;
"8" = 0;
"9" = 0;
};
};
width = 570;
}
);
metricLeft = l;
unicode = 107;
userData = {
KernOnName = k;
};
},
{
color = 2;
glyphname = l;
kernLeft = KO_l;
kernRight = KO_l;
layers = (
{
anchors = (
{
name = bottom;
pos = (130,0);
},
{
name = center;
pos = (130,273);
},
{
name = top;
pos = (130,760);
},
{
name = topright;
pos = (238,760);
}
);
layerId = "AC72BA4F-EBEC-4C28-9168-13A8176B9035";
shapes = (
{
closed = 1;
nodes = (
(228,0,l),
(228,53,l),
(184,53,ls),
(155,53,o),
(139,69,o),
(139,98,cs),
(139,760,l),
(72,760,l),
(72,108,ls),
(72,39,o),
(111,0,o),
(181,0,cs)
);
}
);
userData = {
com.hugojourdan.ColorFlow = {
"0" = 0;
"1" = 0;
"10" = 0;
"11" = 0;
"2" = 0;
"3" = 0;
"4" = 0;
"5" = 0;
"6" = 0;
"7" = 0;
"8" = 0;
"9" = 0;
};
};
width = 260;
},
{
anchors = (
{
name = bottom;
pos = (150,0);
},
{
name = center;
pos = (150,281);
},
{
name = top;
pos = (129,759);
},
{
name = topright;
pos = (283,759);
}
);
layerId = "BC57D14F-D7AD-4877-A02E-2DA2D5328E1F";
shapes = (
{
closed = 1;
nodes = (
(284,0,l),
(284,110,l),
(241,110,ls),
(213,110,o),
(196,126,o),
(196,155,cs),
(196,760,l),
(60,760,l),
(60,140,ls),
(60,51,o),
(109,0,o),
(200,0,cs)
);
}
);
userData = {
com.hugojourdan.ColorFlow = {
"0" = 0;
"1" = 0;
"10" = 0;
"11" = 0;
"2" = 0;
"3" = 0;
"4" = 0;
"5" = 0;
"6" = 0;
"7" = 0;
"8" = 0;
"9" = 0;
};
};
width = 306;
}
);
unicode = 108;
userData = {
KernOnName = l;
};
},
{
color = 2;
glyphname = lslash;
kernLeft = KO_lslash;
kernRight = KO_lslash;
layers = (
{
anchors = (
{
name = bottom;
pos = (124,0);
},
{
name = center;
pos = (124,273);
},
{
name = top;
pos = (124,750);
},
{
name = topright;
pos = (226,750);
}
);
layerId = "AC72BA4F-EBEC-4C28-9168-13A8176B9035";
shapes = (
{
closed = 1;
nodes = (
(234,0,l),
(234,53,l),
(190,53,ls),
(161,53,o),
(145,69,o),
(145,98,cs),
(145,772,l),
(78,772,l),
(78,108,ls),
(78,39,o),
(117,0,o),
(187,0,cs)
);
},
{
closed = 1;
nodes = (
(213,496,l),
(-24,353,l),
(12,293,l),
(249,436,l)
);
},
{
closed = 1;
nodes = (
(213,496,l),
(-24,353,l),
(12,293,l),
(249,436,l)
);
}
);
userData = {
com.hugojourdan.ColorFlow = {
"0" = 0;
"1" = 0;
"10" = 0;
"11" = 0;
"2" = 0;
"3" = 0;
"4" = 0;
"5" = 0;
"6" = 0;
"7" = 0;
"8" = 0;
"9" = 0;
};
};
width = 248;
},
{
anchors = (
{
name = bottom;
pos = (173,0);
},
{
name = center;
pos = (173,281);
},
{
name = top;
pos = (173,750);
},
{
name = topright;
pos = (324,750);
}
);
layerId = "BC57D14F-D7AD-4877-A02E-2DA2D5328E1F";
shapes = (
{
closed = 1;
nodes = (
(304,0,l),
(304,110,l),
(244,110,ls),
(216,110,o),
(199,126,o),
(199,155,cs),
(199,754,l),
(62,754,l),
(62,139,ls),
(62,51,o),
(112,0,o),
(201,0,cs)
);
},
{
closed = 1;
nodes = (
(263,549,l),
(-54,364,l),
(5,261,l),
(323,447,l)
);
},
{
closed = 1;
nodes = (
(263,549,l),
(-54,364,l),
(5,261,l),
(323,447,l)
);
}
);
userData = {
com.hugojourdan.ColorFlow = {
"0" = 0;
"1" = 0;
"10" = 0;
"11" = 0;
"2" = 0;
"3" = 0;
"4" = 0;
"5" = 0;
"6" = 0;
"7" = 0;
"8" = 0;
"9" = 0;
};
};
width = 345;
}
);
unicode = 322;
},
{
glyphname = m;
kernLeft = KO_r;
kernRight = KO_a;
layers = (
{
anchors = (
{
name = bottom;
pos = (412,0);
},
{
name = top;
pos = (412,546);
}
);
background = {
shapes = (
{
closed = 1;
nodes = (
(441,0,l),
(441,397,ls),
(441,506,o),
(385,561,o),
(276,561,cs),
(198,561,o),
(137,515,o),
(124,445,c),
(141,376,l),
(141,457,o),
(189,508,o),
(266,508,cs),
(336,508,o),
(374,465,o),
(374,386,cs),
(374,0,l)
);
}
);
};
layerId = "AC72BA4F-EBEC-4C28-9168-13A8176B9035";
shapes = (
{
closed = 1;
nodes = (
(746,0,l),
(746,387,ls),
(746,502,o),
(690,561,o),
(581,561,cs),
(489,561,o),
(430,510,o),
(417,428,c),
(443,366,l),
(443,458,o),
(489,508,o),
(568,508,cs),
(640,508,o),
(679,462,o),
(679,376,cs),
(679,0,l)
);
},
{
closed = 1;
nodes = (
(140,0,l),
(140,547,l),
(72,547,l),
(72,0,l)
);
},
{
closed = 1;
nodes = (
(443,0,l),
(443,387,ls),
(443,502,o),
(387,561,o),
(278,561,cs),
(183,561,o),
(126,507,o),
(126,428,c),
(140,366,l),
(140,458,o),
(186,508,o),
(265,508,cs),
(337,508,o),
(376,462,o),
(376,376,cs),
(376,0,l)
);
}
);
userData = {
com.hugojourdan.ColorFlow = {
"0" = 0;
"1" = 0;
"10" = 0;
"11" = 0;
"2" = 0;
"3" = 0;
"4" = 0;
"5" = 0;
"6" = 0;
"7" = 0;
"8" = 0;
"9" = 0;
};
};
width = 814;
},
{
anchors = (
{
name = bottom;
pos = (443,0);
},
{
name = top;
pos = (443,560);
}
);
layerId = "BC57D14F-D7AD-4877-A02E-2DA2D5328E1F";
shapes = (
{
closed = 1;
nodes = (
(820,0,l),
(820,376,ls),
(820,511,o),
(757,575,o),
(648,575,cs),
(561,575,o),
(502,523,o),
(490,450,c),
(507,357,l),
(507,423,o),
(543,460,o),
(599,460,cs),
(654,460,o),
(685,425,o),
(685,354,cs),
(685,0,l)
);
},
{
closed = 1;
nodes = (
(195,0,l),
(195,560,l),
(60,560,l),
(60,0,l)
);
},
{
closed = 1;
nodes = (
(507,0,l),
(507,376,ls),
(507,511,o),
(448,575,o),
(343,575,cs),
(252,575,o),
(192,519,o),
(189,448,c),
(195,357,l),
(195,423,o),
(230,460,o),
(286,460,cs),
(342,460,o),
(372,425,o),
(372,354,cs),
(372,0,l)
);
}
);
userData = {
com.hugojourdan.ColorFlow = {
"0" = 0;
"1" = 0;
"10" = 0;
"11" = 0;
"2" = 0;
"3" = 0;
"4" = 0;
"5" = 0;
"6" = 0;
"7" = 0;
"8" = 0;
"9" = 0;
};
};
width = 877;
}
);
metricLeft = l;
metricRight = n;
unicode = 109;
userData = {
KernOnName = m;
};
},
{
glyphname = n;
kernLeft = KO_r;
kernRight = KO_n;
layers = (
{
anchors = (
{
name = bottom;
pos = (283,0);
},
{
name = top;
pos = (283,546);
}
);
layerId = "AC72BA4F-EBEC-4C28-9168-13A8176B9035";
shapes = (
{
closed = 1;
nodes = (
(518,0,l),
(518,332,ls),
(518,475,o),
(459,561,o),
(318,561,cs),
(212,561,o),
(135,504,o),
(130,401,c),
(140,292,l),
(140,430,o),
(203,501,o),
(307,501,cs),
(402,501,o),
(450,439,o),
(450,321,cs),
(450,0,l)
);
},
{
closed = 1;
nodes = (
(140,0,l),
(140,547,l),
(72,547,l),
(72,0,l)
);
}
);
userData = {
com.hugojourdan.ColorFlow = {
"0" = 0;
"1" = 0;
"10" = 0;
"11" = 0;
"2" = 0;
"3" = 0;
"4" = 0;
"5" = 0;
"6" = 0;
"7" = 0;
"8" = 0;
"9" = 0;
};
};
width = 586;
},
{
anchors = (
{
name = bottom;
pos = (295,0);
},
{
name = top;
pos = (295,560);
}
);
layerId = "BC57D14F-D7AD-4877-A02E-2DA2D5328E1F";
shapes = (
{
closed = 1;
nodes = (
(552,0,l),
(552,359,ls),
(552,491,o),
(492,572,o),
(362,572,cs),
(264,572,o),
(195,518,o),
(190,428,c),
(195,317,l),
(195,408,o),
(238,457,o),
(311,457,cs),
(381,457,o),
(417,415,o),
(417,333,cs),
(417,0,l)
);
},
{
closed = 1;
nodes = (
(195,0,l),
(195,560,l),
(60,560,l),
(60,0,l)
);
}
);
userData = {
com.hugojourdan.ColorFlow = {
"0" = 0;
"1" = 0;
"10" = 0;
"11" = 0;
"2" = 0;
"3" = 0;
"4" = 0;
"5" = 0;
"6" = 0;
"7" = 0;
"8" = 0;
"9" = 0;
};
};
width = 609;
}
);
metricLeft = l;
metricRight = "=|*.95";
unicode = 110;
userData = {
KernOnName = n;
};
},
{
color = 0;
glyphname = eng;
kernLeft = KO_r;
kernRight = KO_n;
lastChange = "2025-02-06 07:51:02 +0000";
layers = (
{
anchors = (
{
name = bottom;
pos = (302,-200);
},
{
name = top;
pos = (302,546);
}
);
layerId = "AC72BA4F-EBEC-4C28-9168-13A8176B9035";
shapes = (
{
closed = 1;
nodes = (
(406,-215,ls),
(486,-215,o),
(518,-178,o),
(518,-106,cs),
(518,246,l),
(450,246,l),
(450,-102,ls),
(450,-141,o),
(431,-155,o),
(383,-155,cs),
(335,-155,l),
(335,-215,l)
);
},
{
ref = n;
}
);
userData = {
com.hugojourdan.ColorFlow = {
"0" = 0;
"1" = 0;
"10" = 0;
"11" = 0;
"2" = 0;
"3" = 0;
"4" = 0;
"5" = 0;
"6" = 0;
"7" = 0;
"8" = 0;
"9" = 0;
};
};
width = 586;
},
{
anchors = (
{
name = bottom;
pos = (306,-213);
},
{
name = top;
pos = (306,560);
}
);
layerId = "BC57D14F-D7AD-4877-A02E-2DA2D5328E1F";
shapes = (
{
closed = 1;
nodes = (
(396,-215,ls),
(511,-215,o),
(552,-164,o),
(552,-64,cs),
(552,201,l),
(417,201,l),
(417,-46,ls),
(417,-85,o),
(401,-100,o),
(360,-100,cs),
(316,-100,l),
(316,-215,l)
);
},
{
alignment = -1;
ref = n;
}
);
userData = {
com.hugojourdan.ColorFlow = {
"0" = 0;
"1" = 0;
"10" = 0;
"11" = 0;
"2" = 0;
"3" = 0;
"4" = 0;
"5" = 0;
"6" = 0;
"7" = 0;
"8" = 0;
"9" = 0;
};
};
width = 609;
}
);
metricLeft = n;
metricRight = n;
unicode = 331;
},
{
glyphname = o;
kernLeft = KO_e;
kernRight = KO_o;
layers = (
{
anchors = (
{
name = bottom;
pos = (285,0);
},
{
name = center;
pos = (285,273);
},
{
name = ogonek;
pos = (511,10);
},
{
name = top;
pos = (285,546);
},
{
name = topright;
pos = (547,546);
}
);
background = {
shapes = (
{
closed = 1;
nodes = (
(426,-15,o),
(516,97,o),
(516,273,cs),
(516,449,o),
(426,561,o),
(283,561,cs),
(141,561,o),
(49,449,o),
(49,273,cs),
(49,97,o),
(141,-15,o),
(283,-15,c)
);
},
{
closed = 1;
nodes = (
(179,45,o),
(119,137,o),
(119,273,cs),
(119,409,o),
(173,501,o),
(283,501,cs),
(393,501,o),
(446,409,o),
(446,273,cs),
(446,137,o),
(393,45,o),
(283,45,c)
);
}
);
};
layerId = "AC72BA4F-EBEC-4C28-9168-13A8176B9035";
shapes = (
{
closed = 1;
nodes = (
(434,-15,o),
(527,97,o),
(527,273,cs),
(527,449,o),
(434,561,o),
(285,561,cs),
(137,561,o),
(42,449,o),
(42,273,cs),
(42,97,o),
(137,-15,o),
(285,-15,c)
);
},
{
closed = 1;
nodes = (
(175,45,o),
(112,137,o),
(112,273,cs),
(112,409,o),
(169,501,o),
(285,501,cs),
(401,501,o),
(457,409,o),
(457,273,cs),
(457,137,o),
(401,45,o),
(285,45,c)
);
}
);
userData = {
com.hugojourdan.ColorFlow = {
"0" = 0;
"1" = 0;
"10" = 0;
"11" = 0;
"2" = 0;
"3" = 0;
"4" = 0;
"5" = 0;
"6" = 0;
"7" = 0;
"8" = 0;
"9" = 0;
};
};
width = 569;
},
{
anchors = (
{
name = bottom;
pos = (290,0);
},
{
name = center;
pos = (290,276);
},
{
name = ogonek;
pos = (520,10);
},
{
name = top;
pos = (290,552);
},
{
name = topright;
pos = (558,552);
}
);
layerId = "BC57D14F-D7AD-4877-A02E-2DA2D5328E1F";
shapes = (
{
closed = 1;
nodes = (
(455,-15,o),
(549,106,o),
(549,281,cs),
(549,456,o),
(455,575,o),
(290,575,cs),
(126,575,o),
(30,457,o),
(30,281,cs),
(30,107,o),
(125,-15,o),
(290,-15,c)
);
},
{
closed = 1;
nodes = (
(214,100,o),
(167,160,o),
(167,281,cs),
(167,400,o),
(208,460,o),
(290,460,cs),
(370,460,o),
(412,401,o),
(412,281,cs),
(412,161,o),
(371,100,o),
(290,100,c)
);
}
);
userData = {
com.hugojourdan.ColorFlow = {
"0" = 0;
"1" = 0;
"10" = 0;
"11" = 0;
"2" = 0;
"3" = 0;
"4" = 0;
"5" = 0;
"6" = 0;
"7" = 0;
"8" = 0;
"9" = 0;
};
};
width = 579;
}
);
metricRight = "=|";
unicode = 111;
userData = {
KernOnName = o;
};
},
{
color = 0;
glyphname = oslash;
kernLeft = KO_oslash;
kernRight = KO_oslash;
lastChange = "2025-02-06 07:51:02 +0000";
layers = (
{
background = {
shapes = (
{
attr = {
strokeHeight = 65;
strokeWidth = 65;
};
closed = 1;
nodes = (
(484,538,l),
(24,18,l)
);
},
{
pos = (-29,0);
ref = o;
}
);
};
layerId = "AC72BA4F-EBEC-4C28-9168-13A8176B9035";
shapes = (
{
closed = 1;
nodes = (
(2,40,l),
(462,560,l),
(510,516,l),
(50,-4,l)
);
},
{
pos = (-29,0);
ref = o;
},
{
closed = 1;
nodes = (
(510,516,l),
(462,560,l),
(2,40,l),
(50,-4,l)
);
}
);
userData = {
com.hugojourdan.ColorFlow = {
"0" = 0;
"1" = 0;
"10" = 0;
"11" = 0;
"2" = 0;
"3" = 0;
"4" = 0;
"5" = 0;
"6" = 0;
"7" = 0;
"8" = 0;
"9" = 0;
};
};
width = 482;
},
{
layerId = "BC57D14F-D7AD-4877-A02E-2DA2D5328E1F";
shapes = (
{
closed = 1;
nodes = (
(22,55,l),
(482,574,l),
(559,505,l),
(99,-13,l)
);
},
{
alignment = -1;
ref = o;
},
{
closed = 1;
nodes = (
(559,505,l),
(482,574,l),
(22,55,l),
(99,-13,l)
);
}
);
userData = {
com.hugojourdan.ColorFlow = {
"0" = 0;
"1" = 0;
"10" = 0;
"11" = 0;
"2" = 0;
"3" = 0;
"4" = 0;
"5" = 0;
"6" = 0;
"7" = 0;
"8" = 0;
"9" = 0;
};
};
width = 579;
}
);
unicode = 248;
},
{
color = 0;
glyphname = oe;
kernLeft = KO_e;
kernRight = KO_e;
lastChange = "2025-02-06 07:51:02 +0000";
layers = (
{
anchors = (
{
name = bottom;
pos = (482,0);
},
{
name = top;
pos = (482,546);
}
);
background = {
shapes = (
{
ref = o;
},
{
alignment = -1;
pos = (415,0);
ref = e;
}
);
};
layerId = "AC72BA4F-EBEC-4C28-9168-13A8176B9035";
shapes = (
{
closed = 1;
nodes = (
(434,-15,o),
(521,97,o),
(521,273,cs),
(521,449,o),
(434,561,o),
(285,561,cs),
(137,561,o),
(42,449,o),
(42,273,cs),
(42,97,o),
(137,-15,o),
(285,-15,c)
);
},
{
closed = 1;
nodes = (
(175,45,o),
(112,137,o),
(112,273,cs),
(112,409,o),
(169,501,o),
(285,501,cs),
(401,501,o),
(457,409,o),
(457,273,cs),
(457,137,o),
(401,45,o),
(285,45,c)
);
},
{
closed = 1;
nodes = (
(785,-15,o),
(879,12,o),
(916,152,c),
(857,166,l),
(837,79,o),
(772,45,o),
(700,45,cs),
(574,45,o),
(526,121,o),
(526,285,cs),
(526,441,o),
(592,501,o),
(696,501,cs),
(801,501,o),
(852,437,o),
(852,338,cs),
(852,332,o),
(852,324,o),
(851,318,c),
(868,322,l),
(506,322,l),
(506,262,l),
(921,262,l),
(921,292,ls),
(921,470,o),
(836,561,o),
(696,561,cs),
(553,561,o),
(463,450,o),
(463,280,cs),
(463,102,o),
(541,-15,o),
(701,-15,cs)
);
}
);
userData = {
com.hugojourdan.ColorFlow = {
"0" = 0;
"1" = 0;
"10" = 0;
"11" = 0;
"2" = 0;
"3" = 0;
"4" = 0;
"5" = 0;
"6" = 0;
"7" = 0;
"8" = 0;
"9" = 0;
};
};
width = 963;
},
{
anchors = (
{
name = bottom;
pos = (468,0);
},
{
name = top;
pos = (468,560);
}
);
layerId = "BC57D14F-D7AD-4877-A02E-2DA2D5328E1F";
shapes = (
{
closed = 1;
nodes = (
(459,-15,o),
(537,106,o),
(537,281,cs),
(537,456,o),
(459,575,o),
(290,575,cs),
(126,575,o),
(30,457,o),
(30,281,cs),
(30,107,o),
(125,-15,o),
(290,-15,c)
);
},
{
closed = 1;
nodes = (
(214,100,o),
(167,160,o),
(167,281,cs),
(167,400,o),
(208,460,o),
(290,460,cs),
(370,460,o),
(412,401,o),
(412,281,cs),
(412,161,o),
(371,100,o),
(290,100,c)
);
},
{
closed = 1;
nodes = (
(758,-14,o),
(867,16,o),
(900,156,c),
(778,190,l),
(763,119,o),
(724,97,o),
(668,97,cs),
(582,97,o),
(549,156,o),
(549,293,cs),
(549,421,o),
(592,464,o),
(661,464,cs),
(729,464,o),
(762,419,o),
(762,354,cs),
(762,345,o),
(762,334,o),
(761,326,c),
(784,342,l),
(488,342,l),
(488,251,l),
(905,251,l),
(905,295,ls),
(905,484,o),
(804,575,o),
(666,575,cs),
(509,575,o),
(424,465,o),
(424,287,cs),
(424,106,o),
(504,-14,o),
(669,-14,cs)
);
}
);
userData = {
com.hugojourdan.ColorFlow = {
"0" = 0;
"1" = 0;
"10" = 0;
"11" = 0;
"2" = 0;
"3" = 0;
"4" = 0;
"5" = 0;
"6" = 0;
"7" = 0;
"8" = 0;
"9" = 0;
};
};
width = 935;
}
);
metricLeft = o;
metricRight = e;
unicode = 339;
},
{
glyphname = p;
kernLeft = KO_r;
kernRight = KO_o;
layers = (
{
anchors = (
{
name = bottom;
pos = (79,0);
},
{
name = top;
pos = (79,546);
}
);
layerId = "AC72BA4F-EBEC-4C28-9168-13A8176B9035";
shapes = (
{
closed = 1;
nodes = (
(443,-15,o),
(550,78,o),
(550,273,cs),
(550,468,o),
(443,561,o),
(318,561,cs),
(222,561,o),
(135,494,o),
(122,385,c),
(73,273,l),
(122,161,l),
(135,52,o),
(222,-15,o),
(318,-15,cs)
);
},
{
closed = 1;
nodes = (
(139,-215,l),
(139,165,l),
(139,382,l),
(139,547,l),
(72,547,l),
(72,-215,l)
);
},
{
closed = 1;
nodes = (
(197,45,o),
(140,145,o),
(140,273,cs),
(140,401,o),
(197,501,o),
(305,501,cs),
(418,501,o),
(482,418,o),
(482,273,cs),
(482,128,o),
(418,45,o),
(305,45,cs)
);
}
);
userData = {
com.hugojourdan.ColorFlow = {
"0" = 0;
"1" = 0;
"10" = 0;
"11" = 0;
"2" = 0;
"3" = 0;
"4" = 0;
"5" = 0;
"6" = 0;
"7" = 0;
"8" = 0;
"9" = 0;
};
};
width = 592;
},
{
anchors = (
{
name = bottom;
pos = (828,0);
},
{
name = top;
pos = (828,552);
}
);
layerId = "BC57D14F-D7AD-4877-A02E-2DA2D5328E1F";
shapes = (
{
closed = 1;
nodes = (
(481,-15,o),
(583,84,o),
(583,281,cs),
(583,478,o),
(480,575,o),
(354,575,cs),
(259,575,o),
(188,512,o),
(182,402,c),
(129,281,l),
(182,159,l),
(188,49,o),
(259,-15,o),
(354,-15,cs)
);
},
{
closed = 1;
nodes = (
(195,-215,l),
(195,169,l),
(195,392,l),
(195,560,l),
(60,560,l),
(60,-215,l)
);
},
{
closed = 1;
nodes = (
(233,103,o),
(196,178,o),
(196,281,cs),
(196,384,o),
(234,458,o),
(317,458,cs),
(402,458,o),
(447,390,o),
(447,281,cs),
(447,170,o),
(401,103,o),
(317,103,cs)
);
}
);
userData = {
com.hugojourdan.ColorFlow = {
"0" = 0;
"1" = 0;
"10" = 0;
"11" = 0;
"2" = 0;
"3" = 0;
"4" = 0;
"5" = 0;
"6" = 0;
"7" = 0;
"8" = 0;
"9" = 0;
};
};
width = 613;
}
);
metricLeft = l;
metricRight = o;
unicode = 112;
},
{
color = 0;
glyphname = thorn;
kernLeft = KO_i;
kernRight = KO_o;
lastChange = "2025-02-06 07:51:02 +0000";
layers = (
{
anchors = (
{
name = bottom;
pos = (-33,0);
},
{
name = top;
pos = (-33,546);
}
);
layerId = "AC72BA4F-EBEC-4C28-9168-13A8176B9035";
shapes = (
{
closed = 1;
nodes = (
(443,-15,o),
(550,78,o),
(550,273,cs),
(550,468,o),
(443,561,o),
(318,561,cs),
(222,561,o),
(135,494,o),
(122,385,c),
(73,273,l),
(122,161,l),
(135,52,o),
(222,-15,o),
(318,-15,cs)
);
},
{
closed = 1;
nodes = (
(139,-215,l),
(139,165,l),
(139,382,l),
(139,760,l),
(72,760,l),
(72,-215,l)
);
},
{
closed = 1;
nodes = (
(197,45,o),
(140,145,o),
(140,273,cs),
(140,401,o),
(197,501,o),
(305,501,cs),
(418,501,o),
(482,418,o),
(482,273,cs),
(482,128,o),
(418,45,o),
(305,45,cs)
);
}
);
userData = {
com.hugojourdan.ColorFlow = {
"0" = 0;
"1" = 0;
"10" = 0;
"11" = 0;
"2" = 0;
"3" = 0;
"4" = 0;
"5" = 0;
"6" = 0;
"7" = 0;
"8" = 0;
"9" = 0;
};
};
width = 592;
},
{
anchors = (
{
name = bottom;
pos = (193,0);
},
{
name = top;
pos = (193,560);
}
);
layerId = "BC57D14F-D7AD-4877-A02E-2DA2D5328E1F";
shapes = (
{
closed = 1;
nodes = (
(481,-15,o),
(582,83,o),
(582,281,cs),
(582,477,o),
(481,575,o),
(353,575,cs),
(260,575,o),
(188,510,o),
(183,402,c),
(128,281,l),
(183,159,l),
(188,52,o),
(259,-15,o),
(353,-15,cs)
);
},
{
closed = 1;
nodes = (
(194,-215,l),
(194,169,l),
(194,392,l),
(194,760,l),
(60,760,l),
(60,-215,l)
);
},
{
closed = 1;
nodes = (
(234,103,o),
(195,177,o),
(195,281,cs),
(195,383,o),
(233,458,o),
(316,458,cs),
(400,458,o),
(446,391,o),
(446,281,cs),
(446,171,o),
(401,103,o),
(316,103,cs)
);
}
);
userData = {
com.hugojourdan.ColorFlow = {
"0" = 0;
"1" = 0;
"10" = 0;
"11" = 0;
"2" = 0;
"3" = 0;
"4" = 0;
"5" = 0;
"6" = 0;
"7" = 0;
"8" = 0;
"9" = 0;
};
};
width = 612;
}
);
metricLeft = p;
metricRight = p;
unicode = 254;
},
{
glyphname = q;
kernLeft = KO_d;
kernRight = KO_g;
layers = (
{
anchors = (
{
name = bottom;
pos = (305,0);
},
{
name = top;
pos = (305,546);
}
);
background = {
shapes = (
{
closed = 1;
nodes = (
(370,-15,o),
(453,52,o),
(465,161,c),
(514,273,l),
(465,385,l),
(453,494,o),
(370,561,o),
(279,561,cs),
(159,561,o),
(62,468,o),
(62,273,cs),
(62,78,o),
(159,-15,o),
(279,-15,cs)
);
},
{
closed = 1;
nodes = (
(186,45,o),
(130,128,o),
(130,273,cs),
(130,418,o),
(186,501,o),
(292,501,cs),
(393,501,o),
(447,401,o),
(447,273,cs),
(447,145,o),
(393,45,o),
(292,45,cs)
);
},
{
closed = 1;
nodes = (
(514,-220,l),
(514,547,l),
(447,547,l),
(447,382,l),
(447,165,l),
(447,-220,l)
);
}
);
};
layerId = "AC72BA4F-EBEC-4C28-9168-13A8176B9035";
shapes = (
{
closed = 1;
nodes = (
(366,-15,o),
(453,52,o),
(466,161,c),
(515,273,l),
(466,385,l),
(453,494,o),
(366,561,o),
(270,561,cs),
(145,561,o),
(38,468,o),
(38,273,cs),
(38,78,o),
(145,-15,o),
(270,-15,cs)
);
},
{
closed = 1;
nodes = (
(170,45,o),
(106,128,o),
(106,273,cs),
(106,418,o),
(170,501,o),
(283,501,cs),
(391,501,o),
(448,401,o),
(448,273,cs),
(448,145,o),
(391,45,o),
(283,45,cs)
);
},
{
closed = 1;
nodes = (
(516,-215,l),
(516,547,l),
(449,547,l),
(449,382,l),
(449,165,l),
(449,-215,l)
);
}
);
userData = {
com.hugojourdan.ColorFlow = {
"0" = 0;
"1" = 0;
"10" = 0;
"11" = 0;
"2" = 0;
"3" = 0;
"4" = 0;
"5" = 0;
"6" = 0;
"7" = 0;
"8" = 0;
"9" = 0;
};
};
width = 588;
},
{
anchors = (
{
name = bottom;
pos = (320,0);
},
{
name = top;
pos = (320,560);
}
);
layerId = "BC57D14F-D7AD-4877-A02E-2DA2D5328E1F";
shapes = (
{
closed = 1;
nodes = (
(351,-15,o),
(422,49,o),
(428,159,c),
(481,281,l),
(428,402,l),
(422,512,o),
(351,575,o),
(256,575,cs),
(130,575,o),
(27,478,o),
(27,281,cs),
(27,84,o),
(129,-15,o),
(256,-15,cs)
);
},
{
closed = 1;
nodes = (
(209,103,o),
(163,170,o),
(163,281,cs),
(163,390,o),
(208,458,o),
(293,458,cs),
(376,458,o),
(414,384,o),
(414,281,cs),
(414,178,o),
(377,103,o),
(293,103,cs)
);
},
{
closed = 1;
nodes = (
(550,-215,l),
(550,560,l),
(415,560,l),
(415,392,l),
(415,169,l),
(415,-215,l)
);
}
);
userData = {
com.hugojourdan.ColorFlow = {
"0" = 0;
"1" = 0;
"10" = 0;
"11" = 0;
"2" = 0;
"3" = 0;
"4" = 0;
"5" = 0;
"6" = 0;
"7" = 0;
"8" = 0;
"9" = 0;
};
};
width = 610;
}
);
metricLeft = d;
metricRight = d;
unicode = 113;
},
{
glyphname = r;
kernLeft = KO_r;
kernRight = KO_r;
layers = (
{
anchors = (
{
name = bottom;
pos = (169,0);
},
{
name = top;
pos = (169,546);
}
);
layerId = "AC72BA4F-EBEC-4C28-9168-13A8176B9035";
shapes = (
{
attr = {
identifier = ID0x7f82b2a65eb0;
};
closed = 1;
nodes = (
(140,0,l),
(140,546,l),
(72,546,l),
(72,0,l)
);
},
{
attr = {
identifier = ID0x7f82b2a65eb0;
};
closed = 1;
nodes = (
(140,447,o),
(171,483,o),
(267,483,cs),
(314,483,l),
(314,548,l),
(267,548,ls),
(178,548,o),
(134,508,o),
(129,416,c),
(140,346,l)
);
}
);
userData = {
com.hugojourdan.ColorFlow = {
"0" = 0;
"1" = 0;
"10" = 0;
"11" = 0;
"2" = 0;
"3" = 0;
"4" = 0;
"5" = 0;
"6" = 0;
"7" = 0;
"8" = 0;
"9" = 0;
};
};
width = 344;
},
{
anchors = (
{
name = bottom;
pos = (198,0);
},
{
name = top;
pos = (198,560);
}
);
layerId = "BC57D14F-D7AD-4877-A02E-2DA2D5328E1F";
shapes = (
{
attr = {
identifier = ID0x7f82b2a65eb0;
};
closed = 1;
nodes = (
(195,0,l),
(195,560,l),
(60,560,l),
(60,0,l)
);
},
{
attr = {
identifier = ID0x7f82b2a65eb0;
};
closed = 1;
nodes = (
(195,392,o),
(226,432,o),
(312,432,cs),
(373,432,l),
(373,563,l),
(323,563,ls),
(240,563,o),
(201,522,o),
(191,436,c),
(195,279,l)
);
}
);
userData = {
com.hugojourdan.ColorFlow = {
"0" = 0;
"1" = 0;
"10" = 0;
"11" = 0;
"2" = 0;
"3" = 0;
"4" = 0;
"5" = 0;
"6" = 0;
"7" = 0;
"8" = 0;
"9" = 0;
};
};
width = 393;
}
);
metricLeft = n;
unicode = 114;
userData = {
KernOnName = r;
};
},
{
glyphname = s;
kernLeft = KO_s;
kernRight = KO_s;
lastChange = "2025-02-06 07:51:02 +0000";
layers = (
{
anchors = (
{
name = bottom;
pos = (237,0);
},
{
name = top;
pos = (237,546);
}
);
layerId = "AC72BA4F-EBEC-4C28-9168-13A8176B9035";
shapes = (
{
attr = {
identifier = ID0x7faff9e44910;
};
closed = 1;
nodes = (
(365,-15,o),
(446,49,o),
(446,149,cs),
(446,235,o),
(381,283,o),
(258,311,cs),
(159,333,o),
(128,367,o),
(128,422,cs),
(128,471,o),
(175,501,o),
(239,501,cs),
(303,501,o),
(357,477,o),
(374,391,c),
(435,409,l),
(414,520,o),
(348,561,o),
(239,561,cs),
(131,561,o),
(58,501,o),
(58,414,cs),
(58,338,o),
(106,280,o),
(221,254,cs),
(332,229,o),
(376,197,o),
(376,135,cs),
(376,83,o),
(326,45,o),
(252,45,cs),
(173,45,o),
(110,78,o),
(97,157,c),
(35,140,l),
(57,32,o),
(134,-15,o),
(249,-15,cs)
);
}
);
userData = {
com.hugojourdan.ColorFlow = {
"0" = 0;
"1" = 0;
"10" = 0;
"11" = 0;
"2" = 0;
"3" = 0;
"4" = 0;
"5" = 0;
"6" = 0;
"7" = 0;
"8" = 0;
"9" = 0;
};
};
width = 481;
},
{
anchors = (
{
name = bottom;
pos = (245,0);
},
{
name = top;
pos = (245,560);
}
);
layerId = "BC57D14F-D7AD-4877-A02E-2DA2D5328E1F";
shapes = (
{
attr = {
identifier = ID0x7faff9e44910;
};
closed = 1;
nodes = (
(393,-15,o),
(475,51,o),
(475,166,cs),
(475,265,o),
(414,323,o),
(288,348,cs),
(200,365,o),
(173,386,o),
(173,423,cs),
(173,456,o),
(204,477,o),
(247,477,cs),
(298,477,o),
(333,458,o),
(349,398,c),
(471,441,l),
(442,534,o),
(368,575,o),
(248,575,cs),
(122,575,o),
(36,507,o),
(36,405,cs),
(36,315,o),
(97,250,o),
(215,230,cs),
(312,213,o),
(340,192,o),
(340,147,cs),
(340,113,o),
(305,83,o),
(256,83,cs),
(198,83,o),
(156,110,o),
(145,171,c),
(19,137,l),
(42,38,o),
(126,-15,o),
(255,-15,cs)
);
}
);
userData = {
com.hugojourdan.ColorFlow = {
"0" = 0;
"1" = 0;
"10" = 0;
"11" = 0;
"2" = 0;
"3" = 0;
"4" = 0;
"5" = 0;
"6" = 0;
"7" = 0;
"8" = 0;
"9" = 0;
};
};
width = 494;
}
);
metricRight = "=|";
unicode = 115;
},
{
color = 0;
glyphname = germandbls;
kernRight = KO_germandbls;
lastChange = "2025-02-06 07:51:02 +0000";
layers = (
{
layerId = "AC72BA4F-EBEC-4C28-9168-13A8176B9035";
shapes = (
{
attr = {
identifier = ID0x159985ed0;
};
closed = 1;
nodes = (
(508,-4,o),
(576,100,o),
(576,215,cs),
(576,339,o),
(500,421,o),
(394,423,c),
(401,417,l),
(472,429,o),
(517,493,o),
(517,592,cs),
(517,703,o),
(436,775,o),
(309,775,cs),
(185,775,o),
(90,700,o),
(90,554,cs),
(90,0,l),
(158,0,l),
(158,538,ls),
(158,668,o),
(224,715,o),
(312,715,cs),
(398,715,o),
(449,667,o),
(449,584,cs),
(449,496,o),
(406,447,o),
(317,447,cs),
(272,447,l),
(272,387,l),
(312,387,ls),
(440,387,o),
(508,334,o),
(508,213,cs),
(508,130,o),
(466,56,o),
(353,56,cs),
(312,56,o),
(273,62,o),
(219,94,c),
(219,25,l),
(263,3,o),
(306,-4,o),
(351,-4,cs)
);
}
);
userData = {
com.hugojourdan.ColorFlow = {
"0" = 0;
"1" = 0;
"10" = 0;
"11" = 0;
"2" = 0;
"3" = 0;
"4" = 0;
"5" = 0;
"6" = 0;
"7" = 0;
"8" = 0;
"9" = 0;
};
};
width = 621;
},
{
layerId = "BC57D14F-D7AD-4877-A02E-2DA2D5328E1F";
shapes = (
{
attr = {
identifier = ID0x159985ed0;
};
closed = 1;
nodes = (
(505,-3,o),
(594,87,o),
(594,216,cs),
(594,316,o),
(534,390,o),
(441,404,c),
(437,399,l),
(513,417,o),
(553,478,o),
(553,561,cs),
(553,697,o),
(457,775,o),
(321,775,cs),
(174,775,o),
(64,702,o),
(64,528,cs),
(64,0,l),
(201,0,l),
(201,531,ls),
(201,617,o),
(239,660,o),
(313,660,cs),
(375,660,o),
(416,625,o),
(416,559,cs),
(416,494,o),
(388,456,o),
(315,456,cs),
(269,456,l),
(269,341,l),
(330,341,ls),
(417,341,o),
(458,301,o),
(458,220,cs),
(458,157,o),
(421,111,o),
(349,111,cs),
(311,111,o),
(272,123,o),
(247,138,c),
(247,19,l),
(279,5,o),
(315,-3,o),
(364,-3,cs)
);
}
);
userData = {
com.hugojourdan.ColorFlow = {
"0" = 0;
"1" = 0;
"10" = 0;
"11" = 0;
"2" = 0;
"3" = 0;
"4" = 0;
"5" = 0;
"6" = 0;
"7" = 0;
"8" = 0;
"9" = 0;
};
};
width = 626;
}
);
metricLeft = H;
metricRight = B;
unicode = 223;
},
{
glyphname = t;
kernLeft = KO_t;
kernRight = KO_t;
lastChange = "2025-02-06 07:51:02 +0000";
layers = (
{
anchors = (
{
name = bottom;
pos = (199,0);
},
{
name = center;
pos = (199,273);
},
{
name = top;
pos = (199,692);
},
{
name = topright;
pos = (372,772);
}
);
layerId = "AC72BA4F-EBEC-4C28-9168-13A8176B9035";
shapes = (
{
closed = 1;
nodes = (
(339,0,l),
(339,60,l),
(256,60,ls),
(215,60,o),
(199,72,o),
(199,113,cs),
(199,692,l),
(132,692,l),
(132,120,ls),
(132,28,o),
(163,0,o),
(252,0,cs)
);
},
{
closed = 1;
nodes = (
(339,486,l),
(339,546,l),
(27,546,l),
(27,486,l)
);
}
);
userData = {
com.hugojourdan.ColorFlow = {
"0" = 0;
"1" = 0;
"10" = 0;
"11" = 0;
"2" = 0;
"3" = 0;
"4" = 0;
"5" = 0;
"6" = 0;
"7" = 0;
"8" = 0;
"9" = 0;
};
};
width = 391;
},
{
anchors = (
{
name = bottom;
pos = (204,0);
},
{
name = center;
pos = (204,281);
},
{
name = top;
pos = (204,704);
},
{
name = topright;
pos = (386,772);
}
);
layerId = "BC57D14F-D7AD-4877-A02E-2DA2D5328E1F";
shapes = (
{
closed = 1;
nodes = (
(367,0,l),
(367,115,l),
(294,115,ls),
(260,115,o),
(245,129,o),
(245,168,cs),
(245,704,l),
(110,704,l),
(110,154,ls),
(110,42,o),
(143,0,o),
(269,0,cs)
);
},
{
closed = 1;
nodes = (
(367,445,l),
(367,560,l),
(22,560,l),
(22,445,l)
);
}
);
userData = {
com.hugojourdan.ColorFlow = {
"0" = 0;
"1" = 0;
"10" = 0;
"11" = 0;
"2" = 0;
"3" = 0;
"4" = 0;
"5" = 0;
"6" = 0;
"7" = 0;
"8" = 0;
"9" = 0;
};
};
width = 407;
}
);
unicode = 116;
userData = {
KernOnName = t;
};
},
{
glyphname = u;
kernLeft = KO_u;
kernRight = KO_u;
layers = (
{
anchors = (
{
name = bottom;
pos = (274,0);
},
{
name = ogonek;
pos = (397,10);
},
{
name = top;
pos = (274,546);
},
{
name = topright;
pos = (523,546);
}
);
layerId = "AC72BA4F-EBEC-4C28-9168-13A8176B9035";
shapes = (
{
closed = 1;
nodes = (
(401,-15,o),
(490,59,o),
(490,228,cs),
(490,546,l),
(422,546,l),
(422,219,ls),
(422,93,o),
(359,45,o),
(274,45,cs),
(188,45,o),
(124,93,o),
(124,219,cs),
(124,546,l),
(57,546,l),
(57,228,ls),
(57,59,o),
(146,-15,o),
(274,-15,cs)
);
}
);
userData = {
com.hugojourdan.ColorFlow = {
"0" = 0;
"1" = 0;
"10" = 0;
"11" = 0;
"2" = 0;
"3" = 0;
"4" = 0;
"5" = 0;
"6" = 0;
"7" = 0;
"8" = 0;
"9" = 0;
};
};
width = 547;
},
{
anchors = (
{
name = bottom;
pos = (276,0);
},
{
name = ogonek;
pos = (408,10);
},
{
name = top;
pos = (276,560);
},
{
name = topright;
pos = (534,560);
}
);
layerId = "BC57D14F-D7AD-4877-A02E-2DA2D5328E1F";
shapes = (
{
closed = 1;
nodes = (
(416,-15,o),
(515,62,o),
(515,237,cs),
(515,560,l),
(379,560,l),
(379,218,ls),
(379,139,o),
(337,100,o),
(276,100,cs),
(216,100,o),
(171,137,o),
(171,218,cs),
(171,560,l),
(36,560,l),
(36,237,ls),
(36,64,o),
(134,-15,o),
(276,-15,cs)
);
}
);
userData = {
com.hugojourdan.ColorFlow = {
"0" = 0;
"1" = 0;
"10" = 0;
"11" = 0;
"2" = 0;
"3" = 0;
"4" = 0;
"5" = 0;
"6" = 0;
"7" = 0;
"8" = 0;
"9" = 0;
};
};
width = 551;
}
);
metricRight = "=|";
unicode = 117;
userData = {
KernOnName = u;
};
},
{
glyphname = v;
kernLeft = KO_y;
kernRight = KO_y;
layers = (
{
anchors = (
{
name = bottom;
pos = (251,0);
},
{
name = top;
pos = (251,546);
}
);
layerId = "AC72BA4F-EBEC-4C28-9168-13A8176B9035";
shapes = (
{
closed = 1;
nodes = (
(288,0,l),
(481,546,l),
(408,546,l),
(248,84,l),
(255,84,l),
(94,546,l),
(20,546,l),
(216,0,l)
);
}
);
userData = {
com.hugojourdan.ColorFlow = {
"0" = 0;
"1" = 0;
"10" = 0;
"11" = 0;
"2" = 0;
"3" = 0;
"4" = 0;
"5" = 0;
"6" = 0;
"7" = 0;
"8" = 0;
"9" = 0;
};
};
width = 501;
},
{
anchors = (
{
name = bottom;
pos = (293,0);
},
{
name = top;
pos = (293,560);
}
);
layerId = "BC57D14F-D7AD-4877-A02E-2DA2D5328E1F";
shapes = (
{
closed = 1;
nodes = (
(380,0,l),
(560,560,l),
(417,560,l),
(278,86,l),
(309,86,l),
(169,560,l),
(27,560,l),
(208,0,l)
);
}
);
userData = {
com.hugojourdan.ColorFlow = {
"0" = 0;
"1" = 0;
"10" = 0;
"11" = 0;
"2" = 0;
"3" = 0;
"4" = 0;
"5" = 0;
"6" = 0;
"7" = 0;
"8" = 0;
"9" = 0;
};
};
width = 587;
}
);
metricRight = "=|";
unicode = 118;
userData = {
KernOnName = v;
};
},
{
glyphname = w;
kernLeft = KO_w;
kernRight = KO_w;
layers = (
{
anchors = (
{
name = bottom;
pos = (328,0);
},
{
name = top;
pos = (328,546);
}
);
layerId = "AC72BA4F-EBEC-4C28-9168-13A8176B9035";
shapes = (
{
closed = 1;
nodes = (
(206,0,l),
(343,464,l),
(317,464,l),
(451,0,l),
(529,0,l),
(636,546,l),
(568,546,l),
(487,91,l),
(489,91,l),
(358,546,l),
(303,546,l),
(168,91,l),
(177,91,l),
(88,546,l),
(20,546,l),
(136,0,l)
);
}
);
userData = {
com.hugojourdan.ColorFlow = {
"0" = 0;
"1" = 0;
"10" = 0;
"11" = 0;
"2" = 0;
"3" = 0;
"4" = 0;
"5" = 0;
"6" = 0;
"7" = 0;
"8" = 0;
"9" = 0;
};
};
width = 656;
},
{
anchors = (
{
name = bottom;
pos = (389,0);
},
{
name = top;
pos = (389,560);
}
);
layerId = "BC57D14F-D7AD-4877-A02E-2DA2D5328E1F";
shapes = (
{
closed = 1;
nodes = (
(302,0,l),
(416,463,l),
(364,463,l),
(473,0,l),
(638,0,l),
(750,560,l),
(618,560,l),
(539,93,l),
(568,93,l),
(457,560,l),
(323,560,l),
(209,93,l),
(239,93,l),
(159,560,l),
(27,560,l),
(138,0,l)
);
}
);
userData = {
com.hugojourdan.ColorFlow = {
"0" = 0;
"1" = 0;
"10" = 0;
"11" = 0;
"2" = 0;
"3" = 0;
"4" = 0;
"5" = 0;
"6" = 0;
"7" = 0;
"8" = 0;
"9" = 0;
};
};
width = 777;
}
);
metricLeft = v;
metricRight = v;
unicode = 119;
userData = {
KernOnName = w;
};
},
{
glyphname = x;
kernLeft = KO_x;
kernRight = KO_x;
layers = (
{
anchors = (
{
name = bottom;
pos = (269,0);
},
{
name = top;
pos = (269,546);
}
);
layerId = "AC72BA4F-EBEC-4C28-9168-13A8176B9035";
shapes = (
{
closed = 1;
nodes = (
(122,0,l),
(273,245,l),
(263,245,l),
(418,0,l),
(499,0,l),
(306,291,l),
(306,282,l),
(479,546,l),
(399,546,l),
(266,331,l),
(273,331,l),
(131,546,l),
(51,546,l),
(232,280,l),
(232,295,l),
(42,0,l)
);
}
);
userData = {
com.hugojourdan.ColorFlow = {
"0" = 0;
"1" = 0;
"10" = 0;
"11" = 0;
"2" = 0;
"3" = 0;
"4" = 0;
"5" = 0;
"6" = 0;
"7" = 0;
"8" = 0;
"9" = 0;
};
};
width = 541;
},
{
anchors = (
{
name = bottom;
pos = (288,0);
},
{
name = top;
pos = (288,560);
}
);
layerId = "BC57D14F-D7AD-4877-A02E-2DA2D5328E1F";
shapes = (
{
closed = 1;
nodes = (
(185,0,l),
(314,256,l),
(267,256,l),
(391,0,l),
(548,0,l),
(371,321,l),
(377,262,l),
(545,560,l),
(389,560,l),
(275,325,l),
(307,325,l),
(184,560,l),
(27,560,l),
(204,261,l),
(210,327,l),
(28,0,l)
);
}
);
userData = {
com.hugojourdan.ColorFlow = {
"0" = 0;
"1" = 0;
"10" = 0;
"11" = 0;
"2" = 0;
"3" = 0;
"4" = 0;
"5" = 0;
"6" = 0;
"7" = 0;
"8" = 0;
"9" = 0;
};
};
width = 575;
}
);
metricRight = "=|";
unicode = 120;
userData = {
KernOnName = x;
};
},
{
glyphname = y;
kernLeft = KO_y;
kernRight = KO_y;
layers = (
{
anchors = (
{
name = bottom;
pos = (251,0);
},
{
name = top;
pos = (251,546);
}
);
layerId = "AC72BA4F-EBEC-4C28-9168-13A8176B9035";
shapes = (
{
closed = 1;
nodes = (
(114,-215,ls),
(193,-215,o),
(234,-187,o),
(255,-125,cs),
(481,546,l),
(408,546,l),
(199,-89,ls),
(184,-136,o),
(165,-155,o),
(117,-155,cs),
(44,-155,l),
(44,-215,l)
);
},
{
closed = 1;
nodes = (
(254,0,l),
(268,90,l),
(94,546,l),
(20,546,l),
(234,0,l)
);
}
);
userData = {
com.hugojourdan.ColorFlow = {
"0" = 0;
"1" = 0;
"10" = 0;
"11" = 0;
"2" = 0;
"3" = 0;
"4" = 0;
"5" = 0;
"6" = 0;
"7" = 0;
"8" = 0;
"9" = 0;
};
};
width = 501;
},
{
anchors = (
{
name = bottom;
pos = (293,0);
},
{
name = top;
pos = (293,560);
}
);
layerId = "BC57D14F-D7AD-4877-A02E-2DA2D5328E1F";
shapes = (
{
closed = 1;
nodes = (
(148,-215,ls),
(257,-215,o),
(296,-187,o),
(328,-95,cs),
(560,560,l),
(417,560,l),
(220,-41,ls),
(206,-83,o),
(185,-101,o),
(142,-101,cs),
(45,-101,l),
(45,-215,l)
);
},
{
closed = 1;
nodes = (
(337,-37,l),
(337,50,l),
(169,560,l),
(27,560,l),
(239,-37,l)
);
}
);
userData = {
com.hugojourdan.ColorFlow = {
"0" = 0;
"1" = 0;
"10" = 0;
"11" = 0;
"2" = 0;
"3" = 0;
"4" = 0;
"5" = 0;
"6" = 0;
"7" = 0;
"8" = 0;
"9" = 0;
};
};
width = 587;
}
);
metricLeft = v;
metricRight = v;
unicode = 121;
userData = {
KernOnName = y;
};
},
{
glyphname = z;
kernLeft = KO_z;
kernRight = KO_z;
layers = (
{
anchors = (
{
name = bottom;
pos = (239,0);
},
{
name = center;
pos = (239,273);
},
{
name = top;
pos = (239,546);
}
);
layerId = "AC72BA4F-EBEC-4C28-9168-13A8176B9035";
shapes = (
{
closed = 1;
nodes = (
(420,0,l),
(420,60,l),
(81,60,l),
(96,31,l),
(421,470,l),
(421,546,l),
(51,546,l),
(51,486,l),
(372,486,l),
(355,495,l),
(41,69,l),
(41,0,l)
);
}
);
userData = {
com.hugojourdan.ColorFlow = {
"0" = 0;
"1" = 0;
"10" = 0;
"11" = 0;
"2" = 0;
"3" = 0;
"4" = 0;
"5" = 0;
"6" = 0;
"7" = 0;
"8" = 0;
"9" = 0;
};
};
width = 462;
},
{
anchors = (
{
name = bottom;
pos = (263,0);
},
{
name = center;
pos = (263,281);
},
{
name = top;
pos = (263,560);
}
);
layerId = "BC57D14F-D7AD-4877-A02E-2DA2D5328E1F";
shapes = (
{
closed = 1;
nodes = (
(472,0,l),
(472,115,l),
(131,115,l),
(146,33,l),
(473,428,l),
(473,560,l),
(56,560,l),
(56,445,l),
(379,445,l),
(362,507,l),
(46,124,l),
(46,0,l)
);
}
);
userData = {
com.hugojourdan.ColorFlow = {
"0" = 0;
"1" = 0;
"10" = 0;
"11" = 0;
"2" = 0;
"3" = 0;
"4" = 0;
"5" = 0;
"6" = 0;
"7" = 0;
"8" = 0;
"9" = 0;
};
};
width = 519;
}
);
metricRight = "=|";
unicode = 122;
userData = {
KernOnName = z;
};
},
{
color = 1;
glyphname = jdotless.ss01;
kernLeft = KO_i;
lastChange = "2025-02-06 07:51:02 +0000";
layers = (
{
anchors = (
{
name = bottom;
pos = (105,-200);
},
{
name = top;
pos = (105,546);
}
);
layerId = "AC72BA4F-EBEC-4C28-9168-13A8176B9035";
shapes = (
{
closed = 1;
nodes = (
(23,-215,ls),
(111,-215,o),
(139,-180,o),
(139,-112,cs),
(139,546,l),
(71,546,l),
(71,-159,l),
(-42,-159,l),
(-42,-215,l)
);
}
);
userData = {
com.hugojourdan.ColorFlow = {
"0" = 0;
"1" = 0;
"10" = 0;
"11" = 0;
"2" = 0;
"3" = 0;
"4" = 0;
"5" = 0;
"6" = 0;
"7" = 0;
"8" = 0;
"9" = 0;
};
};
width = 211;
},
{
anchors = (
{
name = bottom;
pos = (130,-213);
},
{
name = top;
pos = (130,560);
}
);
layerId = "BC57D14F-D7AD-4877-A02E-2DA2D5328E1F";
shapes = (
{
closed = 1;
nodes = (
(89,-215,ls),
(160,-215,o),
(199,-176,o),
(199,-104,cs),
(199,560,l),
(63,560,l),
(63,-105,l),
(-33,-105,l),
(-33,-215,l)
);
}
);
userData = {
com.hugojourdan.ColorFlow = {
"0" = 0;
"1" = 0;
"10" = 0;
"11" = 0;
"2" = 0;
"3" = 0;
"4" = 0;
"5" = 0;
"6" = 0;
"7" = 0;
"8" = 0;
"9" = 0;
};
};
width = 259;
}
);
metricLeft = jdotless;
metricRight = idotless;
},
{
color = 1;
glyphname = l.ss01;
kernLeft = KO_l;
kernRight = KO_l;
layers = (
{
anchors = (
{
name = bottom;
pos = (122,0);
},
{
name = center;
pos = (122,273);
},
{
name = top;
pos = (122,760);
},
{
name = topright;
pos = (221,760);
}
);
layerId = "AC72BA4F-EBEC-4C28-9168-13A8176B9035";
shapes = (
{
closed = 1;
nodes = (
(228,0,l),
(228,53,l),
(140,53,l),
(140,760,l),
(72,760,l),
(72,115,ls),
(72,41,o),
(113,0,o),
(187,0,cs)
);
}
);
userData = {
com.hugojourdan.ColorFlow = {
"0" = 0;
"1" = 0;
"10" = 0;
"11" = 0;
"2" = 0;
"3" = 0;
"4" = 0;
"5" = 0;
"6" = 0;
"7" = 0;
"8" = 0;
"9" = 0;
};
};
width = 260;
},
{
anchors = (
{
name = bottom;
pos = (154,0);
},
{
name = center;
pos = (154,281);
},
{
name = top;
pos = (154,759);
},
{
name = topright;
pos = (287,759);
}
);
layerId = "BC57D14F-D7AD-4877-A02E-2DA2D5328E1F";
shapes = (
{
closed = 1;
nodes = (
(284,0,l),
(284,110,l),
(195,110,l),
(195,760,l),
(60,760,l),
(60,117,ls),
(60,44,o),
(101,0,o),
(175,0,cs)
);
}
);
userData = {
com.hugojourdan.ColorFlow = {
"0" = 0;
"1" = 0;
"10" = 0;
"11" = 0;
"2" = 0;
"3" = 0;
"4" = 0;
"5" = 0;
"6" = 0;
"7" = 0;
"8" = 0;
"9" = 0;
};
};
width = 306;
}
);
metricLeft = l;
metricWidth = l;
},
{
color = 1;
glyphname = m.ss01;
kernLeft = KO_r.ss01;
kernRight = KO_m.ss01;
layers = (
{
anchors = (
{
name = bottom;
pos = (405,0);
},
{
name = top;
pos = (405,546);
}
);
layerId = "AC72BA4F-EBEC-4C28-9168-13A8176B9035";
shapes = (
{
closed = 1;
nodes = (
(140,0,l),
(140,504,l),
(374,504,l),
(374,0,l),
(441,0,l),
(441,504,l),
(675,504,l),
(675,0,l),
(742,0,l),
(742,449,ls),
(742,522,o),
(710,558,o),
(631,558,cs),
(183,558,ls),
(104,558,o),
(72,522,o),
(72,449,cs),
(72,0,l)
);
}
);
userData = {
com.hugojourdan.ColorFlow = {
"0" = 0;
"1" = 0;
"10" = 0;
"11" = 0;
"2" = 0;
"3" = 0;
"4" = 0;
"5" = 0;
"6" = 0;
"7" = 0;
"8" = 0;
"9" = 0;
};
};
width = 810;
},
{
anchors = (
{
name = bottom;
pos = (421,0);
},
{
name = top;
pos = (421,560);
}
);
layerId = "BC57D14F-D7AD-4877-A02E-2DA2D5328E1F";
shapes = (
{
closed = 1;
nodes = (
(196,0,l),
(196,465,l),
(354,465,l),
(354,0,l),
(490,0,l),
(490,465,l),
(648,465,l),
(648,0,l),
(785,0,l),
(785,354,ls),
(785,492,o),
(723,575,o),
(570,575,cs),
(287,575,ls),
(129,575,o),
(60,497,o),
(60,354,cs),
(60,0,l)
);
}
);
userData = {
com.hugojourdan.ColorFlow = {
"0" = 0;
"1" = 0;
"10" = 0;
"11" = 0;
"2" = 0;
"3" = 0;
"4" = 0;
"5" = 0;
"6" = 0;
"7" = 0;
"8" = 0;
"9" = 0;
};
};
width = 842;
}
);
metricLeft = n;
metricRight = n;
},
{
color = 1;
glyphname = n.ss01;
kernLeft = KO_n.ss01;
kernRight = KO_n.ss01;
layers = (
{
anchors = (
{
name = bottom;
pos = (287,0);
},
{
name = top;
pos = (287,546);
}
);
layerId = "AC72BA4F-EBEC-4C28-9168-13A8176B9035";
shapes = (
{
closed = 1;
nodes = (
(136,0,l),
(136,505,l),
(438,505,l),
(438,0,l),
(506,0,l),
(506,451,l),
(506,524,o),
(470,560,o),
(384,560,cs),
(190,560,ls),
(104,559,o),
(68,524,o),
(68,451,cs),
(68,0,l)
);
}
);
userData = {
com.hugojourdan.ColorFlow = {
"0" = 0;
"1" = 0;
"10" = 0;
"11" = 0;
"2" = 0;
"3" = 0;
"4" = 0;
"5" = 0;
"6" = 0;
"7" = 0;
"8" = 0;
"9" = 0;
};
};
width = 574;
},
{
anchors = (
{
name = bottom;
pos = (290,0);
},
{
name = top;
pos = (290,560);
}
);
layerId = "BC57D14F-D7AD-4877-A02E-2DA2D5328E1F";
shapes = (
{
closed = 1;
nodes = (
(182,0,l),
(182,452,l),
(397,452,l),
(397,0,l),
(533,0,l),
(533,316,ls),
(533,476,o),
(451,575,o),
(292,575,cs),
(290,575,ls),
(132,575,o),
(46,475,o),
(46,316,cs),
(45,0,l)
);
}
);
userData = {
com.hugojourdan.ColorFlow = {
"0" = 0;
"1" = 0;
"10" = 0;
"11" = 0;
"2" = 0;
"3" = 0;
"4" = 0;
"5" = 0;
"6" = 0;
"7" = 0;
"8" = 0;
"9" = 0;
};
};
width = 578;
}
);
metricRight = "=|";
},
{
color = 1;
glyphname = r.ss01;
kernLeft = KO_r.ss01;
kernRight = KO_r.ss01;
layers = (
{
anchors = (
{
name = bottom;
pos = (167,0);
},
{
name = top;
pos = (167,546);
}
);
layerId = "AC72BA4F-EBEC-4C28-9168-13A8176B9035";
shapes = (
{
closed = 1;
nodes = (
(140,0,l),
(140,493,l),
(310,493,l),
(310,546,l),
(208,546,ls),
(116,546,o),
(72,500,o),
(72,410,cs),
(72,0,l)
);
}
);
userData = {
com.hugojourdan.ColorFlow = {
"0" = 0;
"1" = 0;
"10" = 0;
"11" = 0;
"2" = 0;
"3" = 0;
"4" = 0;
"5" = 0;
"6" = 0;
"7" = 0;
"8" = 0;
"9" = 0;
};
};
width = 340;
},
{
anchors = (
{
name = bottom;
pos = (180,0);
},
{
name = top;
pos = (180,560);
}
);
layerId = "BC57D14F-D7AD-4877-A02E-2DA2D5328E1F";
shapes = (
{
closed = 1;
nodes = (
(195,0,l),
(195,450,l),
(342,450,l),
(342,560,l),
(230,560,ls),
(102,560,o),
(60,500,o),
(60,380,cs),
(60,0,l)
);
}
);
userData = {
com.hugojourdan.ColorFlow = {
"0" = 0;
"1" = 0;
"10" = 0;
"11" = 0;
"2" = 0;
"3" = 0;
"4" = 0;
"5" = 0;
"6" = 0;
"7" = 0;
"8" = 0;
"9" = 0;
};
};
width = 362;
}
);
metricLeft = n;
metricRight = r;
},
{
glyphname = t.ss01;
kernLeft = KO_t;
kernRight = KO_t.ss01;
lastChange = "2025-02-06 07:51:02 +0000";
layers = (
{
anchors = (
{
name = bottom;
pos = (199,0);
},
{
name = center;
pos = (199,273);
},
{
name = top;
pos = (199,692);
},
{
name = topright;
pos = (372,772);
}
);
layerId = "AC72BA4F-EBEC-4C28-9168-13A8176B9035";
shapes = (
{
closed = 1;
nodes = (
(339,0,l),
(339,60,l),
(200,60,l),
(200,692,l),
(132,692,l),
(132,120,ls),
(132,28,o),
(163,0,o),
(252,0,cs)
);
},
{
closed = 1;
nodes = (
(339,486,l),
(339,546,l),
(27,546,l),
(27,486,l)
);
}
);
userData = {
com.hugojourdan.ColorFlow = {
"0" = 0;
"1" = 0;
"10" = 0;
"11" = 0;
"2" = 0;
"3" = 0;
"4" = 0;
"5" = 0;
"6" = 0;
"7" = 0;
"8" = 0;
"9" = 0;
};
};
width = 391;
},
{
anchors = (
{
name = bottom;
pos = (204,0);
},
{
name = center;
pos = (204,281);
},
{
name = top;
pos = (204,704);
},
{
name = topright;
pos = (386,772);
}
);
layerId = "BC57D14F-D7AD-4877-A02E-2DA2D5328E1F";
shapes = (
{
closed = 1;
nodes = (
(367,0,l),
(367,110,l),
(245,110,l),
(245,704,l),
(109,704,l),
(109,154,ls),
(109,42,o),
(144,0,o),
(264,0,cs)
);
},
{
closed = 1;
nodes = (
(367,446,l),
(367,560,l),
(22,560,l),
(22,446,l)
);
}
);
userData = {
com.hugojourdan.ColorFlow = {
"0" = 0;
"1" = 0;
"10" = 0;
"11" = 0;
"2" = 0;
"3" = 0;
"4" = 0;
"5" = 0;
"6" = 0;
"7" = 0;
"8" = 0;
"9" = 0;
};
};
width = 393;
}
);
},
{
color = 1;
glyphname = u.ss01;
kernLeft = KO_u.ss01;
kernRight = KO_u.ss01;
layers = (
{
anchors = (
{
name = bottom;
pos = (207,0);
},
{
name = ogonek;
pos = (435,10);
},
{
name = top;
pos = (207,546);
},
{
name = topright;
pos = (472,546);
}
);
layerId = "AC72BA4F-EBEC-4C28-9168-13A8176B9035";
shapes = (
{
closed = 1;
nodes = (
(68,115,ls),
(68,29,o),
(110,-14,o),
(210,-14,cs),
(350,-14,ls),
(450,-14,o),
(492,29,o),
(492,115,c),
(492,546,l),
(424,546,l),
(424,41,l),
(136,41,l),
(136,546,l),
(68,546,l)
);
}
);
userData = {
com.hugojourdan.ColorFlow = {
"0" = 0;
"1" = 0;
"10" = 0;
"11" = 0;
"2" = 0;
"3" = 0;
"4" = 0;
"5" = 0;
"6" = 0;
"7" = 0;
"8" = 0;
"9" = 0;
};
};
width = 560;
},
{
anchors = (
{
name = bottom;
pos = (283,0);
},
{
name = ogonek;
pos = (512,10);
},
{
name = top;
pos = (283,560);
},
{
name = topright;
pos = (550,560);
}
);
layerId = "BC57D14F-D7AD-4877-A02E-2DA2D5328E1F";
shapes = (
{
closed = 1;
nodes = (
(54,245,ls),
(55,82,o),
(138,-15,o),
(294,-15,cs),
(296,-15,ls),
(453,-15,o),
(533,84,o),
(533,245,cs),
(533,560,l),
(397,560,l),
(397,109,l),
(190,109,l),
(190,560,l),
(54,560,l)
);
}
);
userData = {
com.hugojourdan.ColorFlow = {
"0" = 0;
"1" = 0;
"10" = 0;
"11" = 0;
"2" = 0;
"3" = 0;
"4" = 0;
"5" = 0;
"6" = 0;
"7" = 0;
"8" = 0;
"9" = 0;
};
};
width = 587;
}
);
metricRight = "=|";
},
{
color = 3;
glyphname = jdotless.ss02;
lastChange = "2025-02-06 07:51:02 +0000";
layers = (
{
anchors = (
{
name = bottom;
pos = (106,-215);
},
{
name = top;
pos = (106,546);
}
);
layerId = "AC72BA4F-EBEC-4C28-9168-13A8176B9035";
shapes = (
{
closed = 1;
nodes = (
(140,-215,l),
(140,546,l),
(73,546,l),
(73,-105,ls),
(73,-144,o),
(55,-158,o),
(8,-158,cs),
(-42,-158,l),
(-42,-215,l)
);
}
);
userData = {
com.hugojourdan.ColorFlow = {
"0" = 0;
"1" = 0;
"10" = 0;
"11" = 0;
"2" = 0;
"3" = 0;
"4" = 0;
"5" = 0;
"6" = 0;
"7" = 0;
"8" = 0;
"9" = 0;
};
};
width = 212;
},
{
anchors = (
{
name = bottom;
pos = (130,-215);
},
{
name = top;
pos = (130,560);
}
);
layerId = "BC57D14F-D7AD-4877-A02E-2DA2D5328E1F";
shapes = (
{
closed = 1;
nodes = (
(201,-215,l),
(201,560,l),
(65,560,l),
(65,-52,ls),
(65,-90,o),
(47,-105,o),
(0,-105,cs),
(-33,-105,l),
(-33,-215,l)
);
}
);
userData = {
com.hugojourdan.ColorFlow = {
"0" = 0;
"1" = 0;
"10" = 0;
"11" = 0;
"2" = 0;
"3" = 0;
"4" = 0;
"5" = 0;
"6" = 0;
"7" = 0;
"8" = 0;
"9" = 0;
};
};
width = 261;
}
);
metricLeft = jdotless;
metricRight = idotless;
},
{
color = 3;
glyphname = l.ss02;
kernLeft = KO_i;
kernRight = KO_l.ss02;
layers = (
{
anchors = (
{
name = bottom;
pos = (121,0);
},
{
name = center;
pos = (121,273);
},
{
name = top;
pos = (121,760);
},
{
name = topright;
pos = (219,760);
}
);
layerId = "AC72BA4F-EBEC-4C28-9168-13A8176B9035";
shapes = (
{
closed = 1;
nodes = (
(227,0,l),
(227,53,l),
(184,53,ls),
(155,53,o),
(139,69,o),
(139,98,cs),
(139,760,l),
(72,760,l),
(72,0,l)
);
}
);
userData = {
com.hugojourdan.ColorFlow = {
"0" = 0;
"1" = 0;
"10" = 0;
"11" = 0;
"2" = 0;
"3" = 0;
"4" = 0;
"5" = 0;
"6" = 0;
"7" = 0;
"8" = 0;
"9" = 0;
};
};
width = 260;
},
{
anchors = (
{
name = bottom;
pos = (201,0);
},
{
name = center;
pos = (201,281);
},
{
name = top;
pos = (201,750);
},
{
name = topright;
pos = (331,750);
}
);
layerId = "BC57D14F-D7AD-4877-A02E-2DA2D5328E1F";
shapes = (
{
closed = 1;
nodes = (
(294,0,l),
(294,110,l),
(241,110,ls),
(213,110,o),
(196,126,o),
(196,155,cs),
(196,760,l),
(60,760,l),
(60,0,l)
);
}
);
userData = {
com.hugojourdan.ColorFlow = {
"0" = 0;
"1" = 0;
"10" = 0;
"11" = 0;
"2" = 0;
"3" = 0;
"4" = 0;
"5" = 0;
"6" = 0;
"7" = 0;
"8" = 0;
"9" = 0;
};
};
width = 306;
}
);
metricLeft = l;
metricWidth = l;
},
{
color = 3;
glyphname = m.ss02;
kernLeft = KO_r;
kernRight = KO_u.ss01;
layers = (
{
anchors = (
{
name = bottom;
pos = (405,0);
},
{
name = top;
pos = (405,546);
}
);
layerId = "AC72BA4F-EBEC-4C28-9168-13A8176B9035";
shapes = (
{
closed = 1;
nodes = (
(140,0,l),
(140,364,ls),
(140,460,o),
(189,504,o),
(260,504,cs),
(328,504,o),
(374,460,o),
(374,364,cs),
(374,0,l),
(441,0,l),
(441,364,ls),
(441,460,o),
(491,504,o),
(566,504,cs),
(630,504,o),
(675,460,o),
(675,364,cs),
(675,0,l),
(742,0,l),
(742,546,l),
(72,546,l),
(72,0,l)
);
}
);
userData = {
com.hugojourdan.ColorFlow = {
"0" = 0;
"1" = 0;
"10" = 0;
"11" = 0;
"2" = 0;
"3" = 0;
"4" = 0;
"5" = 0;
"6" = 0;
"7" = 0;
"8" = 0;
"9" = 0;
};
};
width = 810;
},
{
anchors = (
{
name = bottom;
pos = (421,0);
},
{
name = top;
pos = (421,560);
}
);
layerId = "BC57D14F-D7AD-4877-A02E-2DA2D5328E1F";
shapes = (
{
closed = 1;
nodes = (
(196,0,l),
(196,366,ls),
(196,427,o),
(230,460,o),
(278,460,cs),
(322,460,o),
(354,428,o),
(354,366,cs),
(354,0,l),
(490,0,l),
(490,366,ls),
(490,427,o),
(525,460,o),
(575,460,cs),
(618,460,o),
(648,428,o),
(648,366,cs),
(648,0,l),
(785,0,l),
(785,560,l),
(60,560,l),
(60,0,l)
);
}
);
userData = {
com.hugojourdan.ColorFlow = {
"0" = 0;
"1" = 0;
"10" = 0;
"11" = 0;
"2" = 0;
"3" = 0;
"4" = 0;
"5" = 0;
"6" = 0;
"7" = 0;
"8" = 0;
"9" = 0;
};
};
width = 842;
}
);
metricLeft = n;
metricRight = n;
},
{
color = 3;
glyphname = n.ss02;
kernLeft = KO_u.ss02;
kernRight = KO_n.ss02;
layers = (
{
anchors = (
{
name = bottom;
pos = (287,0);
},
{
name = top;
pos = (287,546);
}
);
layerId = "AC72BA4F-EBEC-4C28-9168-13A8176B9035";
shapes = (
{
closed = 1;
nodes = (
(136,0,l),
(136,332,ls),
(136,447,o),
(188,507,o),
(287,507,cs),
(386,507,o),
(438,447,o),
(438,332,cs),
(438,0,l),
(506,0,l),
(506,546,l),
(68,546,l),
(68,0,l)
);
}
);
userData = {
com.hugojourdan.ColorFlow = {
"0" = 0;
"1" = 0;
"10" = 0;
"11" = 0;
"2" = 0;
"3" = 0;
"4" = 0;
"5" = 0;
"6" = 0;
"7" = 0;
"8" = 0;
"9" = 0;
};
};
width = 574;
},
{
anchors = (
{
name = bottom;
pos = (290,0);
},
{
name = top;
pos = (290,560);
}
);
layerId = "BC57D14F-D7AD-4877-A02E-2DA2D5328E1F";
shapes = (
{
closed = 1;
nodes = (
(182,0,l),
(182,335,ls),
(182,420,o),
(219,466,o),
(289,466,cs),
(358,466,o),
(397,421,o),
(397,335,cs),
(397,0,l),
(533,0,l),
(533,560,l),
(45,560,l),
(45,0,l)
);
}
);
userData = {
com.hugojourdan.ColorFlow = {
"0" = 0;
"1" = 0;
"10" = 0;
"11" = 0;
"2" = 0;
"3" = 0;
"4" = 0;
"5" = 0;
"6" = 0;
"7" = 0;
"8" = 0;
"9" = 0;
};
};
width = 578;
}
);
metricRight = "=|";
},
{
color = 3;
glyphname = r.ss02;
kernLeft = KO_r;
kernRight = KO_r.ss01;
layers = (
{
anchors = (
{
name = bottom;
pos = (167,0);
},
{
name = top;
pos = (167,546);
}
);
layerId = "AC72BA4F-EBEC-4C28-9168-13A8176B9035";
shapes = (
{
closed = 1;
nodes = (
(140,0,l),
(140,408,ls),
(140,471,o),
(158,493,o),
(225,493,cs),
(310,493,l),
(310,546,l),
(72,546,l),
(72,0,l)
);
}
);
userData = {
com.hugojourdan.ColorFlow = {
"0" = 0;
"1" = 0;
"10" = 0;
"11" = 0;
"2" = 0;
"3" = 0;
"4" = 0;
"5" = 0;
"6" = 0;
"7" = 0;
"8" = 0;
"9" = 0;
};
};
width = 340;
},
{
anchors = (
{
name = bottom;
pos = (186,0);
},
{
name = top;
pos = (186,560);
}
);
layerId = "BC57D14F-D7AD-4877-A02E-2DA2D5328E1F";
shapes = (
{
closed = 1;
nodes = (
(196,0,l),
(196,361,ls),
(196,425,o),
(219,450,o),
(282,450,cs),
(358,450,l),
(358,560,l),
(60,560,l),
(60,0,l)
);
}
);
userData = {
com.hugojourdan.ColorFlow = {
"0" = 0;
"1" = 0;
"10" = 0;
"11" = 0;
"2" = 0;
"3" = 0;
"4" = 0;
"5" = 0;
"6" = 0;
"7" = 0;
"8" = 0;
"9" = 0;
};
};
width = 378;
}
);
metricLeft = n;
metricRight = r;
},
{
export = 0;
glyphname = a.ss03;
layers = (
{
anchors = (
{
name = bottom;
pos = (294,0);
},
{
name = ogonek;
pos = (529,10);
},
{
name = top;
pos = (294,546);
}
);
layerId = "AC72BA4F-EBEC-4C28-9168-13A8176B9035";
shapes = (
{
closed = 1;
nodes = (
(366,-15,o),
(453,52,o),
(466,161,c),
(515,273,l),
(466,385,l),
(453,494,o),
(366,561,o),
(270,561,cs),
(145,561,o),
(38,468,o),
(38,273,cs),
(38,78,o),
(145,-15,o),
(270,-15,cs)
);
},
{
closed = 1;
nodes = (
(170,45,o),
(106,128,o),
(106,273,cs),
(106,418,o),
(170,501,o),
(283,501,cs),
(391,501,o),
(448,401,o),
(448,273,cs),
(448,145,o),
(391,45,o),
(283,45,cs)
);
},
{
closed = 1;
nodes = (
(516,0,l),
(516,546,l),
(448,546,l),
(448,382,l),
(448,164,l),
(448,0,l)
);
}
);
userData = {
com.hugojourdan.ColorFlow = {
"0" = 0;
"1" = 0;
"10" = 0;
"11" = 0;
"2" = 0;
"3" = 0;
"4" = 0;
"5" = 0;
"6" = 0;
"7" = 0;
"8" = 0;
"9" = 0;
};
};
width = 588;
},
{
anchors = (
{
name = bottom;
pos = (305,0);
},
{
name = ogonek;
pos = (549,10);
},
{
name = top;
pos = (305,560);
}
);
layerId = "BC57D14F-D7AD-4877-A02E-2DA2D5328E1F";
shapes = (
{
closed = 1;
nodes = (
(352,-15,o),
(423,52,o),
(427,159,c),
(482,281,l),
(427,402,l),
(423,510,o),
(351,575,o),
(257,575,cs),
(129,575,o),
(27,477,o),
(27,281,cs),
(27,83,o),
(129,-15,o),
(257,-15,cs)
);
},
{
closed = 1;
nodes = (
(209,103,o),
(164,171,o),
(164,281,cs),
(164,391,o),
(210,458,o),
(294,458,cs),
(378,458,o),
(415,383,o),
(415,281,cs),
(415,177,o),
(377,103,o),
(294,103,cs)
);
},
{
closed = 1;
nodes = (
(550,0,l),
(550,560,l),
(415,560,l),
(415,390,l),
(415,167,l),
(415,0,l)
);
}
);
userData = {
com.hugojourdan.ColorFlow = {
"0" = 0;
"1" = 0;
"10" = 0;
"11" = 0;
"2" = 0;
"3" = 0;
"4" = 0;
"5" = 0;
"6" = 0;
"7" = 0;
"8" = 0;
"9" = 0;
};
};
width = 610;
}
);
metricLeft = d;
metricRight = d;
},
{
color = 6;
glyphname = f_i;
kernLeft = KO_f;
kernRight = KO_i;
lastChange = "2025-02-06 07:51:02 +0000";
layers = (
{
anchors = (
{
name = bottom_1;
pos = (149,0);
},
{
name = bottom_2;
pos = (446,0);
},
{
name = caret_1;
pos = (297.5,0);
},
{
name = top_1;
pos = (149,760);
},
{
name = top_2;
pos = (446,760);
}
);
layerId = "AC72BA4F-EBEC-4C28-9168-13A8176B9035";
shapes = (
{
closed = 1;
nodes = (
(524,486,l),
(524,546,l),
(204,546,l),
(204,486,l)
);
},
{
alignment = -1;
ref = _f.short;
},
{
alignment = -1;
pos = (383,0);
ref = i;
}
);
userData = {
com.hugojourdan.ColorFlow = {
"0" = 0;
"1" = 0;
"10" = 0;
"11" = 0;
"2" = 0;
"3" = 0;
"4" = 0;
"5" = 0;
"6" = 0;
"7" = 0;
"8" = 0;
"9" = 0;
};
};
width = 595;
},
{
anchors = (
{
name = bottom_1;
pos = (160,0);
},
{
name = bottom_2;
pos = (480,0);
},
{
name = caret_1;
pos = (320,0);
},
{
name = top_1;
pos = (160,760);
},
{
name = top_2;
pos = (480,760);
}
);
layerId = "BC57D14F-D7AD-4877-A02E-2DA2D5328E1F";
shapes = (
{
closed = 1;
nodes = (
(517,446,l),
(517,560,l),
(156,560,l),
(156,446,l)
);
},
{
alignment = -1;
ref = _f.short;
},
{
alignment = -1;
pos = (385,0);
ref = i;
}
);
userData = {
com.hugojourdan.ColorFlow = {
"0" = 0;
"1" = 0;
"10" = 0;
"11" = 0;
"2" = 0;
"3" = 0;
"4" = 0;
"5" = 0;
"6" = 0;
"7" = 0;
"8" = 0;
"9" = 0;
};
};
width = 640;
}
);
metricLeft = f;
metricRight = i;
},
{
glyphname = f_l;
kernLeft = KO_f;
kernRight = KO_l;
lastChange = "2025-02-06 07:51:02 +0000";
layers = (
{
anchors = (
{
name = bottom_1;
pos = (161,0);
},
{
name = bottom_2;
pos = (483,0);
},
{
name = caret_1;
pos = (322,0);
},
{
name = top_1;
pos = (161,760);
},
{
name = top_2;
pos = (483,760);
}
);
layerId = "AC72BA4F-EBEC-4C28-9168-13A8176B9035";
shapes = (
{
closed = 1;
nodes = (
(524,486,l),
(524,546,l),
(204,546,l),
(204,486,l)
);
},
{
alignment = -1;
ref = _f.short;
},
{
alignment = -1;
pos = (384,0);
ref = l;
}
);
userData = {
com.hugojourdan.ColorFlow = {
"0" = 0;
"1" = 0;
"10" = 0;
"11" = 0;
"2" = 0;
"3" = 0;
"4" = 0;
"5" = 0;
"6" = 0;
"7" = 0;
"8" = 0;
"9" = 0;
};
};
width = 644;
},
{
anchors = (
{
name = bottom_1;
pos = (174,0);
},
{
name = bottom_2;
pos = (520,0);
},
{
name = caret_1;
pos = (347,0);
},
{
name = top_1;
pos = (174,760);
},
{
name = top_2;
pos = (520,760);
}
);
layerId = "BC57D14F-D7AD-4877-A02E-2DA2D5328E1F";
shapes = (
{
closed = 1;
nodes = (
(517,446,l),
(517,560,l),
(156,560,l),
(156,446,l)
);
},
{
alignment = -1;
ref = _f.short;
},
{
alignment = -1;
pos = (389,0);
ref = l;
}
);
userData = {
com.hugojourdan.ColorFlow = {
"0" = 0;
"1" = 0;
"10" = 0;
"11" = 0;
"2" = 0;
"3" = 0;
"4" = 0;
"5" = 0;
"6" = 0;
"7" = 0;
"8" = 0;
"9" = 0;
};
};
width = 695;
}
);
metricLeft = f;
metricRight = l;
},
{
color = 0;
glyphname = ordfeminine;
lastChange = "2025-02-06 07:51:02 +0000";
layers = (
{
layerId = "AC72BA4F-EBEC-4C28-9168-13A8176B9035";
shapes = (
{
closed = 1;
nodes = (
(209,500,l),
(209,665,ls),
(209,727,o),
(172,750,o),
(120,750,cs),
(76,750,o),
(42,731,o),
(23,697,c),
(56,673,l),
(67,698,o),
(90,713,o),
(118,713,cs),
(145,713,o),
(165,699,o),
(165,669,cs),
(165,500,l)
);
},
{
closed = 1;
nodes = (
(139,495,o),
(169,519,o),
(170,569,c),
(165,606,l),
(165,557,o),
(142,531,o),
(105,531,cs),
(83,531,o),
(63,541,o),
(63,567,cs),
(63,591,o),
(78,604,o),
(113,610,cs),
(171,620,l),
(171,654,l),
(109,644,ls),
(47,634,o),
(20,607,o),
(20,564,cs),
(20,524,o),
(47,495,o),
(94,495,cs)
);
}
);
userData = {
com.hugojourdan.ColorFlow = {
"0" = 0;
"1" = 0;
"10" = 0;
"11" = 0;
"2" = 0;
"3" = 0;
"4" = 0;
"5" = 0;
"6" = 0;
"7" = 0;
"8" = 0;
"9" = 0;
};
};
width = 240;
},
{
layerId = "BC57D14F-D7AD-4877-A02E-2DA2D5328E1F";
shapes = (
{
closed = 1;
nodes = (
(222,500,l),
(222,668,ls),
(222,724,o),
(187,756,o),
(126,756,cs),
(87,756,o),
(46,742,o),
(16,714,c),
(52,667,l),
(67,685,o),
(91,696,o),
(117,696,cs),
(136,696,o),
(151,687,o),
(151,666,cs),
(151,500,l)
);
},
{
closed = 1;
nodes = (
(132,495,o),
(153,521,o),
(154,564,c),
(151,609,l),
(151,568,o),
(138,549,o),
(111,549,cs),
(97,549,o),
(83,558,o),
(83,575,cs),
(83,590,o),
(93,600,o),
(114,604,cs),
(157,614,l),
(157,658,l),
(102,647,ls),
(43,635,o),
(13,609,o),
(13,566,cs),
(13,523,o),
(43,495,o),
(88,495,cs)
);
}
);
userData = {
com.hugojourdan.ColorFlow = {
"0" = 0;
"1" = 0;
"10" = 0;
"11" = 0;
"2" = 0;
"3" = 0;
"4" = 0;
"5" = 0;
"6" = 0;
"7" = 0;
"8" = 0;
"9" = 0;
};
};
width = 248;
}
);
unicode = 170;
},
{
color = 0;
glyphname = ordmasculine;
lastChange = "2025-02-06 07:51:02 +0000";
layers = (
{
anchors = (
{
name = bottom;
pos = (130,500);
},
{
name = center;
pos = (130,621);
},
{
name = ogonek;
pos = (230,504);
},
{
name = top;
pos = (130,741);
},
{
name = topright;
pos = (246,741);
}
);
layerId = "AC72BA4F-EBEC-4C28-9168-13A8176B9035";
shapes = (
{
closed = 1;
nodes = (
(198,493,o),
(240,544,o),
(240,621,cs),
(240,700,o),
(198,750,o),
(130,750,cs),
(61,750,o),
(20,699,o),
(20,621,cs),
(20,545,o),
(61,493,o),
(130,493,c)
);
},
{
closed = 1;
nodes = (
(88,531,o),
(63,565,o),
(63,621,cs),
(63,678,o),
(85,712,o),
(130,712,cs),
(174,712,o),
(196,679,o),
(196,621,cs),
(196,565,o),
(174,531,o),
(130,531,c)
);
}
);
userData = {
com.hugojourdan.ColorFlow = {
"0" = 0;
"1" = 0;
"10" = 0;
"11" = 0;
"2" = 0;
"3" = 0;
"4" = 0;
"5" = 0;
"6" = 0;
"7" = 0;
"8" = 0;
"9" = 0;
};
};
width = 260;
},
{
anchors = (
{
name = bottom;
pos = (131,500);
},
{
name = center;
pos = (131,624);
},
{
name = ogonek;
pos = (233,504);
},
{
name = top;
pos = (131,749);
},
{
name = topright;
pos = (249,749);
}
);
layerId = "BC57D14F-D7AD-4877-A02E-2DA2D5328E1F";
shapes = (
{
closed = 1;
nodes = (
(206,493,o),
(248,547,o),
(248,624,cs),
(248,701,o),
(206,756,o),
(131,756,cs),
(57,756,o),
(15,702,o),
(15,624,cs),
(15,549,o),
(56,493,o),
(131,493,c)
);
},
{
closed = 1;
nodes = (
(103,553,o),
(85,574,o),
(85,624,cs),
(85,675,o),
(101,696,o),
(131,696,cs),
(160,696,o),
(177,676,o),
(177,624,cs),
(177,575,o),
(161,553,o),
(131,553,c)
);
}
);
userData = {
com.hugojourdan.ColorFlow = {
"0" = 0;
"1" = 0;
"10" = 0;
"11" = 0;
"2" = 0;
"3" = 0;
"4" = 0;
"5" = 0;
"6" = 0;
"7" = 0;
"8" = 0;
"9" = 0;
};
};
width = 262;
}
);
unicode = 186;
},
{
glyphname = zero;
kernLeft = KO_zero;
kernRight = KO_zero;
layers = (
{
layerId = "AC72BA4F-EBEC-4C28-9168-13A8176B9035";
shapes = (
{
closed = 1;
nodes = (
(498,-12,o),
(578,140,o),
(578,351,cs),
(578,561,o),
(498,714,o),
(331,714,cs),
(153,714,o),
(70,561,o),
(70,351,cs),
(70,140,o),
(153,-12,o),
(331,-12,cs)
);
},
{
closed = 1;
nodes = (
(198,47,o),
(147,160,o),
(147,351,cs),
(147,543,o),
(198,655,o),
(331,655,cs),
(455,655,o),
(501,543,o),
(501,351,cs),
(501,160,o),
(456,47,o),
(331,47,cs)
);
}
);
userData = {
com.hugojourdan.ColorFlow = {
"0" = 0;
"1" = 0;
"10" = 0;
"11" = 0;
"2" = 0;
"3" = 0;
"4" = 0;
"5" = 0;
"6" = 0;
"7" = 0;
"8" = 0;
"9" = 0;
};
};
width = 648;
},
{
layerId = "BC57D14F-D7AD-4877-A02E-2DA2D5328E1F";
shapes = (
{
closed = 1;
nodes = (
(501,-12,o),
(585,130,o),
(585,351,cs),
(585,571,o),
(501,714,o),
(321,714,cs),
(134,714,o),
(44,572,o),
(44,351,cs),
(44,131,o),
(134,-12,o),
(321,-12,cs)
);
},
{
closed = 1;
nodes = (
(218,104,o),
(187,192,o),
(187,351,cs),
(187,510,o),
(217,599,o),
(321,599,cs),
(415,599,o),
(444,511,o),
(444,351,cs),
(444,194,o),
(417,104,o),
(321,104,cs)
);
}
);
userData = {
com.hugojourdan.ColorFlow = {
"0" = 0;
"1" = 0;
"10" = 0;
"11" = 0;
"2" = 0;
"3" = 0;
"4" = 0;
"5" = 0;
"6" = 0;
"7" = 0;
"8" = 0;
"9" = 0;
};
};
width = 629;
}
);
metricRight = "=|";
unicode = 48;
},
{
glyphname = one;
kernLeft = KO_one;
kernRight = KO_one;
layers = (
{
layerId = "AC72BA4F-EBEC-4C28-9168-13A8176B9035";
shapes = (
{
closed = 1;
nodes = (
(290,0,l),
(290,700,l),
(93,700,l),
(36,640,l),
(251,640,l),
(214,686,l),
(214,0,l)
);
}
);
userData = {
com.hugojourdan.ColorFlow = {
"0" = 0;
"1" = 0;
"10" = 0;
"11" = 0;
"2" = 0;
"3" = 0;
"4" = 0;
"5" = 0;
"6" = 0;
"7" = 0;
"8" = 0;
"9" = 0;
};
};
width = 411;
},
{
layerId = "BC57D14F-D7AD-4877-A02E-2DA2D5328E1F";
shapes = (
{
closed = 1;
nodes = (
(343,0,l),
(343,700,l),
(90,700,l),
(33,585,l),
(235,585,l),
(198,686,l),
(198,0,l)
);
}
);
userData = {
com.hugojourdan.ColorFlow = {
"0" = 0;
"1" = 0;
"10" = 0;
"11" = 0;
"2" = 0;
"3" = 0;
"4" = 0;
"5" = 0;
"6" = 0;
"7" = 0;
"8" = 0;
"9" = 0;
};
};
width = 433;
}
);
unicode = 49;
},
{
glyphname = two;
kernLeft = KO_two;
kernRight = KO_two;
layers = (
{
layerId = "AC72BA4F-EBEC-4C28-9168-13A8176B9035";
shapes = (
{
closed = 1;
nodes = (
(516,0,l),
(516,58,l),
(100,58,l),
(143,31,l),
(298,191,ls),
(409,306,o),
(498,403,o),
(498,518,cs),
(498,638,o),
(408,715,o),
(290,715,cs),
(193,715,o),
(65,679,o),
(55,488,c),
(129,469,l),
(130,621,o),
(208,655,o),
(282,655,cs),
(348,655,o),
(419,602,o),
(419,519,cs),
(419,433,o),
(365,359,o),
(258,250,cs),
(68,55,l),
(68,0,l)
);
}
);
userData = {
com.hugojourdan.ColorFlow = {
"0" = 0;
"1" = 0;
"10" = 0;
"11" = 0;
"2" = 0;
"3" = 0;
"4" = 0;
"5" = 0;
"6" = 0;
"7" = 0;
"8" = 0;
"9" = 0;
};
};
width = 556;
},
{
layerId = "BC57D14F-D7AD-4877-A02E-2DA2D5328E1F";
shapes = (
{
closed = 1;
nodes = (
(548,0,l),
(548,115,l),
(102,115,l),
(166,37,l),
(330,174,ls),
(468,286,o),
(545,378,o),
(545,501,cs),
(545,634,o),
(453,715,o),
(313,715,cs),
(164,715,o),
(58,636,o),
(48,490,c),
(185,446,l),
(188,555,o),
(239,600,o),
(305,600,cs),
(360,600,o),
(396,562,o),
(396,501,cs),
(396,439,o),
(363,380,o),
(285,313,cs),
(70,127,l),
(70,0,l)
);
}
);
userData = {
com.hugojourdan.ColorFlow = {
"0" = 0;
"1" = 0;
"10" = 0;
"11" = 0;
"2" = 0;
"3" = 0;
"4" = 0;
"5" = 0;
"6" = 0;
"7" = 0;
"8" = 0;
"9" = 0;
};
};
width = 589;
}
);
unicode = 50;
},
{
glyphname = three;
kernLeft = KO_three;
kernRight = KO_three;
layers = (
{
layerId = "AC72BA4F-EBEC-4C28-9168-13A8176B9035";
shapes = (
{
attr = {
identifier = ID0x3535f16a0;
};
closed = 1;
nodes = (
(418,-15,o),
(510,70,o),
(510,194,cs),
(510,286,o),
(449,356,o),
(359,370,c),
(356,362,l),
(439,375,o),
(492,441,o),
(492,537,cs),
(492,645,o),
(409,715,o),
(280,715,cs),
(154,715,o),
(73,646,o),
(57,525,c),
(133,509,l),
(142,614,o),
(198,655,o),
(283,655,cs),
(365,655,o),
(414,609,o),
(414,529,cs),
(414,444,o),
(368,397,o),
(272,397,cs),
(227,397,l),
(227,337,l),
(267,337,ls),
(376,337,o),
(433,281,o),
(433,184,cs),
(433,103,o),
(374,45,o),
(290,45,cs),
(195,45,o),
(140,101,o),
(126,213,c),
(52,203,l),
(67,58,o),
(153,-15,o),
(288,-15,cs)
);
}
);
userData = {
com.hugojourdan.ColorFlow = {
"0" = 0;
"1" = 0;
"10" = 0;
"11" = 0;
"2" = 0;
"3" = 0;
"4" = 0;
"5" = 0;
"6" = 0;
"7" = 0;
"8" = 0;
"9" = 0;
};
};
width = 557;
},
{
layerId = "BC57D14F-D7AD-4877-A02E-2DA2D5328E1F";
shapes = (
{
attr = {
identifier = ID0x3535f16a0;
};
closed = 1;
nodes = (
(444,-15,o),
(543,71,o),
(543,201,cs),
(543,287,o),
(486,357,o),
(402,370,c),
(399,362,l),
(475,375,o),
(525,443,o),
(525,526,cs),
(525,645,o),
(434,715,o),
(295,715,cs),
(154,715,o),
(65,645,o),
(43,519,c),
(188,483,l),
(188,555,o),
(228,600,o),
(289,600,cs),
(346,600,o),
(379,569,o),
(379,513,cs),
(379,455,o),
(345,424,o),
(276,424,cs),
(218,424,l),
(218,304,l),
(271,304,ls),
(359,304,o),
(398,266,o),
(398,201,cs),
(398,143,o),
(356,101,o),
(296,101,cs),
(226,101,o),
(184,144,o),
(177,223,c),
(34,200,l),
(48,58,o),
(142,-15,o),
(298,-15,cs)
);
}
);
userData = {
com.hugojourdan.ColorFlow = {
"0" = 0;
"1" = 0;
"10" = 0;
"11" = 0;
"2" = 0;
"3" = 0;
"4" = 0;
"5" = 0;
"6" = 0;
"7" = 0;
"8" = 0;
"9" = 0;
};
};
width = 588;
}
);
unicode = 51;
},
{
glyphname = four;
kernLeft = KO_four;
kernRight = KO_four;
lastChange = "2025-02-06 09:44:59 +0000";
layers = (
{
layerId = "AC72BA4F-EBEC-4C28-9168-13A8176B9035";
shapes = (
{
closed = 1;
nodes = (
(409,0,l),
(409,179,l),
(520,179,l),
(520,239,l),
(409,239,l),
(409,700,l),
(289,700,l),
(12,242,l),
(12,179,l),
(333,179,l),
(333,0,l)
);
},
{
closed = 1;
nodes = (
(333,651,l),
(333,239,l),
(88,239,l)
);
}
);
userData = {
com.hugojourdan.ColorFlow = {
"0" = 0;
"1" = 0;
"10" = 0;
"11" = 0;
"2" = 0;
"3" = 0;
"4" = 0;
"5" = 0;
"6" = 0;
"7" = 0;
"8" = 0;
"9" = 0;
};
};
width = 582;
},
{
layerId = "BC57D14F-D7AD-4877-A02E-2DA2D5328E1F";
shapes = (
{
closed = 1;
nodes = (
(469,0,l),
(469,151,l),
(559,151,l),
(559,270,l),
(469,270,l),
(469,700,l),
(248,700,l),
(14,274,l),
(14,151,l),
(325,151,l),
(325,0,l)
);
},
{
closed = 1;
nodes = (
(325,617,l),
(325,270,l),
(141,270,l)
);
}
);
userData = {
com.hugojourdan.ColorFlow = {
"0" = 0;
"1" = 0;
"10" = 0;
"11" = 0;
"2" = 0;
"3" = 0;
"4" = 0;
"5" = 0;
"6" = 0;
"7" = 0;
"8" = 0;
"9" = 0;
};
};
width = 600;
},
{
associatedMasterId = "AC72BA4F-EBEC-4C28-9168-13A8176B9035";
layerId = "35234638-7BC7-4E6B-9708-070F472C28BD";
name = "6 Feb 25 at 10:44";
shapes = (
{
closed = 1;
nodes = (
(409,0,l),
(409,700,l),
(289,700,l),
(12,242,l),
(12,179,l),
(520,179,l),
(520,239,l),
(63,239,l),
(75,217,l),
(342,666,l),
(347,662,l),
(333,679,l),
(333,0,l)
);
}
);
userData = {
com.hugojourdan.ColorFlow = {
"0" = 0;
"1" = 0;
"10" = 0;
"11" = 0;
"2" = 0;
"3" = 0;
"4" = 0;
"5" = 0;
"6" = 0;
"7" = 0;
"8" = 0;
"9" = 0;
};
};
width = 582;
},
{
associatedMasterId = "BC57D14F-D7AD-4877-A02E-2DA2D5328E1F";
layerId = "47F30929-C9F9-4AD7-90AF-9221D93BA3CA";
name = "6 Feb 25 at 10:44";
shapes = (
{
closed = 1;
nodes = (
(469,0,l),
(469,700,l),
(248,700,l),
(14,274,l),
(14,151,l),
(559,151,l),
(559,270,l),
(58,270,l),
(98,190,l),
(327,621,l),
(354,615,l),
(325,632,l),
(325,0,l)
);
}
);
userData = {
com.hugojourdan.ColorFlow = {
"0" = 0;
"1" = 0;
"10" = 0;
"11" = 0;
"2" = 0;
"3" = 0;
"4" = 0;
"5" = 0;
"6" = 0;
"7" = 0;
"8" = 0;
"9" = 0;
};
};
width = 600;
}
);
unicode = 52;
userData = {
KernOnName = four;
};
},
{
glyphname = five;
kernLeft = KO_five;
kernRight = KO_five;
layers = (
{
layerId = "AC72BA4F-EBEC-4C28-9168-13A8176B9035";
shapes = (
{
attr = {
identifier = ID0x37be8a340;
};
closed = 1;
nodes = (
(416,-15,o),
(529,60,o),
(529,237,cs),
(529,390,o),
(428,472,o),
(298,472,cs),
(242,472,o),
(165,448,o),
(143,376,c),
(166,389,l),
(201,693,l),
(150,640,l),
(470,640,l),
(470,700,l),
(128,700,l),
(82,322,l),
(135,304,l),
(166,383,o),
(231,412,o),
(292,412,cs),
(390,412,o),
(457,350,o),
(457,233,cs),
(457,121,o),
(394,45,o),
(296,45,cs),
(204,45,o),
(128,108,o),
(119,211,c),
(47,200,l),
(61,59,o),
(168,-15,o),
(295,-15,cs)
);
}
);
userData = {
com.hugojourdan.ColorFlow = {
"0" = 0;
"1" = 0;
"10" = 0;
"11" = 0;
"2" = 0;
"3" = 0;
"4" = 0;
"5" = 0;
"6" = 0;
"7" = 0;
"8" = 0;
"9" = 0;
};
};
width = 581;
},
{
layerId = "BC57D14F-D7AD-4877-A02E-2DA2D5328E1F";
shapes = (
{
attr = {
identifier = ID0x37be8a340;
};
closed = 1;
nodes = (
(421,-15,o),
(548,61,o),
(548,243,cs),
(548,395,o),
(447,479,o),
(328,479,cs),
(262,479,o),
(195,455,o),
(175,376,c),
(191,389,l),
(232,693,l),
(141,585,l),
(484,585,l),
(484,700,l),
(108,700,l),
(59,356,l),
(175,283,l),
(191,338,o),
(241,363,o),
(287,363,cs),
(353,363,o),
(404,322,o),
(404,236,cs),
(404,151,o),
(349,101,o),
(284,101,cs),
(226,101,o),
(171,144,o),
(165,220,c),
(29,190,l),
(44,47,o),
(160,-15,o),
(287,-15,cs)
);
}
);
userData = {
com.hugojourdan.ColorFlow = {
"0" = 0;
"1" = 0;
"10" = 0;
"11" = 0;
"2" = 0;
"3" = 0;
"4" = 0;
"5" = 0;
"6" = 0;
"7" = 0;
"8" = 0;
"9" = 0;
};
};
width = 577;
}
);
unicode = 53;
},
{
glyphname = six;
kernLeft = KO_six;
kernRight = KO_six;
layers = (
{
layerId = "AC72BA4F-EBEC-4C28-9168-13A8176B9035";
shapes = (
{
attr = {
identifier = ID0x1492ec2d0;
};
closed = 1;
nodes = (
(424,-15,o),
(539,60,o),
(539,237,cs),
(539,390,o),
(438,472,o),
(317,472,cs),
(218,472,o),
(134,403,o),
(122,318,c),
(130,297,l),
(130,374,ls),
(132,496,o),
(158,657,o),
(305,657,cs),
(372,657,o),
(428,612,o),
(438,529,c),
(514,545,l),
(497,654,o),
(406,715,o),
(304,715,cs),
(103,715,o),
(56,525,o),
(52,359,cs),
(47,150,o),
(107,-15,o),
(297,-15,cs)
);
},
{
attr = {
identifier = ID0x1492ec2d0;
};
closed = 1;
nodes = (
(198,45,o),
(140,120,o),
(140,232,cs),
(140,369,o),
(240,412,o),
(312,412,cs),
(404,412,o),
(466,350,o),
(466,232,cs),
(466,120,o),
(391,45,o),
(301,45,cs)
);
}
);
userData = {
com.hugojourdan.ColorFlow = {
"0" = 0;
"1" = 0;
"10" = 0;
"11" = 0;
"2" = 0;
"3" = 0;
"4" = 0;
"5" = 0;
"6" = 0;
"7" = 0;
"8" = 0;
"9" = 0;
};
};
width = 581;
},
{
layerId = "BC57D14F-D7AD-4877-A02E-2DA2D5328E1F";
shapes = (
{
attr = {
identifier = ID0x1492ec2d0;
};
closed = 1;
nodes = (
(433,-15,o),
(556,60,o),
(556,237,cs),
(556,389,o),
(452,472,o),
(341,472,cs),
(239,472,o),
(174,409,o),
(164,325,c),
(172,297,l),
(172,374,ls),
(174,473,o),
(186,600,o),
(296,600,cs),
(339,600,o),
(385,577,o),
(392,505,c),
(537,545,l),
(513,656,o),
(418,715,o),
(308,715,cs),
(86,715,o),
(35,540,o),
(30,362,cs),
(25,149,o),
(91,-15,o),
(298,-15,cs)
);
},
{
attr = {
identifier = ID0x1492ec2d0;
};
closed = 1;
nodes = (
(231,101,o),
(182,150,o),
(182,232,cs),
(182,322,o),
(247,357,o),
(303,357,cs),
(367,357,o),
(413,316,o),
(413,232,cs),
(413,151,o),
(362,101,o),
(300,101,cs)
);
}
);
userData = {
com.hugojourdan.ColorFlow = {
"0" = 0;
"1" = 0;
"10" = 0;
"11" = 0;
"2" = 0;
"3" = 0;
"4" = 0;
"5" = 0;
"6" = 0;
"7" = 0;
"8" = 0;
"9" = 0;
};
};
width = 590;
}
);
unicode = 54;
userData = {
KernOnName = six;
};
},
{
glyphname = seven;
kernLeft = KO_seven;
kernRight = KO_seven;
layers = (
{
layerId = "AC72BA4F-EBEC-4C28-9168-13A8176B9035";
shapes = (
{
closed = 1;
nodes = (
(233,0,l),
(507,625,l),
(507,700,l),
(55,700,l),
(55,640,l),
(454,640,l),
(455,679,l),
(145,0,l)
);
}
);
userData = {
com.hugojourdan.ColorFlow = {
"0" = 0;
"1" = 0;
"10" = 0;
"11" = 0;
"2" = 0;
"3" = 0;
"4" = 0;
"5" = 0;
"6" = 0;
"7" = 0;
"8" = 0;
"9" = 0;
};
};
width = 537;
},
{
layerId = "BC57D14F-D7AD-4877-A02E-2DA2D5328E1F";
shapes = (
{
closed = 1;
nodes = (
(281,0,l),
(525,569,l),
(525,701,l),
(53,701,l),
(53,586,l),
(472,586,l),
(440,680,l),
(123,0,l)
);
}
);
userData = {
com.hugojourdan.ColorFlow = {
"0" = 0;
"1" = 0;
"10" = 0;
"11" = 0;
"2" = 0;
"3" = 0;
"4" = 0;
"5" = 0;
"6" = 0;
"7" = 0;
"8" = 0;
"9" = 0;
};
};
width = 555;
}
);
unicode = 55;
},
{
glyphname = eight;
kernLeft = KO_eight;
kernRight = KO_eight;
layers = (
{
layerId = "AC72BA4F-EBEC-4C28-9168-13A8176B9035";
shapes = (
{
attr = {
identifier = ID0x7f82b6528300;
};
closed = 1;
nodes = (
(432,-13,o),
(513,78,o),
(513,192,cs),
(513,279,o),
(460,353,o),
(366,377,c),
(366,369,l),
(440,392,o),
(480,456,o),
(480,526,cs),
(480,629,o),
(410,713,o),
(280,713,cs),
(150,713,o),
(80,629,o),
(80,526,cs),
(80,458,o),
(117,394,o),
(192,370,c),
(192,376,l),
(97,351,o),
(47,277,o),
(47,192,cs),
(47,78,o),
(128,-13,o),
(280,-13,cs)
);
},
{
attr = {
identifier = ID0x7f82b6528300;
};
closed = 1;
nodes = (
(173,47,o),
(124,112,o),
(124,193,cs),
(124,273,o),
(192,338,o),
(280,338,cs),
(368,338,o),
(436,273,o),
(436,193,cs),
(436,112,o),
(387,47,o),
(280,47,cs)
);
},
{
attr = {
identifier = ID0x7f82b6528300;
};
closed = 1;
nodes = (
(209,411,o),
(158,468,o),
(158,535,cs),
(158,600,o),
(199,653,o),
(280,653,cs),
(361,653,o),
(403,600,o),
(403,535,cs),
(403,468,o),
(351,411,o),
(280,411,cs)
);
}
);
userData = {
com.hugojourdan.ColorFlow = {
"0" = 0;
"1" = 0;
"10" = 0;
"11" = 0;
"2" = 0;
"3" = 0;
"4" = 0;
"5" = 0;
"6" = 0;
"7" = 0;
"8" = 0;
"9" = 0;
};
};
width = 560;
},
{
layerId = "BC57D14F-D7AD-4877-A02E-2DA2D5328E1F";
shapes = (
{
attr = {
identifier = ID0x7f82b6528300;
};
closed = 1;
nodes = (
(447,-13,o),
(536,79,o),
(536,196,cs),
(536,280,o),
(487,354,o),
(401,377,c),
(401,369,l),
(472,392,o),
(509,453,o),
(509,520,cs),
(509,624,o),
(429,713,o),
(284,713,cs),
(137,713,o),
(58,625,o),
(58,520,cs),
(58,455,o),
(93,393,o),
(163,370,c),
(163,376,l),
(78,352,o),
(30,279,o),
(30,196,cs),
(30,80,o),
(119,-13,o),
(284,-13,cs)
);
},
{
attr = {
identifier = ID0x7f82b6528300;
};
closed = 1;
nodes = (
(208,96,o),
(172,149,o),
(172,214,cs),
(172,278,o),
(221,325,o),
(284,325,cs),
(345,325,o),
(394,279,o),
(394,214,cs),
(394,150,o),
(359,96,o),
(284,96,cs)
);
},
{
attr = {
identifier = ID0x7f82b6528300;
};
closed = 1;
nodes = (
(234,423,o),
(196,465,o),
(196,516,cs),
(196,565,o),
(226,604,o),
(284,604,cs),
(340,604,o),
(371,566,o),
(371,516,cs),
(371,466,o),
(334,423,o),
(284,423,cs)
);
}
);
userData = {
com.hugojourdan.ColorFlow = {
"0" = 0;
"1" = 0;
"10" = 0;
"11" = 0;
"2" = 0;
"3" = 0;
"4" = 0;
"5" = 0;
"6" = 0;
"7" = 0;
"8" = 0;
"9" = 0;
};
};
width = 566;
}
);
metricRight = "=|";
unicode = 56;
},
{
glyphname = nine;
kernLeft = KO_nine;
kernRight = KO_nine;
layers = (
{
layerId = "AC72BA4F-EBEC-4C28-9168-13A8176B9035";
shapes = (
{
attr = {
identifier = ID0x136a3da90;
};
closed = 1;
nodes = (
(157,715,o),
(42,640,o),
(42,463,cs),
(42,310,o),
(143,228,o),
(264,228,cs),
(363,228,o),
(447,297,o),
(459,382,c),
(451,403,l),
(451,326,ls),
(449,204,o),
(423,43,o),
(276,43,cs),
(209,43,o),
(153,88,o),
(143,171,c),
(67,155,l),
(84,46,o),
(175,-15,o),
(277,-15,cs),
(478,-15,o),
(525,175,o),
(529,341,cs),
(534,550,o),
(474,715,o),
(284,715,cs)
);
},
{
attr = {
identifier = ID0x136a3da90;
};
closed = 1;
nodes = (
(383,655,o),
(441,580,o),
(441,468,cs),
(441,331,o),
(341,288,o),
(269,288,cs),
(177,288,o),
(115,350,o),
(115,468,cs),
(115,580,o),
(190,655,o),
(280,655,cs)
);
}
);
userData = {
com.hugojourdan.ColorFlow = {
"0" = 0;
"1" = 0;
"10" = 0;
"11" = 0;
"2" = 0;
"3" = 0;
"4" = 0;
"5" = 0;
"6" = 0;
"7" = 0;
"8" = 0;
"9" = 0;
};
};
width = 581;
},
{
layerId = "BC57D14F-D7AD-4877-A02E-2DA2D5328E1F";
shapes = (
{
attr = {
identifier = ID0x329e1d290;
};
closed = 1;
nodes = (
(157,715,o),
(34,640,o),
(34,463,cs),
(34,311,o),
(138,228,o),
(249,228,cs),
(351,228,o),
(416,291,o),
(426,375,c),
(418,403,l),
(418,326,ls),
(416,227,o),
(404,100,o),
(294,100,cs),
(251,100,o),
(205,123,o),
(198,195,c),
(53,155,l),
(77,44,o),
(172,-15,o),
(282,-15,cs),
(504,-15,o),
(555,160,o),
(560,338,cs),
(565,551,o),
(499,715,o),
(292,715,cs)
);
},
{
attr = {
identifier = ID0x329e1d290;
};
closed = 1;
nodes = (
(359,599,o),
(408,550,o),
(408,468,cs),
(408,378,o),
(343,343,o),
(287,343,cs),
(223,343,o),
(177,384,o),
(177,468,cs),
(177,549,o),
(228,599,o),
(290,599,cs)
);
}
);
userData = {
com.hugojourdan.ColorFlow = {
"0" = 0;
"1" = 0;
"10" = 0;
"11" = 0;
"2" = 0;
"3" = 0;
"4" = 0;
"5" = 0;
"6" = 0;
"7" = 0;
"8" = 0;
"9" = 0;
};
};
width = 590;
}
);
unicode = 57;
},
{
glyphname = zero.zero;
kernLeft = KO_zero;
kernRight = KO_zero;
lastChange = "2025-02-06 07:51:02 +0000";
layers = (
{
layerId = "AC72BA4F-EBEC-4C28-9168-13A8176B9035";
shapes = (
{
closed = 1;
nodes = (
(471,604,l),
(423,654,l),
(161,93,l),
(215,51,l)
);
},
{
alignment = -1;
ref = zero;
}
);
userData = {
com.hugojourdan.ColorFlow = {
"0" = 0;
"1" = 0;
"10" = 0;
"11" = 0;
"2" = 0;
"3" = 0;
"4" = 0;
"5" = 0;
"6" = 0;
"7" = 0;
"8" = 0;
"9" = 0;
};
};
width = 648;
},
{
layerId = "BC57D14F-D7AD-4877-A02E-2DA2D5328E1F";
shapes = (
{
closed = 1;
nodes = (
(489,574,l),
(404,634,l),
(142,133,l),
(233,81,l)
);
},
{
alignment = -1;
ref = zero;
}
);
userData = {
com.hugojourdan.ColorFlow = {
"0" = 0;
"1" = 0;
"10" = 0;
"11" = 0;
"2" = 0;
"3" = 0;
"4" = 0;
"5" = 0;
"6" = 0;
"7" = 0;
"8" = 0;
"9" = 0;
};
};
width = 629;
}
);
metricLeft = zero;
metricRight = zero;
},
{
glyphname = one.tf;
lastChange = "2025-02-06 07:51:02 +0000";
layers = (
{
layerId = "AC72BA4F-EBEC-4C28-9168-13A8176B9035";
shapes = (
{
closed = 1;
nodes = (
(357,0,l),
(357,700,l),
(155,700,l),
(98,640,l),
(318,640,l),
(281,686,l),
(281,0,l)
);
},
{
closed = 1;
nodes = (
(503,60,l),
(107,60,l),
(107,0,l),
(503,0,l)
);
}
);
userData = {
com.hugojourdan.ColorFlow = {
"0" = 0;
"1" = 0;
"10" = 0;
"11" = 0;
"2" = 0;
"3" = 0;
"4" = 0;
"5" = 0;
"6" = 0;
"7" = 0;
"8" = 0;
"9" = 0;
};
};
width = 600;
},
{
layerId = "BC57D14F-D7AD-4877-A02E-2DA2D5328E1F";
shapes = (
{
closed = 1;
nodes = (
(404,0,l),
(404,700,l),
(126,700,l),
(69,581,l),
(294,581,l),
(257,686,l),
(257,0,l)
);
},
{
closed = 1;
nodes = (
(532,119,l),
(78,119,l),
(78,0,l),
(532,0,l)
);
}
);
userData = {
com.hugojourdan.ColorFlow = {
"0" = 0;
"1" = 0;
"10" = 0;
"11" = 0;
"2" = 0;
"3" = 0;
"4" = 0;
"5" = 0;
"6" = 0;
"7" = 0;
"8" = 0;
"9" = 0;
};
};
width = 600;
}
);
metricRight = "=|";
metricWidth = "=600";
},
{
glyphname = zero.tf.zero;
lastChange = "2025-02-06 07:51:02 +0000";
layers = (
{
layerId = "AC72BA4F-EBEC-4C28-9168-13A8176B9035";
shapes = (
{
closed = 1;
nodes = (
(447,604,l),
(399,654,l),
(137,93,l),
(191,51,l)
);
},
{
alignment = -1;
pos = (-24,0);
ref = zero;
}
);
userData = {
com.hugojourdan.ColorFlow = {
"0" = 0;
"1" = 0;
"10" = 0;
"11" = 0;
"2" = 0;
"3" = 0;
"4" = 0;
"5" = 0;
"6" = 0;
"7" = 0;
"8" = 0;
"9" = 0;
};
};
width = 600;
},
{
layerId = "BC57D14F-D7AD-4877-A02E-2DA2D5328E1F";
shapes = (
{
closed = 1;
nodes = (
(480,574,l),
(385,634,l),
(123,133,l),
(224,81,l)
);
},
{
alignment = -1;
pos = (-14,0);
ref = zero;
}
);
userData = {
com.hugojourdan.ColorFlow = {
"0" = 0;
"1" = 0;
"10" = 0;
"11" = 0;
"2" = 0;
"3" = 0;
"4" = 0;
"5" = 0;
"6" = 0;
"7" = 0;
"8" = 0;
"9" = 0;
};
};
width = 600;
}
);
metricRight = "=|";
metricWidth = "=600";
},
{
color = 0;
glyphname = fraction;
lastChange = "2025-02-06 07:51:02 +0000";
layers = (
{
background = {
shapes = (
{
attr = {
strokeHeight = 65;
strokeWidth = 65;
};
closed = 0;
nodes = (
(550,700,l),
(-50,0,l)
);
}
);
};
layerId = "AC72BA4F-EBEC-4C28-9168-13A8176B9035";
shapes = (
{
closed = 1;
nodes = (
(372,684,l),
(327,721,l),
(-273,21,l),
(-228,-16,l)
);
}
);
userData = {
com.hugojourdan.ColorFlow = {
"0" = 0;
"1" = 0;
"10" = 0;
"11" = 0;
"2" = 0;
"3" = 0;
"4" = 0;
"5" = 0;
"6" = 0;
"7" = 0;
"8" = 0;
"9" = 0;
};
};
width = 99;
},
{
layerId = "BC57D14F-D7AD-4877-A02E-2DA2D5328E1F";
shapes = (
{
closed = 1;
nodes = (
(388,680,l),
(328,730,l),
(-272,30,l),
(-212,-20,l)
);
}
);
userData = {
com.hugojourdan.ColorFlow = {
"0" = 0;
"1" = 0;
"10" = 0;
"11" = 0;
"2" = 0;
"3" = 0;
"4" = 0;
"5" = 0;
"6" = 0;
"7" = 0;
"8" = 0;
"9" = 0;
};
};
width = 116;
}
);
metricRight = "=|";
unicode = 8260;
},
{
color = 0;
glyphname = zeroinferior;
lastChange = "2025-02-06 07:51:02 +0000";
layers = (
{
background = {
shapes = (
{
pos = (42,-150);
ref = zero;
scale = (0.44,0.44);
}
);
};
layerId = "AC72BA4F-EBEC-4C28-9168-13A8176B9035";
shapes = (
{
closed = 1;
nodes = (
(267,-155,o),
(304,-88,o),
(304,4,cs),
(304,97,o),
(267,164,o),
(189,164,cs),
(108,164,o),
(70,96,o),
(70,4,cs),
(70,-88,o),
(109,-155,o),
(189,-155,cs)
);
},
{
closed = 1;
nodes = (
(139,-113,o),
(123,-70,o),
(123,4,cs),
(123,79,o),
(139,122,o),
(189,122,cs),
(236,122,o),
(251,80,o),
(251,4,cs),
(251,-71,o),
(236,-113,o),
(189,-113,cs)
);
}
);
userData = {
com.hugojourdan.ColorFlow = {
"0" = 0;
"1" = 0;
"10" = 0;
"11" = 0;
"2" = 0;
"3" = 0;
"4" = 0;
"5" = 0;
"6" = 0;
"7" = 0;
"8" = 0;
"9" = 0;
};
};
width = 374;
},
{
layerId = "BC57D14F-D7AD-4877-A02E-2DA2D5328E1F";
shapes = (
{
closed = 1;
nodes = (
(251,-155,o),
(290,-88,o),
(290,4,cs),
(290,96,o),
(251,164,o),
(170,164,cs),
(84,164,o),
(44,97,o),
(44,4,cs),
(44,-87,o),
(84,-155,o),
(170,-155,cs)
);
},
{
closed = 1;
nodes = (
(132,-93,o),
(122,-58,o),
(122,4,cs),
(122,66,o),
(131,102,o),
(170,102,cs),
(203,102,o),
(213,67,o),
(213,4,cs),
(213,-57,o),
(205,-93,o),
(170,-93,cs)
);
}
);
userData = {
com.hugojourdan.ColorFlow = {
"0" = 0;
"1" = 0;
"10" = 0;
"11" = 0;
"2" = 0;
"3" = 0;
"4" = 0;
"5" = 0;
"6" = 0;
"7" = 0;
"8" = 0;
"9" = 0;
};
};
width = 334;
}
);
metricLeft = zero;
metricRight = zero;
unicode = 8320;
},
{
color = 0;
glyphname = oneinferior;
lastChange = "2025-02-06 07:51:02 +0000";
layers = (
{
background = {
shapes = (
{
pos = (23,-150);
ref = one;
scale = (0.44,0.44);
}
);
};
layerId = "AC72BA4F-EBEC-4C28-9168-13A8176B9035";
shapes = (
{
closed = 1;
nodes = (
(164,-150,l),
(164,158,l),
(61,158,l),
(36,116,l),
(127,116,l),
(111,152,l),
(111,-150,l)
);
}
);
userData = {
com.hugojourdan.ColorFlow = {
"0" = 0;
"1" = 0;
"10" = 0;
"11" = 0;
"2" = 0;
"3" = 0;
"4" = 0;
"5" = 0;
"6" = 0;
"7" = 0;
"8" = 0;
"9" = 0;
};
};
width = 285;
},
{
layerId = "BC57D14F-D7AD-4877-A02E-2DA2D5328E1F";
shapes = (
{
closed = 1;
nodes = (
(180,-150,l),
(180,158,l),
(58,158,l),
(33,96,l),
(120,96,l),
(104,152,l),
(104,-150,l)
);
}
);
userData = {
com.hugojourdan.ColorFlow = {
"0" = 0;
"1" = 0;
"10" = 0;
"11" = 0;
"2" = 0;
"3" = 0;
"4" = 0;
"5" = 0;
"6" = 0;
"7" = 0;
"8" = 0;
"9" = 0;
};
};
width = 270;
}
);
metricLeft = one;
metricRight = one;
unicode = 8321;
},
{
color = 0;
glyphname = twoinferior;
lastChange = "2025-02-06 07:51:02 +0000";
layers = (
{
background = {
shapes = (
{
pos = (27,-150);
ref = two;
scale = (0.44,0.44);
}
);
};
layerId = "AC72BA4F-EBEC-4C28-9168-13A8176B9035";
shapes = (
{
closed = 1;
nodes = (
(271,-150,l),
(271,-107,l),
(78,-107,l),
(103,-132,l),
(171,-71,ls),
(229,-19,o),
(263,22,o),
(263,73,cs),
(263,130,o),
(222,165,o),
(164,165,cs),
(111,165,o),
(60,138,o),
(55,66,c),
(107,49,l),
(109,104,o),
(134,121,o),
(161,121,cs),
(185,121,o),
(208,102,o),
(208,73,cs),
(208,42,o),
(188,15,o),
(149,-22,cs),
(64,-102,l),
(64,-150,l)
);
}
);
userData = {
com.hugojourdan.ColorFlow = {
"0" = 0;
"1" = 0;
"10" = 0;
"11" = 0;
"2" = 0;
"3" = 0;
"4" = 0;
"5" = 0;
"6" = 0;
"7" = 0;
"8" = 0;
"9" = 0;
};
};
width = 311;
},
{
layerId = "BC57D14F-D7AD-4877-A02E-2DA2D5328E1F";
shapes = (
{
closed = 1;
nodes = (
(279,-150,l),
(279,-87,l),
(74,-87,l),
(105,-129,l),
(176,-75,ls),
(242,-26,o),
(271,14,o),
(271,68,cs),
(271,128,o),
(230,165,o),
(162,165,cs),
(96,165,o),
(53,125,o),
(48,66,c),
(121,41,l),
(123,80,o),
(138,102,o),
(161,102,cs),
(179,102,o),
(194,89,o),
(194,68,cs),
(194,45,o),
(179,25,o),
(148,-2,cs),
(60,-76,l),
(60,-150,l)
);
}
);
userData = {
com.hugojourdan.ColorFlow = {
"0" = 0;
"1" = 0;
"10" = 0;
"11" = 0;
"2" = 0;
"3" = 0;
"4" = 0;
"5" = 0;
"6" = 0;
"7" = 0;
"8" = 0;
"9" = 0;
};
};
width = 320;
}
);
metricLeft = two;
metricRight = two;
unicode = 8322;
},
{
color = 0;
glyphname = threeinferior;
lastChange = "2025-02-06 07:51:02 +0000";
layers = (
{
background = {
shapes = (
{
pos = (24,-150);
ref = three;
scale = (0.44,0.44);
}
);
};
layerId = "AC72BA4F-EBEC-4C28-9168-13A8176B9035";
shapes = (
{
attr = {
identifier = ID0x35f242d10;
};
closed = 1;
nodes = (
(225,-157,o),
(268,-119,o),
(268,-63,cs),
(268,-23,o),
(242,7,o),
(205,13,c),
(204,9,l),
(237,15,o),
(260,44,o),
(260,83,cs),
(260,134,o),
(221,165,o),
(162,165,cs),
(99,165,o),
(64,131,o),
(56,80,c),
(109,67,l),
(111,106,o),
(132,123,o),
(161,123,cs),
(190,123,o),
(207,106,o),
(207,79,cs),
(207,48,o),
(189,33,o),
(156,33,cs),
(132,33,l),
(132,-12,l),
(153,-12,ls),
(195,-12,o),
(215,-31,o),
(215,-64,cs),
(215,-93,o),
(194,-114,o),
(164,-114,cs),
(133,-114,o),
(109,-98,o),
(104,-53,c),
(52,-62,l),
(58,-124,o),
(99,-157,o),
(164,-157,cs)
);
}
);
userData = {
com.hugojourdan.ColorFlow = {
"0" = 0;
"1" = 0;
"10" = 0;
"11" = 0;
"2" = 0;
"3" = 0;
"4" = 0;
"5" = 0;
"6" = 0;
"7" = 0;
"8" = 0;
"9" = 0;
};
};
width = 315;
},
{
layerId = "BC57D14F-D7AD-4877-A02E-2DA2D5328E1F";
shapes = (
{
attr = {
identifier = ID0x35f242d10;
};
closed = 1;
nodes = (
(224,-157,o),
(269,-118,o),
(269,-61,cs),
(269,-23,o),
(245,7,o),
(209,13,c),
(208,9,l),
(239,15,o),
(261,45,o),
(261,79,cs),
(261,134,o),
(219,165,o),
(156,165,cs),
(90,165,o),
(51,134,o),
(39,78,c),
(115,58,l),
(114,84,o),
(129,103,o),
(152,103,cs),
(172,103,o),
(185,92,o),
(185,72,cs),
(185,52,o),
(171,40,o),
(146,40,cs),
(118,40,l),
(118,-22,l),
(145,-22,ls),
(178,-22,o),
(192,-37,o),
(192,-58,cs),
(192,-79,o),
(177,-94,o),
(155,-94,cs),
(131,-94,o),
(112,-80,o),
(110,-50,c),
(34,-63,l),
(40,-123,o),
(84,-157,o),
(156,-157,cs)
);
}
);
userData = {
com.hugojourdan.ColorFlow = {
"0" = 0;
"1" = 0;
"10" = 0;
"11" = 0;
"2" = 0;
"3" = 0;
"4" = 0;
"5" = 0;
"6" = 0;
"7" = 0;
"8" = 0;
"9" = 0;
};
};
width = 314;
}
);
metricLeft = three;
metricRight = three;
unicode = 8323;
},
{
color = 0;
glyphname = fourinferior;
lastChange = "2025-02-06 07:51:02 +0000";
layers = (
{
background = {
shapes = (
{
pos = (-12,-150);
ref = four;
scale = (0.44,0.44);
}
);
};
layerId = "AC72BA4F-EBEC-4C28-9168-13A8176B9035";
shapes = (
{
closed = 1;
nodes = (
(199,-150,l),
(199,158,l),
(117,158,l),
(12,-30,l),
(12,-74,l),
(242,-74,l),
(242,-32,l),
(33,-32,l),
(44,-59,l),
(146,128,l),
(157,128,l),
(146,136,l),
(146,-150,l)
);
}
);
userData = {
com.hugojourdan.ColorFlow = {
"0" = 0;
"1" = 0;
"10" = 0;
"11" = 0;
"2" = 0;
"3" = 0;
"4" = 0;
"5" = 0;
"6" = 0;
"7" = 0;
"8" = 0;
"9" = 0;
};
};
width = 304;
},
{
layerId = "BC57D14F-D7AD-4877-A02E-2DA2D5328E1F";
shapes = (
{
closed = 1;
nodes = (
(221,-150,l),
(221,158,l),
(108,158,l),
(14,-13,l),
(14,-77,l),
(257,-77,l),
(257,-15,l),
(32,-15,l),
(55,-62,l),
(145,112,l),
(161,112,l),
(144,119,l),
(144,-150,l)
);
}
);
userData = {
com.hugojourdan.ColorFlow = {
"0" = 0;
"1" = 0;
"10" = 0;
"11" = 0;
"2" = 0;
"3" = 0;
"4" = 0;
"5" = 0;
"6" = 0;
"7" = 0;
"8" = 0;
"9" = 0;
};
};
width = 298;
}
);
metricLeft = four;
metricRight = four;
unicode = 8324;
},
{
color = 0;
glyphname = fiveinferior;
lastChange = "2025-02-06 07:51:02 +0000";
layers = (
{
background = {
shapes = (
{
pos = (26,-150);
ref = five;
scale = (0.44,0.44);
}
);
};
layerId = "AC72BA4F-EBEC-4C28-9168-13A8176B9035";
shapes = (
{
attr = {
identifier = ID0x35f2d4650;
};
closed = 1;
nodes = (
(216,-157,o),
(269,-123,o),
(269,-45,cs),
(269,23,o),
(225,59,o),
(171,59,cs),
(142,59,o),
(112,47,o),
(104,15,c),
(112,21,l),
(129,155,l),
(94,116,l),
(242,116,l),
(242,158,l),
(82,158,l),
(61,4,l),
(102,-22,l),
(112,7,o),
(137,17,o),
(159,17,cs),
(192,17,o),
(217,-4,o),
(217,-46,cs),
(217,-88,o),
(190,-114,o),
(156,-114,cs),
(127,-114,o),
(100,-92,o),
(97,-55,c),
(47,-65,l),
(53,-127,o),
(101,-157,o),
(157,-157,cs)
);
}
);
userData = {
com.hugojourdan.ColorFlow = {
"0" = 0;
"1" = 0;
"10" = 0;
"11" = 0;
"2" = 0;
"3" = 0;
"4" = 0;
"5" = 0;
"6" = 0;
"7" = 0;
"8" = 0;
"9" = 0;
};
};
width = 321;
},
{
layerId = "BC57D14F-D7AD-4877-A02E-2DA2D5328E1F";
shapes = (
{
attr = {
identifier = ID0x35f2d4650;
};
closed = 1;
nodes = (
(206,-157,o),
(263,-123,o),
(263,-43,cs),
(263,21,o),
(219,57,o),
(167,57,cs),
(138,57,o),
(111,46,o),
(103,15,c),
(109,21,l),
(125,155,l),
(79,96,l),
(235,96,l),
(235,158,l),
(63,158,l),
(41,0,l),
(104,-32,l),
(109,-11,o),
(128,-1,o),
(145,-1,cs),
(167,-1,o),
(188,-15,o),
(188,-48,cs),
(188,-78,o),
(167,-94,o),
(145,-94,cs),
(124,-94,o),
(103,-80,o),
(101,-51,c),
(29,-67,l),
(35,-128,o),
(87,-157,o),
(145,-157,cs)
);
}
);
userData = {
com.hugojourdan.ColorFlow = {
"0" = 0;
"1" = 0;
"10" = 0;
"11" = 0;
"2" = 0;
"3" = 0;
"4" = 0;
"5" = 0;
"6" = 0;
"7" = 0;
"8" = 0;
"9" = 0;
};
};
width = 292;
}
);
metricLeft = five;
metricRight = five;
unicode = 8325;
},
{
color = 0;
glyphname = sixinferior;
lastChange = "2025-02-06 07:51:02 +0000";
layers = (
{
background = {
shapes = (
{
pos = (32,-150);
ref = six;
scale = (0.44,0.44);
}
);
};
layerId = "AC72BA4F-EBEC-4C28-9168-13A8176B9035";
shapes = (
{
attr = {
identifier = ID0x35f2d51e0;
};
closed = 1;
nodes = (
(224,-157,o),
(277,-124,o),
(277,-46,cs),
(277,22,o),
(231,58,o),
(182,58,cs),
(138,58,o),
(106,29,o),
(101,-8,c),
(105,-19,l),
(105,15,ls),
(105,60,o),
(112,123,o),
(167,123,cs),
(191,123,o),
(212,108,o),
(215,76,c),
(269,90,l),
(260,137,o),
(220,165,o),
(170,165,cs),
(84,165,o),
(54,99,o),
(52,8,cs),
(50,-84,o),
(78,-157,o),
(167,-157,cs)
);
},
{
attr = {
identifier = ID0x35f2d51e0;
};
closed = 1;
nodes = (
(132,-114,o),
(109,-88,o),
(109,-48,cs),
(109,-1,o),
(143,16,o),
(170,16,cs),
(202,16,o),
(225,-5,o),
(225,-48,cs),
(225,-88,o),
(199,-114,o),
(168,-114,cs)
);
}
);
userData = {
com.hugojourdan.ColorFlow = {
"0" = 0;
"1" = 0;
"10" = 0;
"11" = 0;
"2" = 0;
"3" = 0;
"4" = 0;
"5" = 0;
"6" = 0;
"7" = 0;
"8" = 0;
"9" = 0;
};
};
width = 319;
},
{
layerId = "BC57D14F-D7AD-4877-A02E-2DA2D5328E1F";
shapes = (
{
attr = {
identifier = ID0x35f2d51e0;
};
closed = 1;
nodes = (
(214,-157,o),
(269,-122,o),
(269,-46,cs),
(269,21,o),
(227,58,o),
(177,58,cs),
(132,58,o),
(107,34,o),
(102,-6,c),
(106,-19,l),
(106,15,ls),
(106,54,o),
(110,104,o),
(151,104,cs),
(168,104,o),
(185,95,o),
(187,68,c),
(264,91,l),
(253,138,o),
(211,165,o),
(157,165,cs),
(63,165,o),
(34,99,o),
(30,11,cs),
(27,-86,o),
(60,-157,o),
(153,-157,cs)
);
},
{
attr = {
identifier = ID0x35f2d51e0;
};
closed = 1;
nodes = (
(129,-94,o),
(110,-78,o),
(110,-48,cs),
(110,-18,o),
(131,-4,o),
(153,-4,cs),
(175,-4,o),
(193,-18,o),
(193,-48,cs),
(193,-77,o),
(175,-94,o),
(153,-94,cs)
);
}
);
userData = {
com.hugojourdan.ColorFlow = {
"0" = 0;
"1" = 0;
"10" = 0;
"11" = 0;
"2" = 0;
"3" = 0;
"4" = 0;
"5" = 0;
"6" = 0;
"7" = 0;
"8" = 0;
"9" = 0;
};
};
width = 303;
}
);
metricLeft = six;
metricRight = six;
unicode = 8326;
},
{
color = 0;
glyphname = seveninferior;
lastChange = "2025-02-06 07:51:02 +0000";
layers = (
{
background = {
shapes = (
{
pos = (33,-150);
ref = seven;
scale = (0.44,0.44);
}
);
};
layerId = "AC72BA4F-EBEC-4C28-9168-13A8176B9035";
shapes = (
{
closed = 1;
nodes = (
(148,-150,l),
(260,109,l),
(260,158,l),
(55,158,l),
(55,116,l),
(237,116,l),
(227,149,l),
(89,-150,l)
);
}
);
userData = {
com.hugojourdan.ColorFlow = {
"0" = 0;
"1" = 0;
"10" = 0;
"11" = 0;
"2" = 0;
"3" = 0;
"4" = 0;
"5" = 0;
"6" = 0;
"7" = 0;
"8" = 0;
"9" = 0;
};
};
width = 290;
},
{
layerId = "BC57D14F-D7AD-4877-A02E-2DA2D5328E1F";
shapes = (
{
closed = 1;
nodes = (
(163,-150,l),
(264,89,l),
(264,158,l),
(53,158,l),
(53,96,l),
(241,96,l),
(220,149,l),
(80,-150,l)
);
}
);
userData = {
com.hugojourdan.ColorFlow = {
"0" = 0;
"1" = 0;
"10" = 0;
"11" = 0;
"2" = 0;
"3" = 0;
"4" = 0;
"5" = 0;
"6" = 0;
"7" = 0;
"8" = 0;
"9" = 0;
};
};
width = 294;
}
);
metricLeft = seven;
metricRight = seven;
unicode = 8327;
},
{
color = 0;
glyphname = eightinferior;
lastChange = "2025-02-06 07:51:02 +0000";
layers = (
{
background = {
shapes = (
{
pos = (21,-150);
ref = eight;
scale = (0.44,0.44);
}
);
};
layerId = "AC72BA4F-EBEC-4C28-9168-13A8176B9035";
shapes = (
{
attr = {
identifier = ID0x35f2d6900;
};
closed = 1;
nodes = (
(226,-156,o),
(263,-115,o),
(263,-65,cs),
(263,-25,o),
(240,6,o),
(202,16,c),
(202,12,l),
(234,22,o),
(251,50,o),
(251,80,cs),
(251,125,o),
(217,164,o),
(155,164,cs),
(95,164,o),
(60,126,o),
(60,80,cs),
(60,51,o),
(76,23,o),
(107,13,c),
(107,15,l),
(69,5,o),
(47,-26,o),
(47,-65,cs),
(47,-115,o),
(85,-156,o),
(155,-156,cs)
);
},
{
attr = {
identifier = ID0x35f2d6900;
};
closed = 1;
nodes = (
(117,-115,o),
(99,-90,o),
(99,-59,cs),
(99,-29,o),
(124,-5,o),
(155,-5,cs),
(187,-5,o),
(211,-29,o),
(211,-59,cs),
(211,-90,o),
(193,-115,o),
(155,-115,cs)
);
},
{
attr = {
identifier = ID0x35f2d6900;
};
closed = 1;
nodes = (
(130,35,o),
(111,55,o),
(111,80,cs),
(111,104,o),
(126,123,o),
(155,123,cs),
(185,123,o),
(199,104,o),
(199,80,cs),
(199,55,o),
(181,35,o),
(155,35,cs)
);
}
);
userData = {
com.hugojourdan.ColorFlow = {
"0" = 0;
"1" = 0;
"10" = 0;
"11" = 0;
"2" = 0;
"3" = 0;
"4" = 0;
"5" = 0;
"6" = 0;
"7" = 0;
"8" = 0;
"9" = 0;
};
};
width = 310;
},
{
layerId = "BC57D14F-D7AD-4877-A02E-2DA2D5328E1F";
shapes = (
{
attr = {
identifier = ID0x35f2d6900;
};
closed = 1;
nodes = (
(219,-156,o),
(260,-115,o),
(260,-63,cs),
(260,-26,o),
(239,6,o),
(204,16,c),
(204,12,l),
(234,22,o),
(250,48,o),
(250,78,cs),
(250,124,o),
(213,164,o),
(145,164,cs),
(79,164,o),
(41,125,o),
(41,78,cs),
(41,51,o),
(56,22,o),
(86,13,c),
(86,15,l),
(50,5,o),
(30,-25,o),
(30,-63,cs),
(30,-114,o),
(71,-156,o),
(145,-156,cs)
);
},
{
attr = {
identifier = ID0x35f2d6900;
};
closed = 1;
nodes = (
(119,-97,o),
(106,-78,o),
(106,-51,cs),
(106,-28,o),
(123,-9,o),
(145,-9,cs),
(166,-9,o),
(185,-27,o),
(185,-51,cs),
(185,-76,o),
(173,-97,o),
(145,-97,cs)
);
},
{
attr = {
identifier = ID0x35f2d6900;
};
closed = 1;
nodes = (
(129,39,o),
(114,53,o),
(114,72,cs),
(114,91,o),
(124,105,o),
(145,105,cs),
(165,105,o),
(177,92,o),
(177,72,cs),
(177,54,o),
(163,39,o),
(145,39,cs)
);
}
);
userData = {
com.hugojourdan.ColorFlow = {
"0" = 0;
"1" = 0;
"10" = 0;
"11" = 0;
"2" = 0;
"3" = 0;
"4" = 0;
"5" = 0;
"6" = 0;
"7" = 0;
"8" = 0;
"9" = 0;
};
};
width = 290;
}
);
metricLeft = eight;
metricRight = eight;
unicode = 8328;
},
{
color = 0;
glyphname = nineinferior;
lastChange = "2025-02-06 07:51:02 +0000";
layers = (
{
background = {
shapes = (
{
pos = (31,-150);
ref = nine;
scale = (0.44,0.44);
}
);
};
layerId = "AC72BA4F-EBEC-4C28-9168-13A8176B9035";
shapes = (
{
attr = {
identifier = ID0x34eaae420;
};
closed = 1;
nodes = (
(95,165,o),
(42,132,o),
(42,54,cs),
(42,-14,o),
(88,-50,o),
(137,-50,cs),
(181,-50,o),
(213,-21,o),
(218,16,c),
(214,27,l),
(214,-7,ls),
(214,-52,o),
(207,-115,o),
(152,-115,cs),
(128,-115,o),
(108,-99,o),
(105,-68,c),
(51,-82,l),
(60,-130,o),
(101,-157,o),
(149,-157,cs),
(240,-157,o),
(265,-83,o),
(267,-1,cs),
(269,81,o),
(248,165,o),
(153,165,cs)
);
},
{
attr = {
identifier = ID0x34eaae420;
};
closed = 1;
nodes = (
(187,122,o),
(210,96,o),
(210,56,cs),
(210,9,o),
(176,-8,o),
(149,-8,cs),
(117,-8,o),
(94,13,o),
(94,56,cs),
(94,96,o),
(120,122,o),
(151,122,cs)
);
}
);
userData = {
com.hugojourdan.ColorFlow = {
"0" = 0;
"1" = 0;
"10" = 0;
"11" = 0;
"2" = 0;
"3" = 0;
"4" = 0;
"5" = 0;
"6" = 0;
"7" = 0;
"8" = 0;
"9" = 0;
};
};
width = 319;
},
{
layerId = "BC57D14F-D7AD-4877-A02E-2DA2D5328E1F";
shapes = (
{
attr = {
identifier = ID0x34eaae420;
};
closed = 1;
nodes = (
(89,165,o),
(34,131,o),
(34,54,cs),
(34,-13,o),
(77,-50,o),
(127,-50,cs),
(172,-50,o),
(198,-25,o),
(202,14,c),
(198,27,l),
(198,-7,ls),
(198,-46,o),
(193,-95,o),
(153,-95,cs),
(136,-95,o),
(119,-86,o),
(117,-60,c),
(40,-83,l),
(51,-130,o),
(94,-157,o),
(146,-157,cs),
(238,-157,o),
(270,-94,o),
(273,-5,cs),
(277,96,o),
(243,165,o),
(151,165,cs)
);
},
{
attr = {
identifier = ID0x34eaae420;
};
closed = 1;
nodes = (
(175,102,o),
(194,86,o),
(194,56,cs),
(194,26,o),
(173,12,o),
(151,12,cs),
(129,12,o),
(111,26,o),
(111,56,cs),
(111,85,o),
(129,102,o),
(151,102,cs)
);
}
);
userData = {
com.hugojourdan.ColorFlow = {
"0" = 0;
"1" = 0;
"10" = 0;
"11" = 0;
"2" = 0;
"3" = 0;
"4" = 0;
"5" = 0;
"6" = 0;
"7" = 0;
"8" = 0;
"9" = 0;
};
};
width = 303;
}
);
metricLeft = nine;
metricRight = nine;
unicode = 8329;
},
{
glyphname = period;
kernLeft = KO_period;
kernRight = KO_period;
layers = (
{
layerId = "AC72BA4F-EBEC-4C28-9168-13A8176B9035";
shapes = (
{
closed = 1;
nodes = (
(131,-14,o),
(157,11,o),
(157,41,cs),
(157,71,o),
(131,96,o),
(99,96,cs),
(67,96,o),
(42,71,o),
(42,41,cs),
(42,11,o),
(67,-14,o),
(99,-14,cs)
);
}
);
userData = {
com.hugojourdan.ColorFlow = {
"0" = 0;
"1" = 0;
"10" = 0;
"11" = 0;
"2" = 0;
"3" = 0;
"4" = 0;
"5" = 0;
"6" = 0;
"7" = 0;
"8" = 0;
"9" = 0;
};
};
width = 199;
},
{
layerId = "BC57D14F-D7AD-4877-A02E-2DA2D5328E1F";
shapes = (
{
closed = 1;
nodes = (
(162,-14,o),
(200,21,o),
(200,67,cs),
(200,110,o),
(162,147,o),
(116,147,cs),
(68,147,o),
(31,111,o),
(31,67,cs),
(31,22,o),
(67,-14,o),
(116,-14,cs)
);
}
);
userData = {
com.hugojourdan.ColorFlow = {
"0" = 0;
"1" = 0;
"10" = 0;
"11" = 0;
"2" = 0;
"3" = 0;
"4" = 0;
"5" = 0;
"6" = 0;
"7" = 0;
"8" = 0;
"9" = 0;
};
};
width = 231;
}
);
metricRight = "=|";
unicode = 46;
userData = {
KernOnSpecialSpacing = {
L = period;
R = period;
};
};
},
{
glyphname = comma;
kernLeft = KO_comma;
kernRight = KO_comma;
layers = (
{
layerId = "AC72BA4F-EBEC-4C28-9168-13A8176B9035";
shapes = (
{
closed = 1;
nodes = (
(111,-173,l),
(187,122,l),
(114,122,l),
(50,-173,l)
);
}
);
userData = {
com.hugojourdan.ColorFlow = {
"0" = 0;
"1" = 0;
"10" = 0;
"11" = 0;
"2" = 0;
"3" = 0;
"4" = 0;
"5" = 0;
"6" = 0;
"7" = 0;
"8" = 0;
"9" = 0;
};
};
width = 229;
},
{
layerId = "BC57D14F-D7AD-4877-A02E-2DA2D5328E1F";
shapes = (
{
closed = 1;
nodes = (
(153,-159,l),
(235,122,l),
(110,122,l),
(53,-159,l)
);
}
);
userData = {
com.hugojourdan.ColorFlow = {
"0" = 0;
"1" = 0;
"10" = 0;
"11" = 0;
"2" = 0;
"3" = 0;
"4" = 0;
"5" = 0;
"6" = 0;
"7" = 0;
"8" = 0;
"9" = 0;
};
};
width = 266;
}
);
metricRight = period;
unicode = 44;
userData = {
KernOnName = comma;
KernOnSpecialSpacing = {
L = period;
R = period;
};
};
},
{
glyphname = exclam;
layers = (
{
layerId = "AC72BA4F-EBEC-4C28-9168-13A8176B9035";
shapes = (
{
closed = 1;
nodes = (
(135,192,l),
(135,700,l),
(65,700,l),
(65,192,l)
);
},
{
alignment = -1;
ref = period;
}
);
userData = {
com.hugojourdan.ColorFlow = {
"0" = 0;
"1" = 0;
"10" = 0;
"11" = 0;
"2" = 0;
"3" = 0;
"4" = 0;
"5" = 0;
"6" = 0;
"7" = 0;
"8" = 0;
"9" = 0;
};
};
width = 199;
},
{
layerId = "BC57D14F-D7AD-4877-A02E-2DA2D5328E1F";
shapes = (
{
closed = 1;
nodes = (
(187,213,l),
(187,700,l),
(44,700,l),
(44,213,l)
);
},
{
alignment = -1;
ref = period;
}
);
userData = {
com.hugojourdan.ColorFlow = {
"0" = 0;
"1" = 0;
"10" = 0;
"11" = 0;
"2" = 0;
"3" = 0;
"4" = 0;
"5" = 0;
"6" = 0;
"7" = 0;
"8" = 0;
"9" = 0;
};
};
width = 231;
}
);
metricLeft = period;
metricRight = "=|";
unicode = 33;
userData = {
KernOnSpecialSpacing = {
L = "spaced-off";
};
};
},
{
glyphname = exclamdown;
layers = (
{
layerId = "AC72BA4F-EBEC-4C28-9168-13A8176B9035";
shapes = (
{
closed = 1;
nodes = (
(65,-200,l),
(135,-200,l),
(135,308,l),
(65,308,l)
);
},
{
closed = 1;
nodes = (
(67,514,o),
(42,489,o),
(42,459,cs),
(42,429,o),
(67,404,o),
(99,404,cs),
(131,404,o),
(157,429,o),
(157,459,cs),
(157,489,o),
(131,514,o),
(99,514,cs)
);
}
);
userData = {
com.hugojourdan.ColorFlow = {
"0" = 0;
"1" = 0;
"10" = 0;
"11" = 0;
"2" = 0;
"3" = 0;
"4" = 0;
"5" = 0;
"6" = 0;
"7" = 0;
"8" = 0;
"9" = 0;
};
};
width = 199;
},
{
layerId = "BC57D14F-D7AD-4877-A02E-2DA2D5328E1F";
shapes = (
{
closed = 1;
nodes = (
(44,-200,l),
(187,-200,l),
(187,287,l),
(44,287,l)
);
},
{
closed = 1;
nodes = (
(67,514,o),
(31,478,o),
(31,433,cs),
(31,389,o),
(68,353,o),
(116,353,cs),
(162,353,o),
(200,390,o),
(200,433,cs),
(200,479,o),
(162,514,o),
(116,514,cs)
);
}
);
userData = {
com.hugojourdan.ColorFlow = {
"0" = 0;
"1" = 0;
"10" = 0;
"11" = 0;
"2" = 0;
"3" = 0;
"4" = 0;
"5" = 0;
"6" = 0;
"7" = 0;
"8" = 0;
"9" = 0;
};
};
width = 231;
}
);
metricLeft = exclam;
metricRight = exclam;
unicode = 161;
userData = {
KernOnSpecialSpacing = {
R = "spaced-off";
};
};
},
{
glyphname = question;
kernLeft = KO_question;
layers = (
{
background = {
shapes = (
{
closed = 1;
nodes = (
(265,198,l),
(264,207,o),
(263,211,o),
(263,214,cs),
(263,256,o),
(282,295,o),
(331,322,cs),
(416,368,o),
(466,444,o),
(466,529,cs),
(466,644,o),
(388,715,o),
(253,715,cs),
(101,715,o),
(28,632,o),
(21,485,c),
(98,471,l),
(99,591,o),
(150,656,o),
(254,656,cs),
(342,656,o),
(389,599,o),
(389,531,cs),
(389,471,o),
(369,423,o),
(284,371,cs),
(203,321,o),
(186,276,o),
(186,220,cs),
(186,208,o),
(186,203,o),
(187,198,c)
);
},
{
alignment = -1;
pos = (144,0);
ref = period;
}
);
};
layerId = "AC72BA4F-EBEC-4C28-9168-13A8176B9035";
shapes = (
{
closed = 1;
nodes = (
(275,200,l),
(274,209,o),
(274,213,o),
(274,217,cs),
(274,257,o),
(298,295,o),
(355,333,cs),
(430,383,o),
(462,441,o),
(462,517,cs),
(462,634,o),
(387,715,o),
(264,715,cs),
(122,715,o),
(36,632,o),
(28,487,c),
(94,468,l),
(96,590,o),
(153,655,o),
(256,655,cs),
(335,655,o),
(392,611,o),
(392,524,cs),
(392,458,o),
(367,416,o),
(285,360,cs),
(226,319,o),
(204,281,o),
(204,225,cs),
(204,213,o),
(204,207,o),
(205,200,c)
);
},
{
alignment = -1;
pos = (145,0);
ref = period;
}
);
userData = {
com.hugojourdan.ColorFlow = {
"0" = 0;
"1" = 0;
"10" = 0;
"11" = 0;
"2" = 0;
"3" = 0;
"4" = 0;
"5" = 0;
"6" = 0;
"7" = 0;
"8" = 0;
"9" = 0;
};
};
width = 490;
},
{
layerId = "BC57D14F-D7AD-4877-A02E-2DA2D5328E1F";
shapes = (
{
closed = 1;
nodes = (
(334,212,l),
(333,218,o),
(332,224,o),
(332,230,cs),
(332,262,o),
(348,289,o),
(395,320,cs),
(479,375,o),
(510,425,o),
(510,508,cs),
(510,634,o),
(425,715,o),
(279,715,cs),
(134,715,o),
(39,634,o),
(23,496,c),
(153,453,l),
(160,551,o),
(204,600,o),
(279,600,cs),
(332,600,o),
(374,570,o),
(374,514,cs),
(374,463,o),
(350,428,o),
(291,389,cs),
(225,346,o),
(201,306,o),
(201,249,cs),
(201,238,o),
(202,223,o),
(204,212,c)
);
},
{
alignment = -1;
pos = (159,0);
ref = period;
}
);
userData = {
com.hugojourdan.ColorFlow = {
"0" = 0;
"1" = 0;
"10" = 0;
"11" = 0;
"2" = 0;
"3" = 0;
"4" = 0;
"5" = 0;
"6" = 0;
"7" = 0;
"8" = 0;
"9" = 0;
};
};
width = 533;
}
);
metricRight = "=|";
unicode = 63;
userData = {
KernOnSpecialSpacing = {
L = "spaced-off";
};
};
},
{
glyphname = periodcentered;
layers = (
{
background = {
shapes = (
{
closed = 1;
nodes = (
(122,268,o),
(144,290,o),
(144,316,cs),
(144,341,o),
(122,363,o),
(97,363,cs),
(71,363,o),
(49,341,o),
(49,316,cs),
(49,290,o),
(71,268,o),
(97,268,cs)
);
}
);
};
layerId = "AC72BA4F-EBEC-4C28-9168-13A8176B9035";
shapes = (
{
alignment = -1;
pos = (0,275);
ref = period;
}
);
userData = {
com.hugojourdan.ColorFlow = {
"0" = 0;
"1" = 0;
"10" = 0;
"11" = 0;
"2" = 0;
"3" = 0;
"4" = 0;
"5" = 0;
"6" = 0;
"7" = 0;
"8" = 0;
"9" = 0;
};
};
width = 199;
},
{
layerId = "BC57D14F-D7AD-4877-A02E-2DA2D5328E1F";
shapes = (
{
alignment = -1;
pos = (0,247);
ref = period;
}
);
userData = {
com.hugojourdan.ColorFlow = {
"0" = 0;
"1" = 0;
"10" = 0;
"11" = 0;
"2" = 0;
"3" = 0;
"4" = 0;
"5" = 0;
"6" = 0;
"7" = 0;
"8" = 0;
"9" = 0;
};
};
width = 231;
}
);
metricLeft = period;
metricRight = period;
unicode = 183;
userData = {
KernOnSpecialSpacing = {
L = NoKerning;
R = NoKerning;
};
};
},
{
glyphname = bullet;
layers = (
{
background = {
shapes = (
{
closed = 1;
nodes = (
(175,200,o),
(227,252,o),
(227,316,cs),
(227,379,o),
(175,431,o),
(112,431,cs),
(48,431,o),
(-4,379,o),
(-4,316,cs),
(-4,252,o),
(48,200,o),
(112,200,cs)
);
}
);
};
layerId = "AC72BA4F-EBEC-4C28-9168-13A8176B9035";
shapes = (
{
alignment = -1;
pos = (-11,261);
ref = period;
scale = (1.2573,1.2573);
}
);
userData = {
com.hugojourdan.ColorFlow = {
"0" = 0;
"1" = 0;
"10" = 0;
"11" = 0;
"2" = 0;
"3" = 0;
"4" = 0;
"5" = 0;
"6" = 0;
"7" = 0;
"8" = 0;
"9" = 0;
};
};
width = 228;
},
{
layerId = "BC57D14F-D7AD-4877-A02E-2DA2D5328E1F";
shapes = (
{
alignment = -1;
pos = (-8,231);
ref = period;
scale = (1.2573,1.2573);
}
);
userData = {
com.hugojourdan.ColorFlow = {
"0" = 0;
"1" = 0;
"10" = 0;
"11" = 0;
"2" = 0;
"3" = 0;
"4" = 0;
"5" = 0;
"6" = 0;
"7" = 0;
"8" = 0;
"9" = 0;
};
};
width = 274;
}
);
metricLeft = period;
metricRight = period;
unicode = 8226;
userData = {
KernOnSpecialSpacing = {
L = NoKerning;
R = NoKerning;
};
};
},
{
color = 0;
glyphname = asterisk;
kernLeft = KO_asterisk;
kernRight = KO_asterisk;
layers = (
{
layerId = "AC72BA4F-EBEC-4C28-9168-13A8176B9035";
shapes = (
{
closed = 1;
nodes = (
(166,542,l),
(227,449,l),
(269,479,l),
(199,563,l),
(312,593,l),
(296,642,l),
(185,598,l),
(192,720,l),
(140,720,l),
(147,598,l),
(39,642,l),
(23,593,l),
(134,563,l),
(65,479,l),
(108,449,l)
);
}
);
userData = {
com.hugojourdan.ColorFlow = {
"0" = 0;
"1" = 0;
"10" = 0;
"11" = 0;
"2" = 0;
"3" = 0;
"4" = 0;
"5" = 0;
"6" = 0;
"7" = 0;
"8" = 0;
"9" = 0;
};
};
width = 335;
},
{
layerId = "BC57D14F-D7AD-4877-A02E-2DA2D5328E1F";
shapes = (
{
closed = 1;
nodes = (
(166,527,l),
(219,443,l),
(276,485,l),
(213,558,l),
(307,584,l),
(285,651,l),
(193,610,l),
(201,720,l),
(130,720,l),
(138,610,l),
(41,651,l),
(19,584,l),
(118,558,l),
(58,485,l),
(115,443,l)
);
}
);
userData = {
com.hugojourdan.ColorFlow = {
"0" = 0;
"1" = 0;
"10" = 0;
"11" = 0;
"2" = 0;
"3" = 0;
"4" = 0;
"5" = 0;
"6" = 0;
"7" = 0;
"8" = 0;
"9" = 0;
};
};
width = 326;
}
);
metricRight = "=|";
unicode = 42;
userData = {
KernOnSpecialSpacing = {
L = quotes;
R = quotes;
};
};
},
{
color = 0;
glyphname = numbersign;
kernRight = KO_numbersign;
layers = (
{
background = {
shapes = (
{
attr = {
strokeHeight = 70;
strokeWidth = 70;
};
closed = 1;
nodes = (
(575,700,l),
(389,0,l)
);
},
{
attr = {
strokeHeight = 70;
strokeWidth = 70;
};
closed = 1;
nodes = (
(614,194,l),
(31,194,l)
);
},
{
attr = {
strokeHeight = 70;
strokeWidth = 70;
};
closed = 1;
nodes = (
(327,700,l),
(141,0,l)
);
},
{
attr = {
strokeHeight = 70;
strokeWidth = 70;
};
closed = 1;
nodes = (
(684,511,l),
(101,511,l)
);
}
);
};
layerId = "AC72BA4F-EBEC-4C28-9168-13A8176B9035";
shapes = (
{
closed = 1;
nodes = (
(425,0,l),
(611,700,l),
(543,700,l),
(357,0,l)
);
},
{
closed = 1;
nodes = (
(616,159,l),
(616,229,l),
(33,229,l),
(33,159,l)
);
},
{
closed = 1;
nodes = (
(177,0,l),
(363,700,l),
(295,700,l),
(109,0,l)
);
},
{
closed = 1;
nodes = (
(686,476,l),
(686,546,l),
(103,546,l),
(103,476,l)
);
}
);
userData = {
com.hugojourdan.ColorFlow = {
"0" = 0;
"1" = 0;
"10" = 0;
"11" = 0;
"2" = 0;
"3" = 0;
"4" = 0;
"5" = 0;
"6" = 0;
"7" = 0;
"8" = 0;
"9" = 0;
};
};
width = 719;
},
{
layerId = "BC57D14F-D7AD-4877-A02E-2DA2D5328E1F";
shapes = (
{
closed = 1;
nodes = (
(454,0,l),
(640,700,l),
(526,700,l),
(340,0,l)
);
},
{
closed = 1;
nodes = (
(621,135,l),
(621,253,l),
(33,253,l),
(33,135,l)
);
},
{
closed = 1;
nodes = (
(200,0,l),
(386,700,l),
(272,700,l),
(86,0,l)
);
},
{
closed = 1;
nodes = (
(691,452,l),
(691,570,l),
(103,570,l),
(103,452,l)
);
}
);
userData = {
com.hugojourdan.ColorFlow = {
"0" = 0;
"1" = 0;
"10" = 0;
"11" = 0;
"2" = 0;
"3" = 0;
"4" = 0;
"5" = 0;
"6" = 0;
"7" = 0;
"8" = 0;
"9" = 0;
};
};
width = 724;
}
);
metricRight = "=|";
unicode = 35;
},
{
glyphname = slash;
kernLeft = KO_slash;
kernRight = KO_slash;
layers = (
{
layerId = "AC72BA4F-EBEC-4C28-9168-13A8176B9035";
shapes = (
{
closed = 1;
nodes = (
(92,-47,l),
(305,750,l),
(231,750,l),
(18,-47,l)
);
}
);
userData = {
com.hugojourdan.ColorFlow = {
"0" = 0;
"1" = 0;
"10" = 0;
"11" = 0;
"2" = 0;
"3" = 0;
"4" = 0;
"5" = 0;
"6" = 0;
"7" = 0;
"8" = 0;
"9" = 0;
};
};
width = 323;
},
{
layerId = "BC57D14F-D7AD-4877-A02E-2DA2D5328E1F";
shapes = (
{
closed = 1;
nodes = (
(137,-47,l),
(350,750,l),
(226,750,l),
(13,-47,l)
);
}
);
userData = {
com.hugojourdan.ColorFlow = {
"0" = 0;
"1" = 0;
"10" = 0;
"11" = 0;
"2" = 0;
"3" = 0;
"4" = 0;
"5" = 0;
"6" = 0;
"7" = 0;
"8" = 0;
"9" = 0;
};
};
width = 363;
}
);
metricRight = "=|";
unicode = 47;
userData = {
KernOnSpecialSpacing = {
L = slash;
R = slash;
};
};
},
{
glyphname = backslash;
kernLeft = KO_backslash;
layers = (
{
layerId = "AC72BA4F-EBEC-4C28-9168-13A8176B9035";
shapes = (
{
closed = 1;
nodes = (
(92,750,l),
(18,750,l),
(231,-47,l),
(305,-47,l)
);
}
);
userData = {
com.hugojourdan.ColorFlow = {
"0" = 0;
"1" = 0;
"10" = 0;
"11" = 0;
"2" = 0;
"3" = 0;
"4" = 0;
"5" = 0;
"6" = 0;
"7" = 0;
"8" = 0;
"9" = 0;
};
};
width = 323;
},
{
layerId = "BC57D14F-D7AD-4877-A02E-2DA2D5328E1F";
shapes = (
{
closed = 1;
nodes = (
(137,750,l),
(13,750,l),
(226,-47,l),
(350,-47,l)
);
}
);
userData = {
com.hugojourdan.ColorFlow = {
"0" = 0;
"1" = 0;
"10" = 0;
"11" = 0;
"2" = 0;
"3" = 0;
"4" = 0;
"5" = 0;
"6" = 0;
"7" = 0;
"8" = 0;
"9" = 0;
};
};
width = 363;
}
);
unicode = 92;
userData = {
KernOnSpecialSpacing = {
L = "spaced-off";
R = "spaced-off";
};
};
},
{
glyphname = hyphen;
kernLeft = KO_hyphen;
kernRight = KO_hyphen;
layers = (
{
layerId = "AC72BA4F-EBEC-4C28-9168-13A8176B9035";
shapes = (
{
closed = 1;
nodes = (
(385,254,l),
(385,314,l),
(95,314,l),
(95,254,l)
);
}
);
userData = {
com.hugojourdan.ColorFlow = {
"0" = 0;
"1" = 0;
"10" = 0;
"11" = 0;
"2" = 0;
"3" = 0;
"4" = 0;
"5" = 0;
"6" = 0;
"7" = 0;
"8" = 0;
"9" = 0;
};
};
width = 480;
},
{
layerId = "BC57D14F-D7AD-4877-A02E-2DA2D5328E1F";
shapes = (
{
closed = 1;
nodes = (
(388,253,l),
(388,367,l),
(98,367,l),
(98,253,l)
);
}
);
userData = {
com.hugojourdan.ColorFlow = {
"0" = 0;
"1" = 0;
"10" = 0;
"11" = 0;
"2" = 0;
"3" = 0;
"4" = 0;
"5" = 0;
"6" = 0;
"7" = 0;
"8" = 0;
"9" = 0;
};
};
width = 486;
}
);
metricRight = "=|";
unicode = 45;
userData = {
KernOnName = hyphen;
KernOnSpecialSpacing = {
L = hyphen;
R = hyphen;
};
};
},
{
glyphname = underscore;
kernLeft = KO_underscore;
kernRight = KO_underscore;
layers = (
{
layerId = "AC72BA4F-EBEC-4C28-9168-13A8176B9035";
shapes = (
{
closed = 1;
nodes = (
(640,-163,l),
(640,-109,l),
(0,-109,l),
(0,-163,l)
);
}
);
userData = {
com.hugojourdan.ColorFlow = {
"0" = 0;
"1" = 0;
"10" = 0;
"11" = 0;
"2" = 0;
"3" = 0;
"4" = 0;
"5" = 0;
"6" = 0;
"7" = 0;
"8" = 0;
"9" = 0;
};
};
width = 640;
},
{
layerId = "BC57D14F-D7AD-4877-A02E-2DA2D5328E1F";
shapes = (
{
closed = 1;
nodes = (
(640,-163,l),
(640,-75,l),
(0,-75,l),
(0,-163,l)
);
}
);
userData = {
com.hugojourdan.ColorFlow = {
"0" = 0;
"1" = 0;
"10" = 0;
"11" = 0;
"2" = 0;
"3" = 0;
"4" = 0;
"5" = 0;
"6" = 0;
"7" = 0;
"8" = 0;
"9" = 0;
};
};
width = 640;
}
);
metricLeft = "=0";
metricRight = "=0";
unicode = 95;
userData = {
KernOnSpecialSpacing = {
L = underscore;
R = underscore;
};
};
},
{
glyphname = parenleft;
kernLeft = KO_parenleft;
kernRight = KO_parenleft;
layers = (
{
layerId = "AC72BA4F-EBEC-4C28-9168-13A8176B9035";
shapes = (
{
closed = 1;
nodes = (
(289,-196,l),
(175,-92,o),
(121,95,o),
(121,268,cs),
(121,442,o),
(180,632,o),
(289,732,c),
(257,763,l),
(105,637,o),
(51,443,o),
(51,268,cs),
(51,94,o),
(106,-102,o),
(257,-227,c)
);
}
);
userData = {
com.hugojourdan.ColorFlow = {
"0" = 0;
"1" = 0;
"10" = 0;
"11" = 0;
"2" = 0;
"3" = 0;
"4" = 0;
"5" = 0;
"6" = 0;
"7" = 0;
"8" = 0;
"9" = 0;
};
};
width = 299;
},
{
layerId = "BC57D14F-D7AD-4877-A02E-2DA2D5328E1F";
shapes = (
{
closed = 1;
nodes = (
(314,-175,l),
(211,-81,o),
(152,75,o),
(152,268,cs),
(152,460,o),
(217,622,o),
(314,711,c),
(254,763,l),
(100,653,o),
(27,456,o),
(27,268,cs),
(27,81,o),
(97,-114,o),
(254,-227,c)
);
}
);
userData = {
com.hugojourdan.ColorFlow = {
"0" = 0;
"1" = 0;
"10" = 0;
"11" = 0;
"2" = 0;
"3" = 0;
"4" = 0;
"5" = 0;
"6" = 0;
"7" = 0;
"8" = 0;
"9" = 0;
};
};
width = 324;
}
);
unicode = 40;
userData = {
KernOnSpecialSpacing = {
L = slash;
R = parenthesis;
};
};
},
{
glyphname = parenright;
kernLeft = KO_parenright;
kernRight = KO_parenright;
layers = (
{
layerId = "AC72BA4F-EBEC-4C28-9168-13A8176B9035";
shapes = (
{
closed = 1;
nodes = (
(193,-102,o),
(248,94,o),
(248,268,cs),
(248,443,o),
(194,637,o),
(42,763,c),
(10,732,l),
(119,632,o),
(178,442,o),
(178,268,cs),
(178,95,o),
(124,-92,o),
(10,-196,c),
(42,-227,l)
);
}
);
userData = {
com.hugojourdan.ColorFlow = {
"0" = 0;
"1" = 0;
"10" = 0;
"11" = 0;
"2" = 0;
"3" = 0;
"4" = 0;
"5" = 0;
"6" = 0;
"7" = 0;
"8" = 0;
"9" = 0;
};
};
width = 299;
},
{
layerId = "BC57D14F-D7AD-4877-A02E-2DA2D5328E1F";
shapes = (
{
closed = 1;
nodes = (
(227,-114,o),
(297,81,o),
(297,268,cs),
(297,456,o),
(224,653,o),
(70,763,c),
(10,711,l),
(107,622,o),
(172,460,o),
(172,268,cs),
(172,75,o),
(113,-81,o),
(10,-175,c),
(70,-227,l)
);
}
);
userData = {
com.hugojourdan.ColorFlow = {
"0" = 0;
"1" = 0;
"10" = 0;
"11" = 0;
"2" = 0;
"3" = 0;
"4" = 0;
"5" = 0;
"6" = 0;
"7" = 0;
"8" = 0;
"9" = 0;
};
};
width = 324;
}
);
metricLeft = "=|parenleft";
metricRight = "=|parenleft";
unicode = 41;
userData = {
KernOnSpecialSpacing = {
L = parenthesis;
};
};
},
{
color = 0;
glyphname = braceleft;
kernRight = KO_braceleft;
layers = (
{
layerId = "AC72BA4F-EBEC-4C28-9168-13A8176B9035";
shapes = (
{
closed = 1;
nodes = (
(292,-230,o),
(323,-208,o),
(348,-165,c),
(298,-129,l),
(280,-159,o),
(260,-170,o),
(226,-170,cs),
(139,-170,o),
(131,-93,o),
(147,8,cs),
(163,119,ls),
(179,208,o),
(165,254,o),
(113,271,c),
(160,283,o),
(177,328,o),
(164,412,cs),
(147,537,ls),
(131,638,o),
(139,715,o),
(226,715,cs),
(260,715,o),
(280,704,o),
(300,674,c),
(348,710,l),
(323,753,o),
(292,775,o),
(232,775,cs),
(124,775,o),
(55,703,o),
(74,574,cs),
(101,367,ls),
(108,323,o),
(94,301,o),
(62,301,cs),
(20,301,l),
(20,241,l),
(62,241,ls),
(94,241,o),
(108,219,o),
(101,175,cs),
(74,-29,ls),
(55,-158,o),
(124,-230,o),
(232,-230,cs)
);
}
);
userData = {
com.hugojourdan.ColorFlow = {
"0" = 0;
"1" = 0;
"10" = 0;
"11" = 0;
"2" = 0;
"3" = 0;
"4" = 0;
"5" = 0;
"6" = 0;
"7" = 0;
"8" = 0;
"9" = 0;
};
};
width = 358;
},
{
layerId = "BC57D14F-D7AD-4877-A02E-2DA2D5328E1F";
shapes = (
{
closed = 1;
nodes = (
(336,-230,o),
(372,-206,o),
(395,-172,c),
(332,-97,l),
(319,-116,o),
(300,-128,o),
(272,-128,cs),
(202,-128,o),
(200,-62,o),
(209,15,cs),
(220,126,ls),
(232,211,o),
(214,256,o),
(153,272,c),
(211,286,o),
(231,333,o),
(221,414,cs),
(209,530,ls),
(200,608,o),
(201,673,o),
(272,673,cs),
(299,673,o),
(319,661,o),
(333,642,c),
(395,717,l),
(372,751,o),
(336,775,o),
(266,775,cs),
(153,775,o),
(60,703,o),
(85,534,cs),
(105,380,ls),
(111,344,o),
(97,326,o),
(64,326,cs),
(14,326,l),
(14,218,l),
(64,218,ls),
(96,218,o),
(111,199,o),
(105,164,cs),
(85,11,ls),
(60,-159,o),
(153,-230,o),
(266,-230,cs)
);
}
);
userData = {
com.hugojourdan.ColorFlow = {
"0" = 0;
"1" = 0;
"10" = 0;
"11" = 0;
"2" = 0;
"3" = 0;
"4" = 0;
"5" = 0;
"6" = 0;
"7" = 0;
"8" = 0;
"9" = 0;
};
};
width = 402;
}
);
unicode = 123;
userData = {
KernOnSpecialSpacing = {
L = slash;
R = parenthesis;
};
};
},
{
glyphname = braceright;
kernLeft = KO_braceright;
lastChange = "2025-02-06 10:35:24 +0000";
layers = (
{
layerId = "AC72BA4F-EBEC-4C28-9168-13A8176B9035";
shapes = (
{
closed = 1;
nodes = (
(234,-230,o),
(303,-158,o),
(284,-29,cs),
(257,175,ls),
(250,219,o),
(264,241,o),
(296,241,cs),
(338,241,l),
(338,301,l),
(296,301,ls),
(264,301,o),
(250,323,o),
(257,367,cs),
(284,574,ls),
(303,703,o),
(234,775,o),
(126,775,cs),
(66,775,o),
(35,753,o),
(10,710,c),
(58,674,l),
(78,704,o),
(98,715,o),
(132,715,cs),
(219,715,o),
(227,638,o),
(211,537,cs),
(194,412,ls),
(181,328,o),
(198,283,o),
(245,271,c),
(193,254,o),
(179,208,o),
(195,119,cs),
(211,8,ls),
(227,-93,o),
(219,-170,o),
(132,-170,cs),
(98,-170,o),
(78,-159,o),
(60,-129,c),
(10,-165,l),
(35,-208,o),
(66,-230,o),
(126,-230,cs)
);
}
);
userData = {
com.hugojourdan.ColorFlow = {
"0" = 0;
"1" = 0;
"10" = 0;
"11" = 0;
"2" = 0;
"3" = 0;
"4" = 0;
"5" = 0;
"6" = 0;
"7" = 0;
"8" = 0;
"9" = 0;
};
};
width = 358;
},
{
layerId = "BC57D14F-D7AD-4877-A02E-2DA2D5328E1F";
shapes = (
{
closed = 1;
nodes = (
(249,-230,o),
(342,-159,o),
(317,11,cs),
(297,164,ls),
(291,199,o),
(306,218,o),
(338,218,cs),
(388,218,l),
(388,326,l),
(338,326,ls),
(305,326,o),
(291,344,o),
(297,380,cs),
(317,534,ls),
(342,703,o),
(249,775,o),
(136,775,cs),
(66,775,o),
(30,751,o),
(7,717,c),
(69,642,l),
(83,661,o),
(103,673,o),
(130,673,cs),
(201,673,o),
(202,608,o),
(193,530,cs),
(181,414,ls),
(171,333,o),
(191,286,o),
(249,272,c),
(188,256,o),
(170,211,o),
(182,126,cs),
(193,15,ls),
(202,-62,o),
(200,-128,o),
(130,-128,cs),
(102,-128,o),
(83,-116,o),
(70,-97,c),
(7,-172,l),
(30,-206,o),
(66,-230,o),
(136,-230,cs)
);
}
);
userData = {
com.hugojourdan.ColorFlow = {
"0" = 0;
"1" = 0;
"10" = 0;
"11" = 0;
"2" = 0;
"3" = 0;
"4" = 0;
"5" = 0;
"6" = 0;
"7" = 0;
"8" = 0;
"9" = 0;
};
};
width = 402;
}
);
metricLeft = "=|braceleft";
metricRight = "=|braceleft";
unicode = 125;
userData = {
KernOnSpecialSpacing = {
L = parenthesis;
};
};
},
{
glyphname = bracketleft;
kernRight = KO_bracketleft;
layers = (
{
layerId = "AC72BA4F-EBEC-4C28-9168-13A8176B9035";
shapes = (
{
closed = 1;
nodes = (
(267,-215,l),
(267,-162,l),
(140,-162,l),
(140,708,l),
(267,708,l),
(267,760,l),
(80,760,l),
(80,-215,l)
);
}
);
userData = {
com.hugojourdan.ColorFlow = {
"0" = 0;
"1" = 0;
"10" = 0;
"11" = 0;
"2" = 0;
"3" = 0;
"4" = 0;
"5" = 0;
"6" = 0;
"7" = 0;
"8" = 0;
"9" = 0;
};
};
width = 301;
},
{
layerId = "BC57D14F-D7AD-4877-A02E-2DA2D5328E1F";
shapes = (
{
closed = 1;
nodes = (
(308,-215,l),
(308,-121,l),
(180,-121,l),
(180,666,l),
(308,666,l),
(308,760,l),
(59,760,l),
(59,-215,l)
);
}
);
userData = {
com.hugojourdan.ColorFlow = {
"0" = 0;
"1" = 0;
"10" = 0;
"11" = 0;
"2" = 0;
"3" = 0;
"4" = 0;
"5" = 0;
"6" = 0;
"7" = 0;
"8" = 0;
"9" = 0;
};
};
width = 331;
}
);
unicode = 91;
userData = {
KernOnSpecialSpacing = {
L = NoKerning;
R = parenthesis;
};
};
},
{
glyphname = bracketright;
kernLeft = KO_bracketright;
lastChange = "2025-02-06 10:35:32 +0000";
layers = (
{
layerId = "AC72BA4F-EBEC-4C28-9168-13A8176B9035";
shapes = (
{
closed = 1;
nodes = (
(221,760,l),
(34,760,l),
(34,708,l),
(161,708,l),
(161,-162,l),
(34,-162,l),
(34,-215,l),
(221,-215,l)
);
}
);
userData = {
com.hugojourdan.ColorFlow = {
"0" = 0;
"1" = 0;
"10" = 0;
"11" = 0;
"2" = 0;
"3" = 0;
"4" = 0;
"5" = 0;
"6" = 0;
"7" = 0;
"8" = 0;
"9" = 0;
};
};
width = 301;
},
{
layerId = "BC57D14F-D7AD-4877-A02E-2DA2D5328E1F";
shapes = (
{
closed = 1;
nodes = (
(272,760,l),
(23,760,l),
(23,666,l),
(151,666,l),
(151,-121,l),
(23,-121,l),
(23,-215,l),
(272,-215,l)
);
}
);
userData = {
com.hugojourdan.ColorFlow = {
"0" = 0;
"1" = 0;
"10" = 0;
"11" = 0;
"2" = 0;
"3" = 0;
"4" = 0;
"5" = 0;
"6" = 0;
"7" = 0;
"8" = 0;
"9" = 0;
};
};
width = 331;
}
);
metricLeft = "=|bracketleft";
metricRight = "=|bracketleft";
unicode = 93;
userData = {
KernOnSpecialSpacing = {
L = parenthesis;
R = NoKerning;
};
};
},
{
glyphname = quoteleft;
kernLeft = KO_quotedblleft;
kernRight = KO_quotedblleft;
layers = (
{
background = {
shapes = (
{
closed = 1;
nodes = (
(131,479,l),
(195,751,l),
(149,751,l),
(72,479,l)
);
}
);
};
layerId = "AC72BA4F-EBEC-4C28-9168-13A8176B9035";
shapes = (
{
alignment = -1;
angle = 180;
pos = (262,587);
ref = comma;
}
);
userData = {
com.hugojourdan.ColorFlow = {
"0" = 0;
"1" = 0;
"10" = 0;
"11" = 0;
"2" = 0;
"3" = 0;
"4" = 0;
"5" = 0;
"6" = 0;
"7" = 0;
"8" = 0;
"9" = 0;
};
};
width = 287;
},
{
layerId = "BC57D14F-D7AD-4877-A02E-2DA2D5328E1F";
shapes = (
{
alignment = -1;
angle = 180;
pos = (304,591);
ref = comma;
}
);
userData = {
com.hugojourdan.ColorFlow = {
"0" = 0;
"1" = 0;
"10" = 0;
"11" = 0;
"2" = 0;
"3" = 0;
"4" = 0;
"5" = 0;
"6" = 0;
"7" = 0;
"8" = 0;
"9" = 0;
};
};
width = 320;
}
);
metricRight = "=|";
unicode = 8216;
userData = {
KernOnSpecialSpacing = {
L = quotes;
R = quotes;
};
};
},
{
glyphname = guilsinglleft;
kernLeft = KO_guillemetleft;
kernRight = KO_guillemetleft;
layers = (
{
layerId = "AC72BA4F-EBEC-4C28-9168-13A8176B9035";
shapes = (
{
closed = 1;
nodes = (
(307,118,l),
(136,299,l),
(307,481,l),
(261,526,l),
(54,299,l),
(261,72,l)
);
}
);
userData = {
com.hugojourdan.ColorFlow = {
"0" = 0;
"1" = 0;
"10" = 0;
"11" = 0;
"2" = 0;
"3" = 0;
"4" = 0;
"5" = 0;
"6" = 0;
"7" = 0;
"8" = 0;
"9" = 0;
};
};
width = 359;
},
{
layerId = "BC57D14F-D7AD-4877-A02E-2DA2D5328E1F";
shapes = (
{
closed = 1;
nodes = (
(369,124,l),
(219,299,l),
(367,475,l),
(278,549,l),
(72,299,l),
(278,49,l)
);
}
);
userData = {
com.hugojourdan.ColorFlow = {
"0" = 0;
"1" = 0;
"10" = 0;
"11" = 0;
"2" = 0;
"3" = 0;
"4" = 0;
"5" = 0;
"6" = 0;
"7" = 0;
"8" = 0;
"9" = 0;
};
};
width = 440;
}
);
unicode = 8249;
userData = {
KernOnSpecialSpacing = {
L = quotes;
R = quotes;
};
};
},
{
glyphname = guilsinglright;
kernLeft = KO_guillemetright;
kernRight = KO_guillemetright;
layers = (
{
layerId = "AC72BA4F-EBEC-4C28-9168-13A8176B9035";
shapes = (
{
closed = 1;
nodes = (
(305,299,l),
(98,526,l),
(52,481,l),
(223,299,l),
(52,118,l),
(98,72,l)
);
}
);
userData = {
com.hugojourdan.ColorFlow = {
"0" = 0;
"1" = 0;
"10" = 0;
"11" = 0;
"2" = 0;
"3" = 0;
"4" = 0;
"5" = 0;
"6" = 0;
"7" = 0;
"8" = 0;
"9" = 0;
};
};
width = 359;
},
{
layerId = "BC57D14F-D7AD-4877-A02E-2DA2D5328E1F";
shapes = (
{
closed = 1;
nodes = (
(368,299,l),
(162,549,l),
(73,475,l),
(221,299,l),
(71,124,l),
(162,49,l)
);
}
);
userData = {
com.hugojourdan.ColorFlow = {
"0" = 0;
"1" = 0;
"10" = 0;
"11" = 0;
"2" = 0;
"3" = 0;
"4" = 0;
"5" = 0;
"6" = 0;
"7" = 0;
"8" = 0;
"9" = 0;
};
};
width = 440;
}
);
metricLeft = "=|guilsinglleft";
metricRight = "=|guilsinglleft";
unicode = 8250;
userData = {
KernOnSpecialSpacing = {
L = quotes;
R = quotes;
};
};
},
{
glyphname = quotesingle;
kernLeft = KO_quotesingle;
kernRight = KO_quotesingle;
layers = (
{
layerId = "AC72BA4F-EBEC-4C28-9168-13A8176B9035";
shapes = (
{
closed = 1;
nodes = (
(130,508,l),
(130,760,l),
(60,760,l),
(60,508,l)
);
}
);
userData = {
com.hugojourdan.ColorFlow = {
"0" = 0;
"1" = 0;
"10" = 0;
"11" = 0;
"2" = 0;
"3" = 0;
"4" = 0;
"5" = 0;
"6" = 0;
"7" = 0;
"8" = 0;
"9" = 0;
};
};
width = 190;
},
{
layerId = "BC57D14F-D7AD-4877-A02E-2DA2D5328E1F";
shapes = (
{
closed = 1;
nodes = (
(177,478,l),
(177,760,l),
(54,760,l),
(54,478,l)
);
}
);
userData = {
com.hugojourdan.ColorFlow = {
"0" = 0;
"1" = 0;
"10" = 0;
"11" = 0;
"2" = 0;
"3" = 0;
"4" = 0;
"5" = 0;
"6" = 0;
"7" = 0;
"8" = 0;
"9" = 0;
};
};
width = 231;
}
);
metricRight = "=|";
unicode = 39;
userData = {
KernOnSpecialSpacing = {
L = quotes;
R = quotes;
};
};
},
